<svg width="1440" height="584" viewBox="0 0 1440 584" fill="none" xmlns="http://www.w3.org/2000/svg">
<rect width="1440" height="584" fill="white"/>
<path d="M73.0753 221.234C72.9825 220.366 72.5914 219.69 71.902 219.206C71.2192 218.722 70.331 218.48 69.2372 218.48C68.4683 218.48 67.8087 218.596 67.2585 218.828C66.7083 219.06 66.2874 219.375 65.9957 219.773C65.7041 220.17 65.5549 220.625 65.5483 221.135C65.5483 221.559 65.6444 221.927 65.8366 222.239C66.0355 222.55 66.304 222.815 66.642 223.034C66.9801 223.246 67.3546 223.425 67.7656 223.571C68.1766 223.717 68.5909 223.839 69.0085 223.939L70.9176 224.416C71.6866 224.595 72.4257 224.837 73.1349 225.142C73.8509 225.447 74.4905 225.831 75.054 226.295C75.6241 226.759 76.0748 227.32 76.4062 227.976C76.7377 228.632 76.9034 229.401 76.9034 230.283C76.9034 231.476 76.5985 232.527 75.9886 233.435C75.3788 234.336 74.4972 235.042 73.3438 235.553C72.197 236.056 70.8082 236.308 69.1776 236.308C67.5933 236.308 66.2178 236.063 65.0511 235.572C63.8911 235.082 62.983 234.366 62.3267 233.425C61.6771 232.483 61.3258 231.337 61.2727 229.984H64.902C64.955 230.694 65.1738 231.284 65.5582 231.754C65.9427 232.225 66.4432 232.576 67.0597 232.808C67.6828 233.04 68.3788 233.156 69.1477 233.156C69.9498 233.156 70.6525 233.037 71.2557 232.798C71.8655 232.553 72.3428 232.215 72.6875 231.784C73.0322 231.347 73.2079 230.836 73.2145 230.253C73.2079 229.723 73.0521 229.285 72.7472 228.94C72.4422 228.589 72.0147 228.297 71.4645 228.065C70.9209 227.827 70.2846 227.615 69.5554 227.429L67.2386 226.832C65.5616 226.402 64.2358 225.749 63.2614 224.874C62.2936 223.992 61.8097 222.822 61.8097 221.364C61.8097 220.164 62.1345 219.113 62.7841 218.212C63.4403 217.31 64.3319 216.611 65.4588 216.114C66.5857 215.61 67.8617 215.358 69.2869 215.358C70.732 215.358 71.9981 215.61 73.0852 216.114C74.179 216.611 75.0374 217.304 75.6605 218.192C76.2836 219.073 76.6051 220.088 76.625 221.234H73.0753ZM83.7325 227.051V236H80.133V215.636H83.6529V223.322H83.8319C84.1898 222.461 84.7433 221.781 85.4924 221.284C86.2481 220.78 87.2093 220.528 88.3759 220.528C89.4365 220.528 90.3612 220.75 91.1501 221.195C91.9389 221.639 92.5487 222.288 92.9796 223.143C93.4171 223.999 93.6359 225.043 93.6359 226.276V236H90.0364V226.832C90.0364 225.805 89.7713 225.006 89.241 224.436C88.7173 223.859 87.9815 223.571 87.0336 223.571C86.3972 223.571 85.8272 223.71 85.3234 223.989C84.8262 224.26 84.4351 224.655 84.1501 225.172C83.8717 225.689 83.7325 226.315 83.7325 227.051ZM101.8 236.308C100.832 236.308 99.9603 236.136 99.1847 235.791C98.4158 235.44 97.8059 234.923 97.3552 234.24C96.9111 233.557 96.689 232.715 96.689 231.714C96.689 230.853 96.8481 230.14 97.1663 229.577C97.4844 229.013 97.9186 228.562 98.4688 228.224C99.019 227.886 99.6388 227.631 100.328 227.459C101.024 227.28 101.743 227.151 102.486 227.071C103.381 226.978 104.107 226.895 104.663 226.822C105.22 226.743 105.625 226.624 105.876 226.464C106.135 226.299 106.264 226.044 106.264 225.699V225.639C106.264 224.89 106.042 224.31 105.598 223.899C105.154 223.488 104.514 223.283 103.679 223.283C102.797 223.283 102.098 223.475 101.581 223.859C101.071 224.244 100.726 224.698 100.547 225.222L97.1862 224.744C97.4513 223.816 97.8888 223.041 98.4987 222.418C99.1085 221.788 99.8542 221.317 100.736 221.006C101.617 220.688 102.592 220.528 103.659 220.528C104.395 220.528 105.127 220.615 105.857 220.787C106.586 220.959 107.252 221.244 107.855 221.642C108.458 222.033 108.942 222.567 109.307 223.243C109.678 223.919 109.864 224.764 109.864 225.778V236H106.403V233.902H106.284C106.065 234.326 105.757 234.724 105.359 235.095C104.968 235.46 104.475 235.755 103.878 235.98C103.288 236.199 102.595 236.308 101.8 236.308ZM102.734 233.663C103.457 233.663 104.083 233.521 104.614 233.236C105.144 232.944 105.552 232.56 105.837 232.082C106.128 231.605 106.274 231.085 106.274 230.521V228.722C106.162 228.814 105.969 228.901 105.698 228.98C105.432 229.06 105.134 229.129 104.803 229.189C104.471 229.249 104.143 229.302 103.818 229.348C103.493 229.394 103.212 229.434 102.973 229.467C102.436 229.54 101.956 229.66 101.531 229.825C101.107 229.991 100.772 230.223 100.527 230.521C100.282 230.813 100.159 231.191 100.159 231.655C100.159 232.318 100.401 232.818 100.885 233.156C101.369 233.494 101.985 233.663 102.734 233.663ZM119.251 236.268C118.051 236.268 116.977 235.96 116.029 235.344C115.081 234.727 114.332 233.832 113.782 232.659C113.232 231.486 112.957 230.061 112.957 228.384C112.957 226.687 113.235 225.255 113.792 224.088C114.355 222.915 115.114 222.03 116.069 221.433C117.023 220.83 118.087 220.528 119.261 220.528C120.155 220.528 120.891 220.681 121.468 220.986C122.045 221.284 122.502 221.645 122.84 222.07C123.178 222.487 123.44 222.882 123.626 223.253H123.775V215.636H127.384V236H123.844V233.594H123.626C123.44 233.965 123.172 234.359 122.82 234.777C122.469 235.188 122.005 235.539 121.428 235.831C120.851 236.123 120.126 236.268 119.251 236.268ZM120.255 233.315C121.017 233.315 121.667 233.11 122.204 232.699C122.741 232.281 123.148 231.701 123.427 230.959C123.705 230.216 123.844 229.351 123.844 228.364C123.844 227.376 123.705 226.518 123.427 225.788C123.155 225.059 122.751 224.492 122.214 224.088C121.683 223.684 121.03 223.482 120.255 223.482C119.453 223.482 118.783 223.69 118.246 224.108C117.709 224.526 117.305 225.102 117.033 225.838C116.762 226.574 116.626 227.416 116.626 228.364C116.626 229.318 116.762 230.17 117.033 230.919C117.312 231.661 117.719 232.248 118.256 232.679C118.8 233.103 119.466 233.315 120.255 233.315ZM137.982 236.298C136.49 236.298 135.198 235.97 134.104 235.314C133.01 234.658 132.162 233.74 131.558 232.56C130.962 231.38 130.663 230.001 130.663 228.423C130.663 226.846 130.962 225.464 131.558 224.277C132.162 223.09 133.01 222.169 134.104 221.513C135.198 220.857 136.49 220.528 137.982 220.528C139.473 220.528 140.766 220.857 141.86 221.513C142.953 222.169 143.798 223.09 144.395 224.277C144.998 225.464 145.3 226.846 145.3 228.423C145.3 230.001 144.998 231.38 144.395 232.56C143.798 233.74 142.953 234.658 141.86 235.314C140.766 235.97 139.473 236.298 137.982 236.298ZM138.002 233.415C138.81 233.415 139.486 233.193 140.03 232.749C140.574 232.298 140.978 231.695 141.243 230.939C141.515 230.183 141.651 229.341 141.651 228.413C141.651 227.479 141.515 226.634 141.243 225.878C140.978 225.116 140.574 224.509 140.03 224.058C139.486 223.607 138.81 223.382 138.002 223.382C137.173 223.382 136.484 223.607 135.933 224.058C135.39 224.509 134.982 225.116 134.71 225.878C134.445 226.634 134.313 227.479 134.313 228.413C134.313 229.341 134.445 230.183 134.71 230.939C134.982 231.695 135.39 232.298 135.933 232.749C136.484 233.193 137.173 233.415 138.002 233.415ZM151.169 236L146.854 220.727H150.523L153.208 231.466H153.347L156.091 220.727H159.721L162.465 231.406H162.614L165.259 220.727H168.938L164.613 236H160.864L158 225.679H157.792L154.928 236H151.169ZM183.622 224.764L180.341 225.122C180.248 224.791 180.086 224.479 179.854 224.188C179.628 223.896 179.323 223.661 178.939 223.482C178.554 223.303 178.084 223.213 177.527 223.213C176.778 223.213 176.148 223.375 175.638 223.7C175.134 224.025 174.885 224.446 174.892 224.963C174.885 225.407 175.048 225.768 175.379 226.047C175.717 226.325 176.274 226.554 177.05 226.733L179.655 227.29C181.1 227.601 182.174 228.095 182.876 228.771C183.586 229.447 183.944 230.332 183.95 231.426C183.944 232.387 183.662 233.236 183.105 233.972C182.555 234.701 181.789 235.271 180.808 235.682C179.827 236.093 178.7 236.298 177.427 236.298C175.558 236.298 174.053 235.907 172.913 235.125C171.773 234.336 171.094 233.239 170.875 231.834L174.385 231.496C174.544 232.185 174.882 232.705 175.399 233.057C175.916 233.408 176.589 233.584 177.417 233.584C178.273 233.584 178.959 233.408 179.476 233.057C179.999 232.705 180.261 232.271 180.261 231.754C180.261 231.317 180.092 230.955 179.754 230.67C179.423 230.385 178.906 230.167 178.203 230.014L175.598 229.467C174.133 229.162 173.049 228.649 172.346 227.926C171.644 227.197 171.296 226.276 171.302 225.162C171.296 224.221 171.551 223.405 172.068 222.716C172.592 222.02 173.318 221.483 174.246 221.105C175.18 220.721 176.257 220.528 177.477 220.528C179.267 220.528 180.676 220.91 181.703 221.672C182.737 222.434 183.377 223.465 183.622 224.764Z" fill="#0671E0"/>
<g filter="url(#filter0_d_2_1082)">
<rect x="263" y="208" width="200" height="200" rx="10" fill="white"/>
</g>
<path d="M264.205 434V432.977L268.045 428.773C268.496 428.28 268.867 427.852 269.159 427.489C269.451 427.121 269.667 426.777 269.807 426.455C269.951 426.129 270.023 425.788 270.023 425.432C270.023 425.023 269.924 424.669 269.727 424.369C269.534 424.07 269.269 423.839 268.932 423.676C268.595 423.513 268.216 423.432 267.795 423.432C267.348 423.432 266.958 423.525 266.625 423.71C266.295 423.892 266.04 424.148 265.858 424.477C265.68 424.807 265.591 425.193 265.591 425.636H264.25C264.25 424.955 264.407 424.356 264.722 423.841C265.036 423.326 265.464 422.924 266.006 422.636C266.551 422.348 267.163 422.205 267.841 422.205C268.523 422.205 269.127 422.348 269.653 422.636C270.18 422.924 270.593 423.312 270.892 423.801C271.191 424.29 271.341 424.833 271.341 425.432C271.341 425.86 271.263 426.278 271.108 426.688C270.956 427.093 270.691 427.545 270.312 428.045C269.938 428.542 269.417 429.148 268.75 429.864L266.136 432.659V432.75H271.545V434H264.205ZM274.015 437.273V425.273H275.31V426.659H275.469C275.568 426.508 275.704 426.314 275.878 426.08C276.056 425.841 276.31 425.629 276.64 425.443C276.973 425.254 277.424 425.159 277.992 425.159C278.727 425.159 279.375 425.343 279.935 425.71C280.496 426.078 280.933 426.598 281.248 427.273C281.562 427.947 281.719 428.742 281.719 429.659C281.719 430.583 281.562 431.384 281.248 432.062C280.933 432.737 280.498 433.259 279.941 433.631C279.384 433.998 278.742 434.182 278.015 434.182C277.454 434.182 277.005 434.089 276.668 433.903C276.331 433.714 276.072 433.5 275.89 433.261C275.708 433.019 275.568 432.818 275.469 432.659H275.356V437.273H274.015ZM275.333 429.636C275.333 430.295 275.43 430.877 275.623 431.381C275.816 431.881 276.098 432.273 276.469 432.557C276.841 432.837 277.295 432.977 277.833 432.977C278.394 432.977 278.861 432.83 279.236 432.534C279.615 432.235 279.899 431.833 280.089 431.33C280.282 430.822 280.378 430.258 280.378 429.636C280.378 429.023 280.284 428.47 280.094 427.977C279.909 427.481 279.627 427.089 279.248 426.801C278.873 426.509 278.401 426.364 277.833 426.364C277.288 426.364 276.829 426.502 276.458 426.778C276.087 427.051 275.806 427.434 275.617 427.926C275.428 428.415 275.333 428.985 275.333 429.636ZM284.505 425.273L286.596 428.841L288.687 425.273H290.233L287.414 429.636L290.233 434H288.687L286.596 430.614L284.505 434H282.96L285.733 429.636L282.96 425.273H284.505ZM294.246 432.409L294.155 433.023C294.091 433.455 293.992 433.917 293.86 434.409C293.731 434.902 293.596 435.366 293.456 435.801C293.316 436.237 293.201 436.583 293.11 436.841H292.087C292.136 436.598 292.201 436.278 292.28 435.881C292.36 435.483 292.439 435.038 292.519 434.545C292.602 434.057 292.67 433.557 292.723 433.045L292.791 432.409H294.246ZM268.568 458L270.477 446.364H271.614L269.705 458H268.568ZM263.273 454.773L263.455 453.636H272.136L271.955 454.773H263.273ZM264.477 458L266.386 446.364H267.523L265.614 458H264.477ZM263.955 450.727L264.136 449.591H272.818L272.636 450.727H263.955ZM275.08 458H273.603L277.876 446.364H279.33L283.603 458H282.126L278.648 448.205H278.557L275.08 458ZM275.626 453.455H281.58V454.705H275.626V453.455ZM285.515 458V446.364H289.584C290.394 446.364 291.063 446.504 291.589 446.784C292.116 447.061 292.508 447.434 292.765 447.903C293.023 448.369 293.152 448.886 293.152 449.455C293.152 449.955 293.063 450.367 292.885 450.693C292.71 451.019 292.479 451.277 292.191 451.466C291.907 451.655 291.599 451.795 291.265 451.886V452C291.621 452.023 291.979 452.148 292.339 452.375C292.699 452.602 293 452.928 293.243 453.352C293.485 453.777 293.606 454.295 293.606 454.909C293.606 455.492 293.474 456.017 293.209 456.483C292.943 456.949 292.525 457.318 291.953 457.591C291.381 457.864 290.637 458 289.72 458H285.515ZM286.924 456.75H289.72C290.64 456.75 291.294 456.572 291.68 456.216C292.07 455.856 292.265 455.42 292.265 454.909C292.265 454.515 292.165 454.152 291.964 453.818C291.763 453.481 291.477 453.212 291.106 453.011C290.735 452.807 290.296 452.705 289.788 452.705H286.924V456.75ZM286.924 451.477H289.538C289.962 451.477 290.345 451.394 290.686 451.227C291.03 451.061 291.303 450.826 291.504 450.523C291.709 450.22 291.811 449.864 291.811 449.455C291.811 448.943 291.633 448.509 291.277 448.153C290.921 447.794 290.356 447.614 289.584 447.614H286.924V451.477ZM296.022 458V446.364H300.09C300.9 446.364 301.569 446.504 302.095 446.784C302.622 447.061 303.014 447.434 303.272 447.903C303.529 448.369 303.658 448.886 303.658 449.455C303.658 449.955 303.569 450.367 303.391 450.693C303.217 451.019 302.986 451.277 302.698 451.466C302.414 451.655 302.105 451.795 301.772 451.886V452C302.128 452.023 302.486 452.148 302.845 452.375C303.205 452.602 303.506 452.928 303.749 453.352C303.991 453.777 304.112 454.295 304.112 454.909C304.112 455.492 303.98 456.017 303.715 456.483C303.45 456.949 303.031 457.318 302.459 457.591C301.887 457.864 301.143 458 300.226 458H296.022ZM297.431 456.75H300.226C301.147 456.75 301.8 456.572 302.186 456.216C302.577 455.856 302.772 455.42 302.772 454.909C302.772 454.515 302.671 454.152 302.47 453.818C302.27 453.481 301.984 453.212 301.612 453.011C301.241 452.807 300.802 452.705 300.294 452.705H297.431V456.75ZM297.431 451.477H300.044C300.469 451.477 300.851 451.394 301.192 451.227C301.537 451.061 301.809 450.826 302.01 450.523C302.215 450.22 302.317 449.864 302.317 449.455C302.317 448.943 302.139 448.509 301.783 448.153C301.427 447.794 300.862 447.614 300.09 447.614H297.431V451.477ZM306.528 458V446.364H313.551V447.614H307.937V451.545H313.187V452.795H307.937V456.75H313.641V458H306.528ZM319.781 458H316.19V446.364H319.94C321.069 446.364 322.035 446.597 322.838 447.062C323.641 447.525 324.257 448.189 324.685 449.057C325.113 449.92 325.327 450.955 325.327 452.159C325.327 453.371 325.111 454.415 324.679 455.29C324.247 456.161 323.618 456.831 322.793 457.301C321.967 457.767 320.963 458 319.781 458ZM317.599 456.75H319.69C320.652 456.75 321.45 456.564 322.082 456.193C322.715 455.822 323.187 455.294 323.497 454.608C323.808 453.922 323.963 453.106 323.963 452.159C323.963 451.22 323.81 450.411 323.503 449.733C323.196 449.051 322.738 448.528 322.128 448.165C321.518 447.797 320.759 447.614 319.849 447.614H317.599V456.75ZM331.677 446.364V458H330.268V447.841H330.199L327.359 449.727V448.295L330.268 446.364H331.677ZM340.223 452.182C340.223 450.75 340.409 449.434 340.78 448.233C341.155 447.028 341.689 445.92 342.382 444.909H343.564C343.291 445.284 343.036 445.746 342.797 446.295C342.562 446.841 342.356 447.441 342.178 448.097C342 448.748 341.86 449.422 341.757 450.119C341.659 450.816 341.61 451.504 341.61 452.182C341.61 453.083 341.697 453.998 341.871 454.926C342.045 455.854 342.28 456.716 342.576 457.511C342.871 458.307 343.201 458.955 343.564 459.455H342.382C341.689 458.443 341.155 457.337 340.78 456.136C340.409 454.932 340.223 453.614 340.223 452.182ZM349.484 458.159C349.007 458.152 348.529 458.061 348.052 457.886C347.575 457.712 347.139 457.419 346.745 457.006C346.351 456.589 346.035 456.027 345.796 455.318C345.558 454.606 345.438 453.712 345.438 452.636C345.438 451.606 345.535 450.693 345.728 449.898C345.921 449.098 346.202 448.426 346.569 447.881C346.936 447.331 347.38 446.915 347.899 446.631C348.421 446.347 349.01 446.205 349.666 446.205C350.317 446.205 350.897 446.335 351.404 446.597C351.916 446.854 352.332 447.214 352.654 447.676C352.976 448.138 353.185 448.67 353.279 449.273H351.893C351.764 448.75 351.514 448.316 351.143 447.972C350.772 447.627 350.279 447.455 349.666 447.455C348.764 447.455 348.054 447.847 347.535 448.631C347.02 449.415 346.76 450.515 346.757 451.932H346.847C347.06 451.61 347.311 451.335 347.603 451.108C347.899 450.877 348.224 450.699 348.58 450.574C348.936 450.449 349.313 450.386 349.711 450.386C350.378 450.386 350.988 450.553 351.541 450.886C352.094 451.216 352.537 451.672 352.87 452.256C353.204 452.835 353.37 453.5 353.37 454.25C353.37 454.97 353.209 455.629 352.887 456.227C352.565 456.822 352.113 457.295 351.529 457.648C350.95 457.996 350.268 458.167 349.484 458.159ZM349.484 456.909C349.961 456.909 350.389 456.79 350.768 456.551C351.15 456.312 351.452 455.992 351.671 455.591C351.895 455.189 352.007 454.742 352.007 454.25C352.007 453.769 351.899 453.331 351.683 452.938C351.471 452.54 351.177 452.223 350.802 451.989C350.431 451.754 350.007 451.636 349.529 451.636C349.169 451.636 348.834 451.708 348.524 451.852C348.213 451.992 347.94 452.186 347.705 452.432C347.474 452.678 347.293 452.96 347.16 453.278C347.027 453.593 346.961 453.924 346.961 454.273C346.961 454.735 347.069 455.167 347.285 455.568C347.505 455.97 347.804 456.294 348.183 456.54C348.565 456.786 348.999 456.909 349.484 456.909ZM359.5 458.159C358.644 458.159 357.915 457.926 357.312 457.46C356.71 456.991 356.25 456.311 355.932 455.42C355.614 454.527 355.455 453.447 355.455 452.182C355.455 450.924 355.614 449.85 355.932 448.96C356.254 448.066 356.716 447.384 357.318 446.915C357.924 446.441 358.652 446.205 359.5 446.205C360.348 446.205 361.074 446.441 361.676 446.915C362.282 447.384 362.744 448.066 363.062 448.96C363.384 449.85 363.545 450.924 363.545 452.182C363.545 453.447 363.386 454.527 363.068 455.42C362.75 456.311 362.29 456.991 361.688 457.46C361.085 457.926 360.356 458.159 359.5 458.159ZM359.5 456.909C360.348 456.909 361.008 456.5 361.477 455.682C361.947 454.864 362.182 453.697 362.182 452.182C362.182 451.174 362.074 450.316 361.858 449.608C361.646 448.9 361.339 448.36 360.938 447.989C360.54 447.617 360.061 447.432 359.5 447.432C358.659 447.432 358.002 447.847 357.528 448.676C357.055 449.502 356.818 450.67 356.818 452.182C356.818 453.189 356.924 454.045 357.136 454.75C357.348 455.455 357.653 455.991 358.051 456.358C358.453 456.725 358.936 456.909 359.5 456.909ZM371.736 455.818V455.205C371.736 454.78 371.823 454.392 371.998 454.04C372.176 453.684 372.433 453.4 372.77 453.188C373.111 452.972 373.524 452.864 374.009 452.864C374.502 452.864 374.914 452.972 375.248 453.188C375.581 453.4 375.833 453.684 376.003 454.04C376.174 454.392 376.259 454.78 376.259 455.205V455.818C376.259 456.242 376.172 456.633 375.998 456.989C375.827 457.341 375.573 457.625 375.236 457.841C374.903 458.053 374.494 458.159 374.009 458.159C373.517 458.159 373.102 458.053 372.765 457.841C372.428 457.625 372.172 457.341 371.998 456.989C371.823 456.633 371.736 456.242 371.736 455.818ZM372.895 455.205V455.818C372.895 456.17 372.979 456.487 373.145 456.767C373.312 457.044 373.6 457.182 374.009 457.182C374.407 457.182 374.687 457.044 374.85 456.767C375.017 456.487 375.1 456.17 375.1 455.818V455.205C375.1 454.852 375.02 454.538 374.861 454.261C374.702 453.981 374.418 453.841 374.009 453.841C373.611 453.841 373.325 453.981 373.151 454.261C372.981 454.538 372.895 454.852 372.895 455.205ZM365.941 449.159V448.545C365.941 448.121 366.028 447.733 366.202 447.381C366.38 447.025 366.638 446.741 366.975 446.528C367.316 446.312 367.729 446.205 368.214 446.205C368.706 446.205 369.119 446.312 369.452 446.528C369.786 446.741 370.037 447.025 370.208 447.381C370.378 447.733 370.464 448.121 370.464 448.545V449.159C370.464 449.583 370.377 449.973 370.202 450.33C370.032 450.682 369.778 450.966 369.441 451.182C369.108 451.394 368.698 451.5 368.214 451.5C367.721 451.5 367.306 451.394 366.969 451.182C366.632 450.966 366.377 450.682 366.202 450.33C366.028 449.973 365.941 449.583 365.941 449.159ZM367.1 448.545V449.159C367.1 449.511 367.183 449.828 367.35 450.108C367.517 450.384 367.805 450.523 368.214 450.523C368.611 450.523 368.892 450.384 369.055 450.108C369.221 449.828 369.305 449.511 369.305 449.159V448.545C369.305 448.193 369.225 447.879 369.066 447.602C368.907 447.322 368.623 447.182 368.214 447.182C367.816 447.182 367.53 447.322 367.356 447.602C367.185 447.879 367.1 448.193 367.1 448.545ZM366.373 458L374.373 446.364H375.668L367.668 458H366.373ZM381.791 452.182C381.791 453.614 381.603 454.932 381.228 456.136C380.857 457.337 380.325 458.443 379.632 459.455H378.45C378.723 459.08 378.977 458.617 379.211 458.068C379.45 457.523 379.658 456.924 379.836 456.273C380.014 455.617 380.153 454.941 380.251 454.244C380.353 453.544 380.405 452.856 380.405 452.182C380.405 451.28 380.317 450.366 380.143 449.438C379.969 448.509 379.734 447.648 379.439 446.852C379.143 446.057 378.814 445.409 378.45 444.909H379.632C380.325 445.92 380.857 447.028 381.228 448.233C381.603 449.434 381.791 450.75 381.791 452.182Z" fill="#89939E"/>
<g filter="url(#filter1_d_2_1082)">
<rect x="487" y="208" width="200" height="200" rx="10" fill="white"/>
</g>
<path d="M487.932 431.614V430.455L493.045 422.364H493.886V424.159H493.318L489.455 430.273V430.364H496.341V431.614H487.932ZM493.409 434V431.261V430.722V422.364H494.75V434H493.409ZM498.593 437.273V425.273H499.888V426.659H500.047C500.146 426.508 500.282 426.314 500.457 426.08C500.635 425.841 500.888 425.629 501.218 425.443C501.551 425.254 502.002 425.159 502.57 425.159C503.305 425.159 503.953 425.343 504.513 425.71C505.074 426.078 505.511 426.598 505.826 427.273C506.14 427.947 506.297 428.742 506.297 429.659C506.297 430.583 506.14 431.384 505.826 432.062C505.511 432.737 505.076 433.259 504.519 433.631C503.962 433.998 503.32 434.182 502.593 434.182C502.032 434.182 501.583 434.089 501.246 433.903C500.909 433.714 500.65 433.5 500.468 433.261C500.286 433.019 500.146 432.818 500.047 432.659H499.934V437.273H498.593ZM499.911 429.636C499.911 430.295 500.008 430.877 500.201 431.381C500.394 431.881 500.676 432.273 501.047 432.557C501.419 432.837 501.873 432.977 502.411 432.977C502.972 432.977 503.439 432.83 503.814 432.534C504.193 432.235 504.477 431.833 504.667 431.33C504.86 430.822 504.957 430.258 504.957 429.636C504.957 429.023 504.862 428.47 504.672 427.977C504.487 427.481 504.205 427.089 503.826 426.801C503.451 426.509 502.979 426.364 502.411 426.364C501.866 426.364 501.407 426.502 501.036 426.778C500.665 427.051 500.385 427.434 500.195 427.926C500.006 428.415 499.911 428.985 499.911 429.636ZM509.084 425.273L511.174 428.841L513.265 425.273H514.811L511.993 429.636L514.811 434H513.265L511.174 430.614L509.084 434H507.538L510.311 429.636L507.538 425.273H509.084ZM518.824 432.409L518.733 433.023C518.669 433.455 518.57 433.917 518.438 434.409C518.309 434.902 518.175 435.366 518.034 435.801C517.894 436.237 517.779 436.583 517.688 436.841H516.665C516.714 436.598 516.779 436.278 516.858 435.881C516.938 435.483 517.017 435.038 517.097 434.545C517.18 434.057 517.248 433.557 517.301 433.045L517.37 432.409H518.824ZM492.568 458L494.477 446.364H495.614L493.705 458H492.568ZM487.273 454.773L487.455 453.636H496.136L495.955 454.773H487.273ZM488.477 458L490.386 446.364H491.523L489.614 458H488.477ZM487.955 450.727L488.136 449.591H496.818L496.636 450.727H487.955ZM499.08 458H497.603L501.876 446.364H503.33L507.603 458H506.126L502.648 448.205H502.557L499.08 458ZM499.626 453.455H505.58V454.705H499.626V453.455ZM509.515 458V446.364H513.584C514.394 446.364 515.063 446.504 515.589 446.784C516.116 447.061 516.508 447.434 516.765 447.903C517.023 448.369 517.152 448.886 517.152 449.455C517.152 449.955 517.063 450.367 516.885 450.693C516.71 451.019 516.479 451.277 516.191 451.466C515.907 451.655 515.599 451.795 515.265 451.886V452C515.621 452.023 515.979 452.148 516.339 452.375C516.699 452.602 517 452.928 517.243 453.352C517.485 453.777 517.606 454.295 517.606 454.909C517.606 455.492 517.474 456.017 517.209 456.483C516.943 456.949 516.525 457.318 515.953 457.591C515.381 457.864 514.637 458 513.72 458H509.515ZM510.924 456.75H513.72C514.64 456.75 515.294 456.572 515.68 456.216C516.07 455.856 516.265 455.42 516.265 454.909C516.265 454.515 516.165 454.152 515.964 453.818C515.763 453.481 515.477 453.212 515.106 453.011C514.735 452.807 514.296 452.705 513.788 452.705H510.924V456.75ZM510.924 451.477H513.538C513.962 451.477 514.345 451.394 514.686 451.227C515.03 451.061 515.303 450.826 515.504 450.523C515.709 450.22 515.811 449.864 515.811 449.455C515.811 448.943 515.633 448.509 515.277 448.153C514.921 447.794 514.356 447.614 513.584 447.614H510.924V451.477ZM520.022 458V446.364H524.09C524.9 446.364 525.569 446.504 526.095 446.784C526.622 447.061 527.014 447.434 527.272 447.903C527.529 448.369 527.658 448.886 527.658 449.455C527.658 449.955 527.569 450.367 527.391 450.693C527.217 451.019 526.986 451.277 526.698 451.466C526.414 451.655 526.105 451.795 525.772 451.886V452C526.128 452.023 526.486 452.148 526.845 452.375C527.205 452.602 527.506 452.928 527.749 453.352C527.991 453.777 528.112 454.295 528.112 454.909C528.112 455.492 527.98 456.017 527.715 456.483C527.45 456.949 527.031 457.318 526.459 457.591C525.887 457.864 525.143 458 524.226 458H520.022ZM521.431 456.75H524.226C525.147 456.75 525.8 456.572 526.186 456.216C526.577 455.856 526.772 455.42 526.772 454.909C526.772 454.515 526.671 454.152 526.47 453.818C526.27 453.481 525.984 453.212 525.612 453.011C525.241 452.807 524.802 452.705 524.294 452.705H521.431V456.75ZM521.431 451.477H524.044C524.469 451.477 524.851 451.394 525.192 451.227C525.537 451.061 525.809 450.826 526.01 450.523C526.215 450.22 526.317 449.864 526.317 449.455C526.317 448.943 526.139 448.509 525.783 448.153C525.427 447.794 524.862 447.614 524.09 447.614H521.431V451.477ZM530.528 458V446.364H537.551V447.614H531.937V451.545H537.187V452.795H531.937V456.75H537.641V458H530.528ZM543.781 458H540.19V446.364H543.94C545.069 446.364 546.035 446.597 546.838 447.062C547.641 447.525 548.257 448.189 548.685 449.057C549.113 449.92 549.327 450.955 549.327 452.159C549.327 453.371 549.111 454.415 548.679 455.29C548.247 456.161 547.618 456.831 546.793 457.301C545.967 457.767 544.963 458 543.781 458ZM541.599 456.75H543.69C544.652 456.75 545.45 456.564 546.082 456.193C546.715 455.822 547.187 455.294 547.497 454.608C547.808 453.922 547.963 453.106 547.963 452.159C547.963 451.22 547.81 450.411 547.503 449.733C547.196 449.051 546.738 448.528 546.128 448.165C545.518 447.797 544.759 447.614 543.849 447.614H541.599V456.75ZM555.677 446.364V458H554.268V447.841H554.199L551.359 449.727V448.295L554.268 446.364H555.677ZM564.223 452.182C564.223 450.75 564.409 449.434 564.78 448.233C565.155 447.028 565.689 445.92 566.382 444.909H567.564C567.291 445.284 567.036 445.746 566.797 446.295C566.562 446.841 566.356 447.441 566.178 448.097C566 448.748 565.86 449.422 565.757 450.119C565.659 450.816 565.61 451.504 565.61 452.182C565.61 453.083 565.697 453.998 565.871 454.926C566.045 455.854 566.28 456.716 566.576 457.511C566.871 458.307 567.201 458.955 567.564 459.455H566.382C565.689 458.443 565.155 457.337 564.78 456.136C564.409 454.932 564.223 453.614 564.223 452.182ZM569.347 455.614V454.455L574.461 446.364H575.302V448.159H574.734L570.87 454.273V454.364H577.757V455.614H569.347ZM574.825 458V455.261V454.722V446.364H576.166V458H574.825ZM583.781 458.159C582.925 458.159 582.196 457.926 581.594 457.46C580.991 456.991 580.531 456.311 580.213 455.42C579.895 454.527 579.736 453.447 579.736 452.182C579.736 450.924 579.895 449.85 580.213 448.96C580.535 448.066 580.997 447.384 581.599 446.915C582.205 446.441 582.933 446.205 583.781 446.205C584.63 446.205 585.355 446.441 585.957 446.915C586.563 447.384 587.026 448.066 587.344 448.96C587.666 449.85 587.827 450.924 587.827 452.182C587.827 453.447 587.668 454.527 587.349 455.42C587.031 456.311 586.571 456.991 585.969 457.46C585.366 457.926 584.637 458.159 583.781 458.159ZM583.781 456.909C584.63 456.909 585.289 456.5 585.759 455.682C586.228 454.864 586.463 453.697 586.463 452.182C586.463 451.174 586.355 450.316 586.139 449.608C585.927 448.9 585.62 448.36 585.219 447.989C584.821 447.617 584.342 447.432 583.781 447.432C582.94 447.432 582.283 447.847 581.81 448.676C581.336 449.502 581.099 450.67 581.099 452.182C581.099 453.189 581.205 454.045 581.418 454.75C581.63 455.455 581.935 455.991 582.332 456.358C582.734 456.725 583.217 456.909 583.781 456.909ZM596.018 455.818V455.205C596.018 454.78 596.105 454.392 596.279 454.04C596.457 453.684 596.715 453.4 597.052 453.188C597.393 452.972 597.805 452.864 598.29 452.864C598.783 452.864 599.196 452.972 599.529 453.188C599.862 453.4 600.114 453.684 600.285 454.04C600.455 454.392 600.54 454.78 600.54 455.205V455.818C600.54 456.242 600.453 456.633 600.279 456.989C600.109 457.341 599.855 457.625 599.518 457.841C599.184 458.053 598.775 458.159 598.29 458.159C597.798 458.159 597.383 458.053 597.046 457.841C596.709 457.625 596.453 457.341 596.279 456.989C596.105 456.633 596.018 456.242 596.018 455.818ZM597.177 455.205V455.818C597.177 456.17 597.26 456.487 597.427 456.767C597.593 457.044 597.881 457.182 598.29 457.182C598.688 457.182 598.968 457.044 599.131 456.767C599.298 456.487 599.381 456.17 599.381 455.818V455.205C599.381 454.852 599.302 454.538 599.143 454.261C598.984 453.981 598.699 453.841 598.29 453.841C597.893 453.841 597.607 453.981 597.432 454.261C597.262 454.538 597.177 454.852 597.177 455.205ZM590.222 449.159V448.545C590.222 448.121 590.309 447.733 590.484 447.381C590.662 447.025 590.919 446.741 591.256 446.528C591.597 446.312 592.01 446.205 592.495 446.205C592.987 446.205 593.4 446.312 593.734 446.528C594.067 446.741 594.319 447.025 594.489 447.381C594.66 447.733 594.745 448.121 594.745 448.545V449.159C594.745 449.583 594.658 449.973 594.484 450.33C594.313 450.682 594.059 450.966 593.722 451.182C593.389 451.394 592.98 451.5 592.495 451.5C592.002 451.5 591.588 451.394 591.251 451.182C590.913 450.966 590.658 450.682 590.484 450.33C590.309 449.973 590.222 449.583 590.222 449.159ZM591.381 448.545V449.159C591.381 449.511 591.465 449.828 591.631 450.108C591.798 450.384 592.086 450.523 592.495 450.523C592.893 450.523 593.173 450.384 593.336 450.108C593.502 449.828 593.586 449.511 593.586 449.159V448.545C593.586 448.193 593.506 447.879 593.347 447.602C593.188 447.322 592.904 447.182 592.495 447.182C592.097 447.182 591.811 447.322 591.637 447.602C591.466 447.879 591.381 448.193 591.381 448.545ZM590.654 458L598.654 446.364H599.949L591.949 458H590.654ZM606.072 452.182C606.072 453.614 605.885 454.932 605.51 456.136C605.138 457.337 604.606 458.443 603.913 459.455H602.731C603.004 459.08 603.258 458.617 603.493 458.068C603.731 457.523 603.94 456.924 604.118 456.273C604.296 455.617 604.434 454.941 604.532 454.244C604.635 453.544 604.686 452.856 604.686 452.182C604.686 451.28 604.599 450.366 604.424 449.438C604.25 448.509 604.015 447.648 603.72 446.852C603.424 446.057 603.095 445.409 602.731 444.909H603.913C604.606 445.92 605.138 447.028 605.51 448.233C605.885 449.434 606.072 450.75 606.072 452.182Z" fill="#89939E"/>
<g filter="url(#filter2_d_2_1082)">
<rect x="711" y="208" width="200" height="200" rx="10" fill="white"/>
</g>
<path d="M716.068 434.159C715.591 434.152 715.114 434.061 714.636 433.886C714.159 433.712 713.723 433.419 713.33 433.006C712.936 432.589 712.619 432.027 712.381 431.318C712.142 430.606 712.023 429.712 712.023 428.636C712.023 427.606 712.119 426.693 712.312 425.898C712.506 425.098 712.786 424.426 713.153 423.881C713.521 423.331 713.964 422.915 714.483 422.631C715.006 422.347 715.595 422.205 716.25 422.205C716.902 422.205 717.481 422.335 717.989 422.597C718.5 422.854 718.917 423.214 719.239 423.676C719.561 424.138 719.769 424.67 719.864 425.273H718.477C718.348 424.75 718.098 424.316 717.727 423.972C717.356 423.627 716.864 423.455 716.25 423.455C715.348 423.455 714.638 423.847 714.119 424.631C713.604 425.415 713.345 426.515 713.341 427.932H713.432C713.644 427.61 713.896 427.335 714.188 427.108C714.483 426.877 714.809 426.699 715.165 426.574C715.521 426.449 715.898 426.386 716.295 426.386C716.962 426.386 717.572 426.553 718.125 426.886C718.678 427.216 719.121 427.672 719.455 428.256C719.788 428.835 719.955 429.5 719.955 430.25C719.955 430.97 719.794 431.629 719.472 432.227C719.15 432.822 718.697 433.295 718.114 433.648C717.534 433.996 716.852 434.167 716.068 434.159ZM716.068 432.909C716.545 432.909 716.973 432.79 717.352 432.551C717.735 432.312 718.036 431.992 718.256 431.591C718.479 431.189 718.591 430.742 718.591 430.25C718.591 429.769 718.483 429.331 718.267 428.938C718.055 428.54 717.761 428.223 717.386 427.989C717.015 427.754 716.591 427.636 716.114 427.636C715.754 427.636 715.419 427.708 715.108 427.852C714.797 427.992 714.525 428.186 714.29 428.432C714.059 428.678 713.877 428.96 713.744 429.278C713.612 429.593 713.545 429.924 713.545 430.273C713.545 430.735 713.653 431.167 713.869 431.568C714.089 431.97 714.388 432.294 714.767 432.54C715.15 432.786 715.583 432.909 716.068 432.909ZM722.312 437.273V425.273H723.607V426.659H723.766C723.865 426.508 724.001 426.314 724.175 426.08C724.353 425.841 724.607 425.629 724.937 425.443C725.27 425.254 725.721 425.159 726.289 425.159C727.024 425.159 727.671 425.343 728.232 425.71C728.793 426.078 729.23 426.598 729.545 427.273C729.859 427.947 730.016 428.742 730.016 429.659C730.016 430.583 729.859 431.384 729.545 432.062C729.23 432.737 728.795 433.259 728.238 433.631C727.681 433.998 727.039 434.182 726.312 434.182C725.751 434.182 725.302 434.089 724.965 433.903C724.628 433.714 724.368 433.5 724.187 433.261C724.005 433.019 723.865 432.818 723.766 432.659H723.653V437.273H722.312ZM723.63 429.636C723.63 430.295 723.726 430.877 723.92 431.381C724.113 431.881 724.395 432.273 724.766 432.557C725.137 432.837 725.592 432.977 726.13 432.977C726.69 432.977 727.158 432.83 727.533 432.534C727.912 432.235 728.196 431.833 728.386 431.33C728.579 430.822 728.675 430.258 728.675 429.636C728.675 429.023 728.581 428.47 728.391 427.977C728.206 427.481 727.923 427.089 727.545 426.801C727.17 426.509 726.698 426.364 726.13 426.364C725.584 426.364 725.126 426.502 724.755 426.778C724.384 427.051 724.103 427.434 723.914 427.926C723.725 428.415 723.63 428.985 723.63 429.636ZM732.802 425.273L734.893 428.841L736.984 425.273H738.53L735.711 429.636L738.53 434H736.984L734.893 430.614L732.802 434H731.257L734.03 429.636L731.257 425.273H732.802ZM742.543 432.409L742.452 433.023C742.388 433.455 742.289 433.917 742.157 434.409C742.028 434.902 741.893 435.366 741.753 435.801C741.613 436.237 741.497 436.583 741.407 436.841H740.384C740.433 436.598 740.497 436.278 740.577 435.881C740.657 435.483 740.736 435.038 740.816 434.545C740.899 434.057 740.967 433.557 741.02 433.045L741.088 432.409H742.543ZM716.568 458L718.477 446.364H719.614L717.705 458H716.568ZM711.273 454.773L711.455 453.636H720.136L719.955 454.773H711.273ZM712.477 458L714.386 446.364H715.523L713.614 458H712.477ZM711.955 450.727L712.136 449.591H720.818L720.636 450.727H711.955ZM723.08 458H721.603L725.876 446.364H727.33L731.603 458H730.126L726.648 448.205H726.557L723.08 458ZM723.626 453.455H729.58V454.705H723.626V453.455ZM733.515 458V446.364H737.584C738.394 446.364 739.063 446.504 739.589 446.784C740.116 447.061 740.508 447.434 740.765 447.903C741.023 448.369 741.152 448.886 741.152 449.455C741.152 449.955 741.063 450.367 740.885 450.693C740.71 451.019 740.479 451.277 740.191 451.466C739.907 451.655 739.599 451.795 739.265 451.886V452C739.621 452.023 739.979 452.148 740.339 452.375C740.699 452.602 741 452.928 741.243 453.352C741.485 453.777 741.606 454.295 741.606 454.909C741.606 455.492 741.474 456.017 741.209 456.483C740.943 456.949 740.525 457.318 739.953 457.591C739.381 457.864 738.637 458 737.72 458H733.515ZM734.924 456.75H737.72C738.64 456.75 739.294 456.572 739.68 456.216C740.07 455.856 740.265 455.42 740.265 454.909C740.265 454.515 740.165 454.152 739.964 453.818C739.763 453.481 739.477 453.212 739.106 453.011C738.735 452.807 738.296 452.705 737.788 452.705H734.924V456.75ZM734.924 451.477H737.538C737.962 451.477 738.345 451.394 738.686 451.227C739.03 451.061 739.303 450.826 739.504 450.523C739.709 450.22 739.811 449.864 739.811 449.455C739.811 448.943 739.633 448.509 739.277 448.153C738.921 447.794 738.356 447.614 737.584 447.614H734.924V451.477ZM744.022 458V446.364H748.09C748.9 446.364 749.569 446.504 750.095 446.784C750.622 447.061 751.014 447.434 751.272 447.903C751.529 448.369 751.658 448.886 751.658 449.455C751.658 449.955 751.569 450.367 751.391 450.693C751.217 451.019 750.986 451.277 750.698 451.466C750.414 451.655 750.105 451.795 749.772 451.886V452C750.128 452.023 750.486 452.148 750.845 452.375C751.205 452.602 751.506 452.928 751.749 453.352C751.991 453.777 752.112 454.295 752.112 454.909C752.112 455.492 751.98 456.017 751.715 456.483C751.45 456.949 751.031 457.318 750.459 457.591C749.887 457.864 749.143 458 748.226 458H744.022ZM745.431 456.75H748.226C749.147 456.75 749.8 456.572 750.186 456.216C750.577 455.856 750.772 455.42 750.772 454.909C750.772 454.515 750.671 454.152 750.47 453.818C750.27 453.481 749.984 453.212 749.612 453.011C749.241 452.807 748.802 452.705 748.294 452.705H745.431V456.75ZM745.431 451.477H748.044C748.469 451.477 748.851 451.394 749.192 451.227C749.537 451.061 749.809 450.826 750.01 450.523C750.215 450.22 750.317 449.864 750.317 449.455C750.317 448.943 750.139 448.509 749.783 448.153C749.427 447.794 748.862 447.614 748.09 447.614H745.431V451.477ZM754.528 458V446.364H761.551V447.614H755.937V451.545H761.187V452.795H755.937V456.75H761.641V458H754.528ZM767.781 458H764.19V446.364H767.94C769.069 446.364 770.035 446.597 770.838 447.062C771.641 447.525 772.257 448.189 772.685 449.057C773.113 449.92 773.327 450.955 773.327 452.159C773.327 453.371 773.111 454.415 772.679 455.29C772.247 456.161 771.618 456.831 770.793 457.301C769.967 457.767 768.963 458 767.781 458ZM765.599 456.75H767.69C768.652 456.75 769.45 456.564 770.082 456.193C770.715 455.822 771.187 455.294 771.497 454.608C771.808 453.922 771.963 453.106 771.963 452.159C771.963 451.22 771.81 450.411 771.503 449.733C771.196 449.051 770.738 448.528 770.128 448.165C769.518 447.797 768.759 447.614 767.849 447.614H765.599V456.75ZM779.677 446.364V458H778.268V447.841H778.199L775.359 449.727V448.295L778.268 446.364H779.677ZM788.223 452.182C788.223 450.75 788.409 449.434 788.78 448.233C789.155 447.028 789.689 445.92 790.382 444.909H791.564C791.291 445.284 791.036 445.746 790.797 446.295C790.562 446.841 790.356 447.441 790.178 448.097C790 448.748 789.86 449.422 789.757 450.119C789.659 450.816 789.61 451.504 789.61 452.182C789.61 453.083 789.697 453.998 789.871 454.926C790.045 455.854 790.28 456.716 790.576 457.511C790.871 458.307 791.201 458.955 791.564 459.455H790.382C789.689 458.443 789.155 457.337 788.78 456.136C788.409 454.932 788.223 453.614 788.223 452.182ZM797.552 458.159C796.802 458.159 796.133 458.03 795.546 457.773C794.963 457.515 794.499 457.157 794.154 456.699C793.813 456.237 793.628 455.701 793.597 455.091H795.029C795.06 455.466 795.188 455.79 795.416 456.062C795.643 456.331 795.94 456.54 796.308 456.688C796.675 456.835 797.082 456.909 797.529 456.909C798.029 456.909 798.472 456.822 798.859 456.648C799.245 456.473 799.548 456.231 799.768 455.92C799.988 455.61 800.097 455.25 800.097 454.841C800.097 454.413 799.991 454.036 799.779 453.71C799.567 453.381 799.257 453.123 798.847 452.938C798.438 452.752 797.938 452.659 797.347 452.659H796.416V451.409H797.347C797.81 451.409 798.215 451.326 798.563 451.159C798.916 450.992 799.19 450.758 799.387 450.455C799.588 450.152 799.688 449.795 799.688 449.386C799.688 448.992 799.601 448.65 799.427 448.358C799.253 448.066 799.007 447.839 798.688 447.676C798.374 447.513 798.003 447.432 797.575 447.432C797.173 447.432 796.794 447.506 796.438 447.653C796.086 447.797 795.798 448.008 795.575 448.284C795.351 448.557 795.23 448.886 795.211 449.273H793.847C793.87 448.663 794.054 448.129 794.399 447.67C794.743 447.208 795.194 446.848 795.751 446.591C796.311 446.333 796.927 446.205 797.597 446.205C798.317 446.205 798.935 446.35 799.45 446.642C799.965 446.93 800.361 447.311 800.637 447.784C800.914 448.258 801.052 448.769 801.052 449.318C801.052 449.973 800.88 450.532 800.535 450.994C800.194 451.456 799.73 451.777 799.143 451.955V452.045C799.878 452.167 800.452 452.479 800.864 452.983C801.277 453.483 801.484 454.102 801.484 454.841C801.484 455.473 801.311 456.042 800.967 456.545C800.626 457.045 800.16 457.439 799.569 457.727C798.978 458.015 798.306 458.159 797.552 458.159ZM807.703 458.159C806.847 458.159 806.118 457.926 805.516 457.46C804.913 456.991 804.453 456.311 804.135 455.42C803.817 454.527 803.658 453.447 803.658 452.182C803.658 450.924 803.817 449.85 804.135 448.96C804.457 448.066 804.919 447.384 805.521 446.915C806.127 446.441 806.855 446.205 807.703 446.205C808.552 446.205 809.277 446.441 809.879 446.915C810.485 447.384 810.947 448.066 811.266 448.96C811.588 449.85 811.749 450.924 811.749 452.182C811.749 453.447 811.589 454.527 811.271 455.42C810.953 456.311 810.493 456.991 809.891 457.46C809.288 457.926 808.559 458.159 807.703 458.159ZM807.703 456.909C808.552 456.909 809.211 456.5 809.68 455.682C810.15 454.864 810.385 453.697 810.385 452.182C810.385 451.174 810.277 450.316 810.061 449.608C809.849 448.9 809.542 448.36 809.141 447.989C808.743 447.617 808.264 447.432 807.703 447.432C806.862 447.432 806.205 447.847 805.732 448.676C805.258 449.502 805.021 450.67 805.021 452.182C805.021 453.189 805.127 454.045 805.339 454.75C805.552 455.455 805.857 455.991 806.254 456.358C806.656 456.725 807.139 456.909 807.703 456.909ZM819.939 455.818V455.205C819.939 454.78 820.027 454.392 820.201 454.04C820.379 453.684 820.636 453.4 820.974 453.188C821.314 452.972 821.727 452.864 822.212 452.864C822.705 452.864 823.118 452.972 823.451 453.188C823.784 453.4 824.036 453.684 824.207 454.04C824.377 454.392 824.462 454.78 824.462 455.205V455.818C824.462 456.242 824.375 456.633 824.201 456.989C824.03 457.341 823.777 457.625 823.439 457.841C823.106 458.053 822.697 458.159 822.212 458.159C821.72 458.159 821.305 458.053 820.968 457.841C820.631 457.625 820.375 457.341 820.201 456.989C820.027 456.633 819.939 456.242 819.939 455.818ZM821.099 455.205V455.818C821.099 456.17 821.182 456.487 821.349 456.767C821.515 457.044 821.803 457.182 822.212 457.182C822.61 457.182 822.89 457.044 823.053 456.767C823.22 456.487 823.303 456.17 823.303 455.818V455.205C823.303 454.852 823.224 454.538 823.064 454.261C822.905 453.981 822.621 453.841 822.212 453.841C821.814 453.841 821.529 453.981 821.354 454.261C821.184 454.538 821.099 454.852 821.099 455.205ZM814.144 449.159V448.545C814.144 448.121 814.231 447.733 814.405 447.381C814.583 447.025 814.841 446.741 815.178 446.528C815.519 446.312 815.932 446.205 816.417 446.205C816.909 446.205 817.322 446.312 817.655 446.528C817.989 446.741 818.241 447.025 818.411 447.381C818.582 447.733 818.667 448.121 818.667 448.545V449.159C818.667 449.583 818.58 449.973 818.405 450.33C818.235 450.682 817.981 450.966 817.644 451.182C817.311 451.394 816.902 451.5 816.417 451.5C815.924 451.5 815.51 451.394 815.172 451.182C814.835 450.966 814.58 450.682 814.405 450.33C814.231 449.973 814.144 449.583 814.144 449.159ZM815.303 448.545V449.159C815.303 449.511 815.386 449.828 815.553 450.108C815.72 450.384 816.008 450.523 816.417 450.523C816.814 450.523 817.095 450.384 817.258 450.108C817.424 449.828 817.508 449.511 817.508 449.159V448.545C817.508 448.193 817.428 447.879 817.269 447.602C817.11 447.322 816.826 447.182 816.417 447.182C816.019 447.182 815.733 447.322 815.559 447.602C815.388 447.879 815.303 448.193 815.303 448.545ZM814.576 458L822.576 446.364H823.871L815.871 458H814.576ZM829.994 452.182C829.994 453.614 829.807 454.932 829.432 456.136C829.06 457.337 828.528 458.443 827.835 459.455H826.653C826.926 459.08 827.18 458.617 827.414 458.068C827.653 457.523 827.861 456.924 828.039 456.273C828.218 455.617 828.356 454.941 828.454 454.244C828.557 453.544 828.608 452.856 828.608 452.182C828.608 451.28 828.521 450.366 828.346 449.438C828.172 448.509 827.937 447.648 827.642 446.852C827.346 446.057 827.017 445.409 826.653 444.909H827.835C828.528 445.92 829.06 447.028 829.432 448.233C829.807 449.434 829.994 450.75 829.994 452.182Z" fill="#89939E"/>
<g filter="url(#filter3_d_2_1082)">
<rect x="935" y="208" width="200" height="200" rx="10" fill="white"/>
</g>
<path d="M939.932 434.159C939.152 434.159 938.462 434.021 937.864 433.744C937.269 433.464 936.805 433.08 936.472 432.591C936.138 432.098 935.973 431.538 935.977 430.909C935.973 430.417 936.07 429.962 936.267 429.545C936.464 429.125 936.733 428.775 937.074 428.494C937.419 428.21 937.803 428.03 938.227 427.955V427.886C937.67 427.742 937.227 427.43 936.898 426.949C936.568 426.464 936.405 425.913 936.409 425.295C936.405 424.705 936.555 424.176 936.858 423.71C937.161 423.244 937.578 422.877 938.108 422.608C938.642 422.339 939.25 422.205 939.932 422.205C940.606 422.205 941.208 422.339 941.739 422.608C942.269 422.877 942.686 423.244 942.989 423.71C943.295 424.176 943.451 424.705 943.455 425.295C943.451 425.913 943.282 426.464 942.949 426.949C942.619 427.43 942.182 427.742 941.636 427.886V427.955C942.057 428.03 942.436 428.21 942.773 428.494C943.11 428.775 943.379 429.125 943.58 429.545C943.78 429.962 943.883 430.417 943.886 430.909C943.883 431.538 943.712 432.098 943.375 432.591C943.042 433.08 942.578 433.464 941.983 433.744C941.392 434.021 940.708 434.159 939.932 434.159ZM939.932 432.909C940.458 432.909 940.913 432.824 941.295 432.653C941.678 432.483 941.973 432.242 942.182 431.932C942.39 431.621 942.496 431.258 942.5 430.841C942.496 430.402 942.383 430.013 942.159 429.676C941.936 429.339 941.631 429.074 941.244 428.881C940.862 428.687 940.424 428.591 939.932 428.591C939.436 428.591 938.992 428.687 938.602 428.881C938.216 429.074 937.911 429.339 937.688 429.676C937.468 430.013 937.36 430.402 937.364 430.841C937.36 431.258 937.46 431.621 937.665 431.932C937.873 432.242 938.17 432.483 938.557 432.653C938.943 432.824 939.402 432.909 939.932 432.909ZM939.932 427.386C940.348 427.386 940.718 427.303 941.04 427.136C941.366 426.97 941.621 426.737 941.807 426.438C941.992 426.138 942.087 425.788 942.091 425.386C942.087 424.992 941.994 424.65 941.812 424.358C941.631 424.062 941.379 423.835 941.057 423.676C940.735 423.513 940.36 423.432 939.932 423.432C939.496 423.432 939.116 423.513 938.79 423.676C938.464 423.835 938.212 424.062 938.034 424.358C937.856 424.65 937.769 424.992 937.773 425.386C937.769 425.788 937.858 426.138 938.04 426.438C938.225 426.737 938.481 426.97 938.807 427.136C939.133 427.303 939.508 427.386 939.932 427.386ZM946.187 437.273V425.273H947.482V426.659H947.641C947.74 426.508 947.876 426.314 948.05 426.08C948.228 425.841 948.482 425.629 948.812 425.443C949.145 425.254 949.596 425.159 950.164 425.159C950.899 425.159 951.546 425.343 952.107 425.71C952.668 426.078 953.105 426.598 953.42 427.273C953.734 427.947 953.891 428.742 953.891 429.659C953.891 430.583 953.734 431.384 953.42 432.062C953.105 432.737 952.67 433.259 952.113 433.631C951.556 433.998 950.914 434.182 950.187 434.182C949.626 434.182 949.177 434.089 948.84 433.903C948.503 433.714 948.243 433.5 948.062 433.261C947.88 433.019 947.74 432.818 947.641 432.659H947.528V437.273H946.187ZM947.505 429.636C947.505 430.295 947.601 430.877 947.795 431.381C947.988 431.881 948.27 432.273 948.641 432.557C949.012 432.837 949.467 432.977 950.005 432.977C950.565 432.977 951.033 432.83 951.408 432.534C951.787 432.235 952.071 431.833 952.261 431.33C952.454 430.822 952.55 430.258 952.55 429.636C952.55 429.023 952.456 428.47 952.266 427.977C952.081 427.481 951.798 427.089 951.42 426.801C951.045 426.509 950.573 426.364 950.005 426.364C949.459 426.364 949.001 426.502 948.63 426.778C948.259 427.051 947.978 427.434 947.789 427.926C947.6 428.415 947.505 428.985 947.505 429.636ZM956.677 425.273L958.768 428.841L960.859 425.273H962.405L959.586 429.636L962.405 434H960.859L958.768 430.614L956.677 434H955.132L957.905 429.636L955.132 425.273H956.677ZM966.418 432.409L966.327 433.023C966.263 433.455 966.164 433.917 966.032 434.409C965.903 434.902 965.768 435.366 965.628 435.801C965.488 436.237 965.372 436.583 965.282 436.841H964.259C964.308 436.598 964.372 436.278 964.452 435.881C964.532 435.483 964.611 435.038 964.691 434.545C964.774 434.057 964.842 433.557 964.895 433.045L964.963 432.409H966.418ZM940.568 458L942.477 446.364H943.614L941.705 458H940.568ZM935.273 454.773L935.455 453.636H944.136L943.955 454.773H935.273ZM936.477 458L938.386 446.364H939.523L937.614 458H936.477ZM935.955 450.727L936.136 449.591H944.818L944.636 450.727H935.955ZM947.08 458H945.603L949.876 446.364H951.33L955.603 458H954.126L950.648 448.205H950.557L947.08 458ZM947.626 453.455H953.58V454.705H947.626V453.455ZM957.515 458V446.364H961.584C962.394 446.364 963.063 446.504 963.589 446.784C964.116 447.061 964.508 447.434 964.765 447.903C965.023 448.369 965.152 448.886 965.152 449.455C965.152 449.955 965.063 450.367 964.885 450.693C964.71 451.019 964.479 451.277 964.191 451.466C963.907 451.655 963.599 451.795 963.265 451.886V452C963.621 452.023 963.979 452.148 964.339 452.375C964.699 452.602 965 452.928 965.243 453.352C965.485 453.777 965.606 454.295 965.606 454.909C965.606 455.492 965.474 456.017 965.209 456.483C964.943 456.949 964.525 457.318 963.953 457.591C963.381 457.864 962.637 458 961.72 458H957.515ZM958.924 456.75H961.72C962.64 456.75 963.294 456.572 963.68 456.216C964.07 455.856 964.265 455.42 964.265 454.909C964.265 454.515 964.165 454.152 963.964 453.818C963.763 453.481 963.477 453.212 963.106 453.011C962.735 452.807 962.296 452.705 961.788 452.705H958.924V456.75ZM958.924 451.477H961.538C961.962 451.477 962.345 451.394 962.686 451.227C963.03 451.061 963.303 450.826 963.504 450.523C963.709 450.22 963.811 449.864 963.811 449.455C963.811 448.943 963.633 448.509 963.277 448.153C962.921 447.794 962.356 447.614 961.584 447.614H958.924V451.477ZM968.022 458V446.364H972.09C972.9 446.364 973.569 446.504 974.095 446.784C974.622 447.061 975.014 447.434 975.272 447.903C975.529 448.369 975.658 448.886 975.658 449.455C975.658 449.955 975.569 450.367 975.391 450.693C975.217 451.019 974.986 451.277 974.698 451.466C974.414 451.655 974.105 451.795 973.772 451.886V452C974.128 452.023 974.486 452.148 974.845 452.375C975.205 452.602 975.506 452.928 975.749 453.352C975.991 453.777 976.112 454.295 976.112 454.909C976.112 455.492 975.98 456.017 975.715 456.483C975.45 456.949 975.031 457.318 974.459 457.591C973.887 457.864 973.143 458 972.226 458H968.022ZM969.431 456.75H972.226C973.147 456.75 973.8 456.572 974.186 456.216C974.577 455.856 974.772 455.42 974.772 454.909C974.772 454.515 974.671 454.152 974.47 453.818C974.27 453.481 973.984 453.212 973.612 453.011C973.241 452.807 972.802 452.705 972.294 452.705H969.431V456.75ZM969.431 451.477H972.044C972.469 451.477 972.851 451.394 973.192 451.227C973.537 451.061 973.809 450.826 974.01 450.523C974.215 450.22 974.317 449.864 974.317 449.455C974.317 448.943 974.139 448.509 973.783 448.153C973.427 447.794 972.862 447.614 972.09 447.614H969.431V451.477ZM978.528 458V446.364H985.551V447.614H979.937V451.545H985.187V452.795H979.937V456.75H985.641V458H978.528ZM991.781 458H988.19V446.364H991.94C993.069 446.364 994.035 446.597 994.838 447.062C995.641 447.525 996.257 448.189 996.685 449.057C997.113 449.92 997.327 450.955 997.327 452.159C997.327 453.371 997.111 454.415 996.679 455.29C996.247 456.161 995.618 456.831 994.793 457.301C993.967 457.767 992.963 458 991.781 458ZM989.599 456.75H991.69C992.652 456.75 993.45 456.564 994.082 456.193C994.715 455.822 995.187 455.294 995.497 454.608C995.808 453.922 995.963 453.106 995.963 452.159C995.963 451.22 995.81 450.411 995.503 449.733C995.196 449.051 994.738 448.528 994.128 448.165C993.518 447.797 992.759 447.614 991.849 447.614H989.599V456.75ZM1003.68 446.364V458H1002.27V447.841H1002.2L999.359 449.727V448.295L1002.27 446.364H1003.68ZM1012.22 452.182C1012.22 450.75 1012.41 449.434 1012.78 448.233C1013.16 447.028 1013.69 445.92 1014.38 444.909H1015.56C1015.29 445.284 1015.04 445.746 1014.8 446.295C1014.56 446.841 1014.36 447.441 1014.18 448.097C1014 448.748 1013.86 449.422 1013.76 450.119C1013.66 450.816 1013.61 451.504 1013.61 452.182C1013.61 453.083 1013.7 453.998 1013.87 454.926C1014.05 455.854 1014.28 456.716 1014.58 457.511C1014.87 458.307 1015.2 458.955 1015.56 459.455H1014.38C1013.69 458.443 1013.16 457.337 1012.78 456.136C1012.41 454.932 1012.22 453.614 1012.22 452.182ZM1017.35 455.614V454.455L1022.46 446.364H1023.3V448.159H1022.73L1018.87 454.273V454.364H1025.76V455.614H1017.35ZM1022.82 458V455.261V454.722V446.364H1024.17V458H1022.82ZM1031.78 458.159C1030.93 458.159 1030.2 457.926 1029.59 457.46C1028.99 456.991 1028.53 456.311 1028.21 455.42C1027.89 454.527 1027.74 453.447 1027.74 452.182C1027.74 450.924 1027.89 449.85 1028.21 448.96C1028.54 448.066 1029 447.384 1029.6 446.915C1030.21 446.441 1030.93 446.205 1031.78 446.205C1032.63 446.205 1033.36 446.441 1033.96 446.915C1034.56 447.384 1035.03 448.066 1035.34 448.96C1035.67 449.85 1035.83 450.924 1035.83 452.182C1035.83 453.447 1035.67 454.527 1035.35 455.42C1035.03 456.311 1034.57 456.991 1033.97 457.46C1033.37 457.926 1032.64 458.159 1031.78 458.159ZM1031.78 456.909C1032.63 456.909 1033.29 456.5 1033.76 455.682C1034.23 454.864 1034.46 453.697 1034.46 452.182C1034.46 451.174 1034.36 450.316 1034.14 449.608C1033.93 448.9 1033.62 448.36 1033.22 447.989C1032.82 447.617 1032.34 447.432 1031.78 447.432C1030.94 447.432 1030.28 447.847 1029.81 448.676C1029.34 449.502 1029.1 450.67 1029.1 452.182C1029.1 453.189 1029.21 454.045 1029.42 454.75C1029.63 455.455 1029.93 455.991 1030.33 456.358C1030.73 456.725 1031.22 456.909 1031.78 456.909ZM1044.02 455.818V455.205C1044.02 454.78 1044.1 454.392 1044.28 454.04C1044.46 453.684 1044.71 453.4 1045.05 453.188C1045.39 452.972 1045.81 452.864 1046.29 452.864C1046.78 452.864 1047.2 452.972 1047.53 453.188C1047.86 453.4 1048.11 453.684 1048.28 454.04C1048.46 454.392 1048.54 454.78 1048.54 455.205V455.818C1048.54 456.242 1048.45 456.633 1048.28 456.989C1048.11 457.341 1047.85 457.625 1047.52 457.841C1047.18 458.053 1046.78 458.159 1046.29 458.159C1045.8 458.159 1045.38 458.053 1045.05 457.841C1044.71 457.625 1044.45 457.341 1044.28 456.989C1044.1 456.633 1044.02 456.242 1044.02 455.818ZM1045.18 455.205V455.818C1045.18 456.17 1045.26 456.487 1045.43 456.767C1045.59 457.044 1045.88 457.182 1046.29 457.182C1046.69 457.182 1046.97 457.044 1047.13 456.767C1047.3 456.487 1047.38 456.17 1047.38 455.818V455.205C1047.38 454.852 1047.3 454.538 1047.14 454.261C1046.98 453.981 1046.7 453.841 1046.29 453.841C1045.89 453.841 1045.61 453.981 1045.43 454.261C1045.26 454.538 1045.18 454.852 1045.18 455.205ZM1038.22 449.159V448.545C1038.22 448.121 1038.31 447.733 1038.48 447.381C1038.66 447.025 1038.92 446.741 1039.26 446.528C1039.6 446.312 1040.01 446.205 1040.49 446.205C1040.99 446.205 1041.4 446.312 1041.73 446.528C1042.07 446.741 1042.32 447.025 1042.49 447.381C1042.66 447.733 1042.74 448.121 1042.74 448.545V449.159C1042.74 449.583 1042.66 449.973 1042.48 450.33C1042.31 450.682 1042.06 450.966 1041.72 451.182C1041.39 451.394 1040.98 451.5 1040.49 451.5C1040 451.5 1039.59 451.394 1039.25 451.182C1038.91 450.966 1038.66 450.682 1038.48 450.33C1038.31 449.973 1038.22 449.583 1038.22 449.159ZM1039.38 448.545V449.159C1039.38 449.511 1039.46 449.828 1039.63 450.108C1039.8 450.384 1040.09 450.523 1040.49 450.523C1040.89 450.523 1041.17 450.384 1041.34 450.108C1041.5 449.828 1041.59 449.511 1041.59 449.159V448.545C1041.59 448.193 1041.51 447.879 1041.35 447.602C1041.19 447.322 1040.9 447.182 1040.49 447.182C1040.1 447.182 1039.81 447.322 1039.64 447.602C1039.47 447.879 1039.38 448.193 1039.38 448.545ZM1038.65 458L1046.65 446.364H1047.95L1039.95 458H1038.65ZM1054.07 452.182C1054.07 453.614 1053.88 454.932 1053.51 456.136C1053.14 457.337 1052.61 458.443 1051.91 459.455H1050.73C1051 459.08 1051.26 458.617 1051.49 458.068C1051.73 457.523 1051.94 456.924 1052.12 456.273C1052.3 455.617 1052.43 454.941 1052.53 454.244C1052.63 453.544 1052.69 452.856 1052.69 452.182C1052.69 451.28 1052.6 450.366 1052.42 449.438C1052.25 448.509 1052.02 447.648 1051.72 446.852C1051.42 446.057 1051.09 445.409 1050.73 444.909H1051.91C1052.61 445.92 1053.14 447.028 1053.51 448.233C1053.88 449.434 1054.07 450.75 1054.07 452.182Z" fill="#89939E"/>
<g filter="url(#filter4_d_2_1082)">
<rect x="1159" y="208" width="200" height="200" rx="10" fill="white"/>
</g>
<path d="M1164.3 422.364V434H1162.89V423.841H1162.82L1159.98 425.727V424.295L1162.89 422.364H1164.3ZM1171.61 434.159C1171.13 434.152 1170.65 434.061 1170.17 433.886C1169.7 433.712 1169.26 433.419 1168.87 433.006C1168.47 432.589 1168.16 432.027 1167.92 431.318C1167.68 430.606 1167.56 429.712 1167.56 428.636C1167.56 427.606 1167.66 426.693 1167.85 425.898C1168.04 425.098 1168.32 424.426 1168.69 423.881C1169.06 423.331 1169.5 422.915 1170.02 422.631C1170.54 422.347 1171.13 422.205 1171.79 422.205C1172.44 422.205 1173.02 422.335 1173.53 422.597C1174.04 422.854 1174.45 423.214 1174.78 423.676C1175.1 424.138 1175.31 424.67 1175.4 425.273H1174.01C1173.89 424.75 1173.64 424.316 1173.26 423.972C1172.89 423.627 1172.4 423.455 1171.79 423.455C1170.89 423.455 1170.18 423.847 1169.66 424.631C1169.14 425.415 1168.88 426.515 1168.88 427.932H1168.97C1169.18 427.61 1169.43 427.335 1169.72 427.108C1170.02 426.877 1170.35 426.699 1170.7 426.574C1171.06 426.449 1171.44 426.386 1171.83 426.386C1172.5 426.386 1173.11 426.553 1173.66 426.886C1174.22 427.216 1174.66 427.672 1174.99 428.256C1175.33 428.835 1175.49 429.5 1175.49 430.25C1175.49 430.97 1175.33 431.629 1175.01 432.227C1174.69 432.822 1174.23 433.295 1173.65 433.648C1173.07 433.996 1172.39 434.167 1171.61 434.159ZM1171.61 432.909C1172.08 432.909 1172.51 432.79 1172.89 432.551C1173.27 432.312 1173.57 431.992 1173.79 431.591C1174.02 431.189 1174.13 430.742 1174.13 430.25C1174.13 429.769 1174.02 429.331 1173.8 428.938C1173.59 428.54 1173.3 428.223 1172.92 427.989C1172.55 427.754 1172.13 427.636 1171.65 427.636C1171.29 427.636 1170.96 427.708 1170.65 427.852C1170.33 427.992 1170.06 428.186 1169.83 428.432C1169.6 428.678 1169.41 428.96 1169.28 429.278C1169.15 429.593 1169.08 429.924 1169.08 430.273C1169.08 430.735 1169.19 431.167 1169.41 431.568C1169.63 431.97 1169.93 432.294 1170.3 432.54C1170.69 432.786 1171.12 432.909 1171.61 432.909ZM1177.85 437.273V425.273H1179.14V426.659H1179.3C1179.4 426.508 1179.54 426.314 1179.71 426.08C1179.89 425.841 1180.14 425.629 1180.47 425.443C1180.81 425.254 1181.26 425.159 1181.83 425.159C1182.56 425.159 1183.21 425.343 1183.77 425.71C1184.33 426.078 1184.77 426.598 1185.08 427.273C1185.4 427.947 1185.55 428.742 1185.55 429.659C1185.55 430.583 1185.4 431.384 1185.08 432.062C1184.77 432.737 1184.33 433.259 1183.78 433.631C1183.22 433.998 1182.58 434.182 1181.85 434.182C1181.29 434.182 1180.84 434.089 1180.5 433.903C1180.17 433.714 1179.91 433.5 1179.72 433.261C1179.54 433.019 1179.4 432.818 1179.3 432.659H1179.19V437.273H1177.85ZM1179.17 429.636C1179.17 430.295 1179.26 430.877 1179.46 431.381C1179.65 431.881 1179.93 432.273 1180.3 432.557C1180.67 432.837 1181.13 432.977 1181.67 432.977C1182.23 432.977 1182.7 432.83 1183.07 432.534C1183.45 432.235 1183.73 431.833 1183.92 431.33C1184.12 430.822 1184.21 430.258 1184.21 429.636C1184.21 429.023 1184.12 428.47 1183.93 427.977C1183.74 427.481 1183.46 427.089 1183.08 426.801C1182.71 426.509 1182.24 426.364 1181.67 426.364C1181.12 426.364 1180.66 426.502 1180.29 426.778C1179.92 427.051 1179.64 427.434 1179.45 427.926C1179.26 428.415 1179.17 428.985 1179.17 429.636ZM1188.34 425.273L1190.43 428.841L1192.52 425.273H1194.07L1191.25 429.636L1194.07 434H1192.52L1190.43 430.614L1188.34 434H1186.79L1189.57 429.636L1186.79 425.273H1188.34ZM1198.08 432.409L1197.99 433.023C1197.93 433.455 1197.83 433.917 1197.69 434.409C1197.57 434.902 1197.43 435.366 1197.29 435.801C1197.15 436.237 1197.03 436.583 1196.94 436.841H1195.92C1195.97 436.598 1196.03 436.278 1196.11 435.881C1196.19 435.483 1196.27 435.038 1196.35 434.545C1196.44 434.057 1196.5 433.557 1196.56 433.045L1196.63 432.409H1198.08ZM1164.57 458L1166.48 446.364H1167.61L1165.7 458H1164.57ZM1159.27 454.773L1159.45 453.636H1168.14L1167.95 454.773H1159.27ZM1160.48 458L1162.39 446.364H1163.52L1161.61 458H1160.48ZM1159.95 450.727L1160.14 449.591H1168.82L1168.64 450.727H1159.95ZM1171.08 458H1169.6L1173.88 446.364H1175.33L1179.6 458H1178.13L1174.65 448.205H1174.56L1171.08 458ZM1171.63 453.455H1177.58V454.705H1171.63V453.455ZM1181.52 458V446.364H1185.58C1186.39 446.364 1187.06 446.504 1187.59 446.784C1188.12 447.061 1188.51 447.434 1188.77 447.903C1189.02 448.369 1189.15 448.886 1189.15 449.455C1189.15 449.955 1189.06 450.367 1188.88 450.693C1188.71 451.019 1188.48 451.277 1188.19 451.466C1187.91 451.655 1187.6 451.795 1187.27 451.886V452C1187.62 452.023 1187.98 452.148 1188.34 452.375C1188.7 452.602 1189 452.928 1189.24 453.352C1189.49 453.777 1189.61 454.295 1189.61 454.909C1189.61 455.492 1189.47 456.017 1189.21 456.483C1188.94 456.949 1188.52 457.318 1187.95 457.591C1187.38 457.864 1186.64 458 1185.72 458H1181.52ZM1182.92 456.75H1185.72C1186.64 456.75 1187.29 456.572 1187.68 456.216C1188.07 455.856 1188.27 455.42 1188.27 454.909C1188.27 454.515 1188.16 454.152 1187.96 453.818C1187.76 453.481 1187.48 453.212 1187.11 453.011C1186.74 452.807 1186.3 452.705 1185.79 452.705H1182.92V456.75ZM1182.92 451.477H1185.54C1185.96 451.477 1186.34 451.394 1186.69 451.227C1187.03 451.061 1187.3 450.826 1187.5 450.523C1187.71 450.22 1187.81 449.864 1187.81 449.455C1187.81 448.943 1187.63 448.509 1187.28 448.153C1186.92 447.794 1186.36 447.614 1185.58 447.614H1182.92V451.477ZM1192.02 458V446.364H1196.09C1196.9 446.364 1197.57 446.504 1198.1 446.784C1198.62 447.061 1199.01 447.434 1199.27 447.903C1199.53 448.369 1199.66 448.886 1199.66 449.455C1199.66 449.955 1199.57 450.367 1199.39 450.693C1199.22 451.019 1198.99 451.277 1198.7 451.466C1198.41 451.655 1198.1 451.795 1197.77 451.886V452C1198.13 452.023 1198.49 452.148 1198.85 452.375C1199.21 452.602 1199.51 452.928 1199.75 453.352C1199.99 453.777 1200.11 454.295 1200.11 454.909C1200.11 455.492 1199.98 456.017 1199.71 456.483C1199.45 456.949 1199.03 457.318 1198.46 457.591C1197.89 457.864 1197.14 458 1196.23 458H1192.02ZM1193.43 456.75H1196.23C1197.15 456.75 1197.8 456.572 1198.19 456.216C1198.58 455.856 1198.77 455.42 1198.77 454.909C1198.77 454.515 1198.67 454.152 1198.47 453.818C1198.27 453.481 1197.98 453.212 1197.61 453.011C1197.24 452.807 1196.8 452.705 1196.29 452.705H1193.43V456.75ZM1193.43 451.477H1196.04C1196.47 451.477 1196.85 451.394 1197.19 451.227C1197.54 451.061 1197.81 450.826 1198.01 450.523C1198.21 450.22 1198.32 449.864 1198.32 449.455C1198.32 448.943 1198.14 448.509 1197.78 448.153C1197.43 447.794 1196.86 447.614 1196.09 447.614H1193.43V451.477ZM1202.53 458V446.364H1209.55V447.614H1203.94V451.545H1209.19V452.795H1203.94V456.75H1209.64V458H1202.53ZM1215.78 458H1212.19V446.364H1215.94C1217.07 446.364 1218.04 446.597 1218.84 447.062C1219.64 447.525 1220.26 448.189 1220.68 449.057C1221.11 449.92 1221.33 450.955 1221.33 452.159C1221.33 453.371 1221.11 454.415 1220.68 455.29C1220.25 456.161 1219.62 456.831 1218.79 457.301C1217.97 457.767 1216.96 458 1215.78 458ZM1213.6 456.75H1215.69C1216.65 456.75 1217.45 456.564 1218.08 456.193C1218.71 455.822 1219.19 455.294 1219.5 454.608C1219.81 453.922 1219.96 453.106 1219.96 452.159C1219.96 451.22 1219.81 450.411 1219.5 449.733C1219.2 449.051 1218.74 448.528 1218.13 448.165C1217.52 447.797 1216.76 447.614 1215.85 447.614H1213.6V456.75ZM1227.68 446.364V458H1226.27V447.841H1226.2L1223.36 449.727V448.295L1226.27 446.364H1227.68ZM1236.22 452.182C1236.22 450.75 1236.41 449.434 1236.78 448.233C1237.16 447.028 1237.69 445.92 1238.38 444.909H1239.56C1239.29 445.284 1239.04 445.746 1238.8 446.295C1238.56 446.841 1238.36 447.441 1238.18 448.097C1238 448.748 1237.86 449.422 1237.76 450.119C1237.66 450.816 1237.61 451.504 1237.61 452.182C1237.61 453.083 1237.7 453.998 1237.87 454.926C1238.05 455.854 1238.28 456.716 1238.58 457.511C1238.87 458.307 1239.2 458.955 1239.56 459.455H1238.38C1237.69 458.443 1237.16 457.337 1236.78 456.136C1236.41 454.932 1236.22 453.614 1236.22 452.182ZM1245.55 458.159C1244.8 458.159 1244.13 458.03 1243.55 457.773C1242.96 457.515 1242.5 457.157 1242.15 456.699C1241.81 456.237 1241.63 455.701 1241.6 455.091H1243.03C1243.06 455.466 1243.19 455.79 1243.42 456.062C1243.64 456.331 1243.94 456.54 1244.31 456.688C1244.68 456.835 1245.08 456.909 1245.53 456.909C1246.03 456.909 1246.47 456.822 1246.86 456.648C1247.25 456.473 1247.55 456.231 1247.77 455.92C1247.99 455.61 1248.1 455.25 1248.1 454.841C1248.1 454.413 1247.99 454.036 1247.78 453.71C1247.57 453.381 1247.26 453.123 1246.85 452.938C1246.44 452.752 1245.94 452.659 1245.35 452.659H1244.42V451.409H1245.35C1245.81 451.409 1246.21 451.326 1246.56 451.159C1246.92 450.992 1247.19 450.758 1247.39 450.455C1247.59 450.152 1247.69 449.795 1247.69 449.386C1247.69 448.992 1247.6 448.65 1247.43 448.358C1247.25 448.066 1247.01 447.839 1246.69 447.676C1246.37 447.513 1246 447.432 1245.57 447.432C1245.17 447.432 1244.79 447.506 1244.44 447.653C1244.09 447.797 1243.8 448.008 1243.57 448.284C1243.35 448.557 1243.23 448.886 1243.21 449.273H1241.85C1241.87 448.663 1242.05 448.129 1242.4 447.67C1242.74 447.208 1243.19 446.848 1243.75 446.591C1244.31 446.333 1244.93 446.205 1245.6 446.205C1246.32 446.205 1246.93 446.35 1247.45 446.642C1247.96 446.93 1248.36 447.311 1248.64 447.784C1248.91 448.258 1249.05 448.769 1249.05 449.318C1249.05 449.973 1248.88 450.532 1248.53 450.994C1248.19 451.456 1247.73 451.777 1247.14 451.955V452.045C1247.88 452.167 1248.45 452.479 1248.86 452.983C1249.28 453.483 1249.48 454.102 1249.48 454.841C1249.48 455.473 1249.31 456.042 1248.97 456.545C1248.63 457.045 1248.16 457.439 1247.57 457.727C1246.98 458.015 1246.31 458.159 1245.55 458.159ZM1255.7 458.159C1254.85 458.159 1254.12 457.926 1253.52 457.46C1252.91 456.991 1252.45 456.311 1252.13 455.42C1251.82 454.527 1251.66 453.447 1251.66 452.182C1251.66 450.924 1251.82 449.85 1252.13 448.96C1252.46 448.066 1252.92 447.384 1253.52 446.915C1254.13 446.441 1254.85 446.205 1255.7 446.205C1256.55 446.205 1257.28 446.441 1257.88 446.915C1258.49 447.384 1258.95 448.066 1259.27 448.96C1259.59 449.85 1259.75 450.924 1259.75 452.182C1259.75 453.447 1259.59 454.527 1259.27 455.42C1258.95 456.311 1258.49 456.991 1257.89 457.46C1257.29 457.926 1256.56 458.159 1255.7 458.159ZM1255.7 456.909C1256.55 456.909 1257.21 456.5 1257.68 455.682C1258.15 454.864 1258.38 453.697 1258.38 452.182C1258.38 451.174 1258.28 450.316 1258.06 449.608C1257.85 448.9 1257.54 448.36 1257.14 447.989C1256.74 447.617 1256.26 447.432 1255.7 447.432C1254.86 447.432 1254.21 447.847 1253.73 448.676C1253.26 449.502 1253.02 450.67 1253.02 452.182C1253.02 453.189 1253.13 454.045 1253.34 454.75C1253.55 455.455 1253.86 455.991 1254.25 456.358C1254.66 456.725 1255.14 456.909 1255.7 456.909ZM1267.94 455.818V455.205C1267.94 454.78 1268.03 454.392 1268.2 454.04C1268.38 453.684 1268.64 453.4 1268.97 453.188C1269.31 452.972 1269.73 452.864 1270.21 452.864C1270.7 452.864 1271.12 452.972 1271.45 453.188C1271.78 453.4 1272.04 453.684 1272.21 454.04C1272.38 454.392 1272.46 454.78 1272.46 455.205V455.818C1272.46 456.242 1272.38 456.633 1272.2 456.989C1272.03 457.341 1271.78 457.625 1271.44 457.841C1271.11 458.053 1270.7 458.159 1270.21 458.159C1269.72 458.159 1269.31 458.053 1268.97 457.841C1268.63 457.625 1268.38 457.341 1268.2 456.989C1268.03 456.633 1267.94 456.242 1267.94 455.818ZM1269.1 455.205V455.818C1269.1 456.17 1269.18 456.487 1269.35 456.767C1269.52 457.044 1269.8 457.182 1270.21 457.182C1270.61 457.182 1270.89 457.044 1271.05 456.767C1271.22 456.487 1271.3 456.17 1271.3 455.818V455.205C1271.3 454.852 1271.22 454.538 1271.06 454.261C1270.91 453.981 1270.62 453.841 1270.21 453.841C1269.81 453.841 1269.53 453.981 1269.35 454.261C1269.18 454.538 1269.1 454.852 1269.1 455.205ZM1262.14 449.159V448.545C1262.14 448.121 1262.23 447.733 1262.41 447.381C1262.58 447.025 1262.84 446.741 1263.18 446.528C1263.52 446.312 1263.93 446.205 1264.42 446.205C1264.91 446.205 1265.32 446.312 1265.66 446.528C1265.99 446.741 1266.24 447.025 1266.41 447.381C1266.58 447.733 1266.67 448.121 1266.67 448.545V449.159C1266.67 449.583 1266.58 449.973 1266.41 450.33C1266.23 450.682 1265.98 450.966 1265.64 451.182C1265.31 451.394 1264.9 451.5 1264.42 451.5C1263.92 451.5 1263.51 451.394 1263.17 451.182C1262.84 450.966 1262.58 450.682 1262.41 450.33C1262.23 449.973 1262.14 449.583 1262.14 449.159ZM1263.3 448.545V449.159C1263.3 449.511 1263.39 449.828 1263.55 450.108C1263.72 450.384 1264.01 450.523 1264.42 450.523C1264.81 450.523 1265.09 450.384 1265.26 450.108C1265.42 449.828 1265.51 449.511 1265.51 449.159V448.545C1265.51 448.193 1265.43 447.879 1265.27 447.602C1265.11 447.322 1264.83 447.182 1264.42 447.182C1264.02 447.182 1263.73 447.322 1263.56 447.602C1263.39 447.879 1263.3 448.193 1263.3 448.545ZM1262.58 458L1270.58 446.364H1271.87L1263.87 458H1262.58ZM1277.99 452.182C1277.99 453.614 1277.81 454.932 1277.43 456.136C1277.06 457.337 1276.53 458.443 1275.83 459.455H1274.65C1274.93 459.08 1275.18 458.617 1275.41 458.068C1275.65 457.523 1275.86 456.924 1276.04 456.273C1276.22 455.617 1276.36 454.941 1276.45 454.244C1276.56 453.544 1276.61 452.856 1276.61 452.182C1276.61 451.28 1276.52 450.366 1276.35 449.438C1276.17 448.509 1275.94 447.648 1275.64 446.852C1275.35 446.057 1275.02 445.409 1274.65 444.909H1275.83C1276.53 445.92 1277.06 447.028 1277.43 448.233C1277.81 449.434 1277.99 450.75 1277.99 452.182Z" fill="#89939E"/>
<path d="M659.416 99V72.8182H677.058V77.3821H664.952V83.6207H676.151V88.1847H664.952V94.4361H677.109V99H659.416ZM691.917 79.3636V83.4545H679.797V79.3636H691.917ZM682.571 99V77.9446C682.571 76.5213 682.848 75.3409 683.402 74.4034C683.965 73.4659 684.732 72.7628 685.703 72.294C686.675 71.8253 687.779 71.5909 689.015 71.5909C689.85 71.5909 690.613 71.6548 691.303 71.7827C692.002 71.9105 692.522 72.0256 692.863 72.1278L691.891 76.2188C691.678 76.1506 691.414 76.0866 691.098 76.027C690.792 75.9673 690.476 75.9375 690.152 75.9375C689.351 75.9375 688.793 76.125 688.478 76.5C688.162 76.8665 688.005 77.3821 688.005 78.0469V99H682.571ZM705.803 79.3636V83.4545H693.684V79.3636H705.803ZM696.458 99V77.9446C696.458 76.5213 696.735 75.3409 697.289 74.4034C697.852 73.4659 698.619 72.7628 699.59 72.294C700.562 71.8253 701.665 71.5909 702.901 71.5909C703.737 71.5909 704.499 71.6548 705.19 71.7827C705.888 71.9105 706.408 72.0256 706.749 72.1278L705.778 76.2188C705.565 76.1506 705.3 76.0866 704.985 76.027C704.678 75.9673 704.363 75.9375 704.039 75.9375C703.238 75.9375 702.68 76.125 702.364 76.5C702.049 76.8665 701.891 77.3821 701.891 78.0469V99H696.458ZM717.376 99.3835C715.356 99.3835 713.618 98.9744 712.16 98.1562C710.711 97.3295 709.595 96.1619 708.811 94.6534C708.027 93.1364 707.635 91.3423 707.635 89.2713C707.635 87.2514 708.027 85.4787 708.811 83.9531C709.595 82.4276 710.699 81.2386 712.122 80.3864C713.554 79.5341 715.233 79.108 717.159 79.108C718.454 79.108 719.66 79.3168 720.777 79.7344C721.902 80.1435 722.882 80.7614 723.717 81.5881C724.561 82.4148 725.217 83.4545 725.686 84.7074C726.154 85.9517 726.389 87.4091 726.389 89.0795V90.5753H709.808V87.2003H721.262C721.262 86.4162 721.092 85.7216 720.751 85.1165C720.41 84.5114 719.937 84.0384 719.332 83.6974C718.735 83.348 718.041 83.1733 717.248 83.1733C716.422 83.1733 715.689 83.3651 715.049 83.7486C714.419 84.1236 713.924 84.6307 713.566 85.2699C713.208 85.9006 713.025 86.6037 713.017 87.3793V90.5881C713.017 91.5597 713.196 92.3991 713.554 93.1065C713.92 93.8139 714.436 94.3594 715.1 94.7429C715.765 95.1264 716.554 95.3182 717.466 95.3182C718.071 95.3182 718.625 95.233 719.127 95.0625C719.63 94.892 720.061 94.6364 720.419 94.2955C720.777 93.9545 721.049 93.5369 721.237 93.0426L726.274 93.375C726.018 94.5852 725.494 95.642 724.701 96.5455C723.917 97.4403 722.903 98.1392 721.659 98.642C720.423 99.1364 718.995 99.3835 717.376 99.3835ZM738.815 99.3835C736.804 99.3835 735.074 98.9574 733.625 98.1051C732.184 97.2443 731.076 96.0511 730.301 94.5256C729.534 93 729.15 91.2443 729.15 89.2585C729.15 87.2472 729.538 85.483 730.314 83.9659C731.098 82.4403 732.21 81.2514 733.65 80.3991C735.091 79.5384 736.804 79.108 738.789 79.108C740.502 79.108 742.002 79.419 743.289 80.0412C744.576 80.6634 745.595 81.5369 746.345 82.6619C747.095 83.7869 747.508 85.108 747.585 86.625H742.446C742.301 85.6449 741.917 84.8565 741.295 84.2599C740.681 83.6548 739.876 83.3523 738.879 83.3523C738.035 83.3523 737.298 83.5824 736.667 84.0426C736.045 84.4943 735.559 85.1548 735.21 86.0241C734.86 86.8935 734.686 87.946 734.686 89.1818C734.686 90.4347 734.856 91.5 735.197 92.3778C735.547 93.2557 736.037 93.9247 736.667 94.3849C737.298 94.8452 738.035 95.0753 738.879 95.0753C739.501 95.0753 740.059 94.9474 740.554 94.6918C741.056 94.4361 741.47 94.0653 741.794 93.5795C742.126 93.0852 742.343 92.4929 742.446 91.8026H747.585C747.5 93.3026 747.091 94.6236 746.358 95.7656C745.633 96.8991 744.632 97.7855 743.353 98.4247C742.075 99.0639 740.562 99.3835 738.815 99.3835ZM761.516 79.3636V83.4545H749.691V79.3636H761.516ZM752.376 74.6591H757.822V92.9659C757.822 93.4687 757.898 93.8608 758.052 94.142C758.205 94.4148 758.418 94.6065 758.691 94.7173C758.972 94.8281 759.296 94.8835 759.663 94.8835C759.918 94.8835 760.174 94.8622 760.43 94.8196C760.685 94.7685 760.881 94.7301 761.018 94.7045L761.874 98.7571C761.602 98.8423 761.218 98.9403 760.724 99.0511C760.229 99.1705 759.629 99.2429 758.921 99.2685C757.609 99.3196 756.458 99.1449 755.469 98.7443C754.489 98.3437 753.727 97.7216 753.181 96.8778C752.636 96.0341 752.367 94.9687 752.376 93.6818V74.6591ZM781.156 84.9631L776.17 85.2699C776.085 84.8437 775.902 84.4602 775.62 84.1193C775.339 83.7699 774.968 83.4929 774.508 83.2884C774.056 83.0753 773.515 82.9688 772.885 82.9688C772.041 82.9688 771.329 83.1477 770.75 83.5057C770.17 83.8551 769.88 84.3239 769.88 84.9119C769.88 85.3807 770.068 85.777 770.443 86.1009C770.818 86.4247 771.461 86.6847 772.373 86.8807L775.927 87.5966C777.836 87.9886 779.26 88.6193 780.197 89.4886C781.135 90.358 781.603 91.5 781.603 92.9148C781.603 94.2017 781.224 95.331 780.466 96.3026C779.716 97.2741 778.684 98.0327 777.372 98.5781C776.068 99.1151 774.564 99.3835 772.859 99.3835C770.26 99.3835 768.189 98.8423 766.646 97.7599C765.112 96.669 764.213 95.1861 763.949 93.3111L769.305 93.0298C769.467 93.8224 769.859 94.4276 770.481 94.8452C771.103 95.2543 771.9 95.4588 772.872 95.4588C773.826 95.4588 774.593 95.2756 775.173 94.9091C775.761 94.5341 776.059 94.0526 776.068 93.4645C776.059 92.9702 775.85 92.5653 775.441 92.25C775.032 91.9261 774.402 91.679 773.549 91.5085L770.149 90.831C768.231 90.4474 766.804 89.7827 765.866 88.8366C764.937 87.8906 764.473 86.6847 764.473 85.2188C764.473 83.9574 764.814 82.8707 765.495 81.9588C766.186 81.0469 767.153 80.3438 768.397 79.8494C769.65 79.3551 771.116 79.108 772.795 79.108C775.275 79.108 777.227 79.6321 778.65 80.6804C780.082 81.7287 780.917 83.1562 781.156 84.9631Z" fill="#263238"/>
<defs>
<filter id="filter0_d_2_1082" x="259" y="206" width="208" height="208" filterUnits="userSpaceOnUse" color-interpolation-filters="sRGB">
<feFlood flood-opacity="0" result="BackgroundImageFix"/>
<feColorMatrix in="SourceAlpha" type="matrix" values="0 0 0 0 0 0 0 0 0 0 0 0 0 0 0 0 0 0 127 0" result="hardAlpha"/>
<feOffset dy="2"/>
<feGaussianBlur stdDeviation="2"/>
<feComposite in2="hardAlpha" operator="out"/>
<feColorMatrix type="matrix" values="0 0 0 0 0.670588 0 0 0 0 0.745098 0 0 0 0 0.819608 0 0 0 0.6 0"/>
<feBlend mode="normal" in2="BackgroundImageFix" result="effect1_dropShadow_2_1082"/>
<feBlend mode="normal" in="SourceGraphic" in2="effect1_dropShadow_2_1082" result="shape"/>
</filter>
<filter id="filter1_d_2_1082" x="479" y="204" width="216" height="216" filterUnits="userSpaceOnUse" color-interpolation-filters="sRGB">
<feFlood flood-opacity="0" result="BackgroundImageFix"/>
<feColorMatrix in="SourceAlpha" type="matrix" values="0 0 0 0 0 0 0 0 0 0 0 0 0 0 0 0 0 0 127 0" result="hardAlpha"/>
<feOffset dy="4"/>
<feGaussianBlur stdDeviation="4"/>
<feComposite in2="hardAlpha" operator="out"/>
<feColorMatrix type="matrix" values="0 0 0 0 0.670588 0 0 0 0 0.745098 0 0 0 0 0.819608 0 0 0 0.4 0"/>
<feBlend mode="normal" in2="BackgroundImageFix" result="effect1_dropShadow_2_1082"/>
<feBlend mode="normal" in="SourceGraphic" in2="effect1_dropShadow_2_1082" result="shape"/>
</filter>
<filter id="filter2_d_2_1082" x="699" y="202" width="224" height="224" filterUnits="userSpaceOnUse" color-interpolation-filters="sRGB">
<feFlood flood-opacity="0" result="BackgroundImageFix"/>
<feColorMatrix in="SourceAlpha" type="matrix" values="0 0 0 0 0 0 0 0 0 0 0 0 0 0 0 0 0 0 127 0" result="hardAlpha"/>
<feOffset dy="6"/>
<feGaussianBlur stdDeviation="6"/>
<feComposite in2="hardAlpha" operator="out"/>
<feColorMatrix type="matrix" values="0 0 0 0 0.670588 0 0 0 0 0.745098 0 0 0 0 0.819608 0 0 0 0.3 0"/>
<feBlend mode="normal" in2="BackgroundImageFix" result="effect1_dropShadow_2_1082"/>
<feBlend mode="normal" in="SourceGraphic" in2="effect1_dropShadow_2_1082" result="shape"/>
</filter>
<filter id="filter3_d_2_1082" x="919" y="200" width="232" height="232" filterUnits="userSpaceOnUse" color-interpolation-filters="sRGB">
<feFlood flood-opacity="0" result="BackgroundImageFix"/>
<feColorMatrix in="SourceAlpha" type="matrix" values="0 0 0 0 0 0 0 0 0 0 0 0 0 0 0 0 0 0 127 0" result="hardAlpha"/>
<feOffset dy="8"/>
<feGaussianBlur stdDeviation="8"/>
<feComposite in2="hardAlpha" operator="out"/>
<feColorMatrix type="matrix" values="0 0 0 0 0.670588 0 0 0 0 0.745098 0 0 0 0 0.819608 0 0 0 0.4 0"/>
<feBlend mode="normal" in2="BackgroundImageFix" result="effect1_dropShadow_2_1082"/>
<feBlend mode="normal" in="SourceGraphic" in2="effect1_dropShadow_2_1082" result="shape"/>
</filter>
<filter id="filter4_d_2_1082" x="1127" y="192" width="264" height="264" filterUnits="userSpaceOnUse" color-interpolation-filters="sRGB">
<feFlood flood-opacity="0" result="BackgroundImageFix"/>
<feColorMatrix in="SourceAlpha" type="matrix" values="0 0 0 0 0 0 0 0 0 0 0 0 0 0 0 0 0 0 127 0" result="hardAlpha"/>
<feOffset dy="16"/>
<feGaussianBlur stdDeviation="16"/>
<feComposite in2="hardAlpha" operator="out"/>
<feColorMatrix type="matrix" values="0 0 0 0 0.670588 0 0 0 0 0.745098 0 0 0 0 0.819608 0 0 0 0.3 0"/>
<feBlend mode="normal" in2="BackgroundImageFix" result="effect1_dropShadow_2_1082"/>
<feBlend mode="normal" in="SourceGraphic" in2="effect1_dropShadow_2_1082" result="shape"/>
</filter>
</defs>
</svg>
