<svg width="183" height="241" viewBox="0 0 183 241" fill="none" xmlns="http://www.w3.org/2000/svg">
<g id="freepik  flowchart window  inject 10">
<g id="freepik  Window  inject 10">
<g id="freepik  window  inject 10">
<path id="Vector" d="M5.33158 240.401C5.56599 240.394 5.79412 240.323 5.99217 240.198L180.063 139.613C180.777 139.144 181.372 138.515 181.8 137.776C182.229 137.037 182.48 136.209 182.533 135.356V3.86505C182.533 2.94049 182.147 2.39185 181.517 2.39185C181.157 2.4017 180.806 2.50688 180.5 2.69665L6.41901 103.24C5.70511 103.712 5.11048 104.343 4.68194 105.084C4.25339 105.824 4.00264 106.654 3.94941 107.508V238.308C3.93983 238.841 4.08837 239.364 4.37626 239.812C4.47394 239.982 4.61245 240.125 4.77925 240.227C4.94606 240.33 5.13589 240.39 5.33158 240.401Z" fill="#F5F7FA"/>
<path id="Vector_2" d="M1.21554 238.694C1.51026 238.847 3.60384 240.035 4.51851 240.564C4.18219 240.293 3.91477 239.947 3.73812 239.553C3.56147 239.159 3.48063 238.729 3.50221 238.298V116.276L0.0569574 114.244V236.337C0.0266666 236.797 0.117742 237.257 0.321069 237.671C0.524397 238.084 0.832844 238.437 1.21554 238.694Z" fill="#F5F7FA"/>
</g>
<path id="freepik  Outline  inject 10" d="M181.496 2.84882C182.005 2.84882 182.076 3.47875 182.076 3.86483V135.346C182.023 136.119 181.794 136.87 181.407 137.541C181.019 138.211 180.483 138.785 179.84 139.217L5.76857 239.801C5.63678 239.883 5.48621 239.928 5.33156 239.934C4.8539 239.934 4.43722 239.192 4.43722 238.338V107.477C4.48463 106.703 4.71126 105.95 5.09926 105.278C5.48726 104.607 6.02602 104.034 6.67307 103.606L180.744 3.09267C180.969 2.94668 181.229 2.86257 181.496 2.84882ZM181.496 1.94458C181.071 1.95606 180.657 2.08245 180.297 2.31034L6.21574 102.814C5.43377 103.326 4.78341 104.015 4.3173 104.825C3.85118 105.635 3.58241 106.544 3.53271 107.477V238.308C3.53271 239.659 4.28477 240.817 5.33156 240.817C5.64802 240.811 5.95701 240.72 6.2259 240.553L180.287 139.969C181.073 139.462 181.728 138.776 182.198 137.967C182.668 137.158 182.939 136.249 182.99 135.316V3.86483C182.99 2.64562 182.381 1.94458 181.496 1.94458Z" fill="#E0E0E0"/>
<g id="freepik  up bar  inject 10">
<path id="Vector_3" d="M182.981 3.80398V12.8159L3.5335 116.448L0.0882568 114.416V105.557C0.126568 104.605 0.406344 103.678 0.901293 102.864C1.35263 102.063 1.99939 101.388 2.78144 100.904L176.853 0.359728C177.134 0.157263 177.465 0.0351676 177.811 0.00653064C178.156 -0.0221063 178.503 0.0437952 178.814 0.197167C179.312 0.501969 181.67 1.84309 182.148 2.08693C182.223 2.12243 182.292 2.17054 182.351 2.22918C182.432 2.28928 182.504 2.36119 182.564 2.44254C182.633 2.52616 182.692 2.61836 182.737 2.71686C182.8 2.81675 182.844 2.92676 182.869 3.04198C182.908 3.16098 182.935 3.28347 182.95 3.40774C182.972 3.53867 182.982 3.67126 182.981 3.80398Z" fill="#4CAF4F"/>
<path id="Vector_4" opacity="0.15" d="M182.981 3.80398V12.8159L3.5335 116.448L0.0882568 114.416V105.557C0.126568 104.605 0.406344 103.678 0.901293 102.864C1.35263 102.063 1.99939 101.388 2.78144 100.904L176.853 0.359728C177.134 0.157263 177.465 0.0351676 177.811 0.00653064C178.156 -0.0221063 178.503 0.0437952 178.814 0.197167C179.312 0.501969 181.67 1.84309 182.148 2.08693C182.223 2.12243 182.292 2.17054 182.351 2.22918C182.432 2.28928 182.504 2.36119 182.564 2.44254C182.633 2.52616 182.692 2.61836 182.737 2.71686C182.8 2.81675 182.844 2.92676 182.869 3.04198C182.908 3.16098 182.935 3.28347 182.95 3.40774C182.972 3.53867 182.982 3.67126 182.981 3.80398Z" fill="#103E13"/>
<path id="Vector_5" d="M182.98 3.804V12.816L3.53271 116.448V107.548C3.54014 106.975 3.65029 106.407 3.85793 105.872C3.88819 105.778 3.92556 105.686 3.96972 105.598C4.07516 105.346 4.19739 105.101 4.33559 104.866C4.78442 104.054 5.43558 103.371 6.2259 102.885L180.287 2.31047C180.577 2.09211 180.928 1.96737 181.291 1.95285C181.654 1.93833 182.013 2.03472 182.32 2.22919C182.401 2.2893 182.473 2.36121 182.533 2.44255C182.602 2.52618 182.66 2.61838 182.706 2.71688C182.768 2.81677 182.813 2.92678 182.838 3.042C182.877 3.16099 182.904 3.28349 182.919 3.40776C182.951 3.53777 182.972 3.67037 182.98 3.804Z" fill="#4CAF4F"/>
<path id="Vector_6" d="M164.961 14.6041C164.427 15.0283 163.999 15.5697 163.708 16.1864C163.417 16.8031 163.272 17.4784 163.284 18.1601C163.284 19.5926 164.036 20.314 164.961 19.7755C165.495 19.3513 165.924 18.8098 166.215 18.1932C166.506 17.5765 166.651 16.9012 166.638 16.2195C166.587 14.8479 165.835 14.0656 164.961 14.6041Z" fill="#F5F7FA"/>
<path id="Vector_7" d="M170.957 11.1091C170.422 11.5322 169.993 12.0735 169.702 12.6904C169.411 13.3073 169.267 13.9832 169.281 14.6651C169.281 16.0875 170.033 16.819 170.957 16.2805C171.494 15.8578 171.925 15.3169 172.218 14.7001C172.51 14.0832 172.656 13.4071 172.644 12.7245C172.644 11.2919 171.892 10.5706 170.957 11.1091Z" fill="#F5F7FA"/>
<path id="Vector_8" d="M177.014 7.60389C176.478 8.02657 176.047 8.56746 175.754 9.18431C175.462 9.80117 175.316 10.4773 175.327 11.1599C175.327 12.5925 176.08 13.3138 177.014 12.7855C177.548 12.3608 177.976 11.8192 178.267 11.2027C178.558 10.5861 178.703 9.91104 178.691 9.2295C178.691 7.79694 177.939 7.07557 177.014 7.60389Z" fill="#F5F7FA"/>
<path id="Vector_9" d="M180.297 2.31046L6.22588 102.814C5.43003 103.319 4.77597 104.018 4.3254 104.846L0.910645 102.814C1.35223 102.005 1.9967 101.326 2.78063 100.843L176.852 0.359728C177.133 0.157263 177.465 0.0351676 177.81 0.00653064C178.156 -0.0221063 178.502 0.0437952 178.813 0.197167C179.291 0.491809 181.527 1.76181 182.096 2.06661C181.799 1.95936 181.48 1.92552 181.167 1.96797C180.853 2.01043 180.555 2.12793 180.297 2.31046Z" fill="#4CAF4F"/>
<g id="Group" opacity="0.5">
<path id="Vector_10" opacity="0.5" d="M180.297 2.31046L6.22588 102.814C5.43003 103.319 4.77597 104.018 4.3254 104.846L0.910645 102.814C1.35223 102.005 1.9967 101.326 2.78063 100.843L176.852 0.359728C177.133 0.157263 177.465 0.0351676 177.81 0.00653064C178.156 -0.0221063 178.502 0.0437952 178.813 0.197167C179.291 0.491809 181.527 1.76181 182.096 2.06661C181.799 1.95936 181.48 1.92552 181.167 1.96797C180.853 2.01043 180.555 2.12793 180.297 2.31046Z" fill="white"/>
</g>
</g>
</g>
<g id="freepik  Flowchart  inject 10">
<path id="Vector_11" d="M47.0708 120.756C47.0061 120.756 46.9441 120.731 46.8983 120.685C46.8526 120.639 46.8269 120.577 46.8269 120.512V110.261C46.8269 110.196 46.8526 110.134 46.8983 110.089C46.9441 110.043 47.0061 110.017 47.0708 110.017C47.1024 110.017 47.1336 110.023 47.1627 110.036C47.1917 110.048 47.218 110.066 47.2398 110.089C47.2616 110.112 47.2786 110.139 47.2898 110.168C47.3009 110.198 47.3059 110.229 47.3046 110.261V120.512C47.3059 120.544 47.3009 120.575 47.2898 120.605C47.2786 120.635 47.2616 120.661 47.2398 120.684C47.218 120.707 47.1917 120.725 47.1627 120.738C47.1336 120.75 47.1024 120.756 47.0708 120.756Z" fill="#455A64"/>
<path id="Vector_12" d="M46.207 119.547L47.0302 120.37L47.8432 119.547V120.248L47.0302 121.061L46.207 120.248V119.547Z" fill="#455A64"/>
<path id="Vector_13" d="M55.7399 121.874C55.6963 121.877 55.6528 121.867 55.6149 121.845C55.577 121.823 55.5462 121.791 55.5264 121.752C55.5104 121.725 55.5 121.695 55.4959 121.663C55.4918 121.632 55.4941 121.6 55.5027 121.57C55.5112 121.54 55.5259 121.511 55.5457 121.487C55.5655 121.462 55.59 121.442 55.6179 121.427L62.3661 117.526C62.3941 117.509 62.425 117.499 62.4571 117.494C62.4892 117.49 62.5218 117.493 62.553 117.501C62.5842 117.51 62.6134 117.524 62.6389 117.544C62.6644 117.564 62.6857 117.589 62.7015 117.617C62.7312 117.672 62.7382 117.737 62.7212 117.798C62.7041 117.859 62.6643 117.91 62.61 117.942L55.8517 121.844C55.8181 121.864 55.7793 121.875 55.7399 121.874Z" fill="#455A64"/>
<path id="Vector_14" d="M62.0612 118.928L62.3661 117.81L61.2482 117.505L61.8478 117.16L62.9657 117.454L62.671 118.572L62.0612 118.928Z" fill="#455A64"/>
<path id="Vector_15" d="M54.4898 175.732C54.4462 175.735 54.4028 175.725 54.3648 175.703C54.3269 175.682 54.2961 175.649 54.2764 175.61C54.2603 175.583 54.2499 175.553 54.2459 175.522C54.2418 175.49 54.2441 175.459 54.2526 175.428C54.2612 175.398 54.2758 175.37 54.2956 175.345C54.3154 175.32 54.34 175.3 54.3678 175.285L61.116 171.384C61.1731 171.354 61.2395 171.346 61.3018 171.363C61.3641 171.38 61.4176 171.42 61.4514 171.475C61.4793 171.533 61.4854 171.598 61.4686 171.66C61.4518 171.722 61.4132 171.775 61.3599 171.811L54.6016 175.702C54.5681 175.723 54.5292 175.733 54.4898 175.732Z" fill="#455A64"/>
<path id="Vector_16" d="M60.8111 172.786L61.116 171.668L59.9981 171.374L60.5977 171.018L61.7157 171.323L61.4209 172.44L60.8111 172.786Z" fill="#455A64"/>
<path id="Vector_17" d="M78.9927 161.589C78.9508 161.59 78.9095 161.579 78.8735 161.558C78.8376 161.536 78.8084 161.505 78.7894 161.468C78.7718 161.441 78.7601 161.411 78.7552 161.379C78.7503 161.347 78.7522 161.315 78.7609 161.284C78.7696 161.253 78.7848 161.225 78.8055 161.2C78.8262 161.176 78.8519 161.156 78.8809 161.142L85.6291 157.241C85.6558 157.223 85.6861 157.212 85.7177 157.207C85.7494 157.202 85.7817 157.204 85.8126 157.212C85.8434 157.221 85.872 157.236 85.8965 157.257C85.9209 157.278 85.9406 157.303 85.9543 157.332C85.9707 157.359 85.9817 157.389 85.9865 157.419C85.9913 157.45 85.9899 157.482 85.9824 157.512C85.9748 157.542 85.9612 157.571 85.9424 157.596C85.9236 157.621 85.9 157.642 85.873 157.657L79.1146 161.559C79.0773 161.58 79.0353 161.59 78.9927 161.589Z" fill="#455A64"/>
<path id="Vector_18" d="M85.3243 158.643L85.6292 157.525L84.5112 157.221L85.1108 156.875L86.2288 157.17L85.9239 158.287L85.3243 158.643Z" fill="#455A64"/>
<path id="Vector_19" d="M80.6087 107.538C80.5667 107.539 80.5255 107.528 80.4895 107.506C80.4536 107.485 80.4244 107.454 80.4054 107.416C80.3889 107.39 80.378 107.36 80.3732 107.329C80.3683 107.298 80.3698 107.267 80.3773 107.237C80.3849 107.206 80.3985 107.178 80.4173 107.153C80.4361 107.128 80.4597 107.107 80.4867 107.091L87.2451 103.19C87.2722 103.174 87.3024 103.163 87.3337 103.159C87.365 103.155 87.3968 103.157 87.4272 103.166C87.4576 103.175 87.4859 103.189 87.5105 103.209C87.5351 103.229 87.5554 103.253 87.5703 103.281C87.5867 103.308 87.5977 103.337 87.6025 103.368C87.6073 103.399 87.6059 103.431 87.5983 103.461C87.5907 103.491 87.5772 103.52 87.5584 103.545C87.5396 103.57 87.516 103.591 87.489 103.606L80.7306 107.508C80.6929 107.527 80.6511 107.538 80.6087 107.538Z" fill="#455A64"/>
<path id="Vector_20" d="M86.8995 104.592L87.2044 103.474L86.0864 103.169L86.686 102.824L87.804 103.118L87.4991 104.246L86.8995 104.592Z" fill="#455A64"/>
<path id="Vector_21" d="M80.131 134.625C80.0888 134.626 80.0469 134.617 80.0095 134.597C79.9721 134.577 79.9404 134.549 79.9176 134.513C79.9013 134.485 79.8907 134.454 79.8865 134.422C79.8823 134.39 79.8845 134.357 79.8931 134.326C79.9016 134.295 79.9162 134.266 79.9361 134.24C79.956 134.215 79.9808 134.194 80.009 134.178L86.7572 130.276C86.8138 130.244 86.881 130.235 86.9439 130.253C87.0068 130.27 87.0603 130.311 87.0926 130.368C87.125 130.424 87.1335 130.491 87.1163 130.554C87.0992 130.617 87.0577 130.671 87.0011 130.703L80.2428 134.594C80.2093 134.615 80.1704 134.626 80.131 134.625Z" fill="#455A64"/>
<path id="Vector_22" d="M80.5476 133.202L80.2529 134.32L81.3708 134.615L80.7712 134.96L79.6533 134.665L79.948 133.548L80.5476 133.202Z" fill="#455A64"/>
<path id="Vector_23" d="M79.694 184.998C79.6521 184.999 79.6108 184.988 79.5749 184.966C79.5389 184.945 79.5098 184.914 79.4907 184.876C79.4673 184.848 79.4511 184.815 79.4436 184.779C79.436 184.744 79.4373 184.707 79.4473 184.672C79.4573 184.637 79.4758 184.604 79.5011 184.578C79.5264 184.552 79.5577 184.532 79.5923 184.521L85.8934 180.873C85.9489 180.844 86.0138 180.837 86.0744 180.854C86.135 180.871 86.1867 180.91 86.2186 180.965C86.2351 180.991 86.246 181.021 86.2508 181.052C86.2557 181.083 86.2542 181.114 86.2467 181.144C86.2391 181.175 86.2255 181.203 86.2067 181.228C86.1879 181.253 86.1643 181.274 86.1373 181.29L79.8261 184.937C79.7883 184.969 79.7427 184.99 79.694 184.998Z" fill="#455A64"/>
<path id="Vector_24" d="M80.1208 183.566L79.8159 184.683L80.9339 184.988L80.3342 185.334L79.2163 185.029L79.5212 183.911L80.1208 183.566Z" fill="#455A64"/>
<path id="Vector_25" d="M55.8516 148.636C55.8097 148.636 55.7685 148.625 55.7325 148.604C55.6966 148.582 55.6674 148.551 55.6484 148.514C55.6319 148.487 55.621 148.458 55.6161 148.427C55.6113 148.396 55.6127 148.364 55.6203 148.334C55.6279 148.304 55.6415 148.275 55.6603 148.25C55.679 148.225 55.7027 148.204 55.7297 148.189L62.4881 144.287C62.5436 144.257 62.6085 144.25 62.6691 144.267C62.7297 144.284 62.7814 144.324 62.8133 144.379C62.8295 144.406 62.8401 144.437 62.8443 144.469C62.8485 144.502 62.8463 144.534 62.8378 144.565C62.8293 144.597 62.8146 144.626 62.7947 144.651C62.7748 144.677 62.75 144.698 62.7218 144.714L55.9736 148.605L55.8516 148.636Z" fill="#455A64"/>
<path id="Vector_26" d="M56.2785 147.213L55.9736 148.331L57.0915 148.625L56.4919 148.971L55.374 148.676L55.6789 147.559L56.2785 147.213Z" fill="#455A64"/>
<path id="Vector_27" d="M94.2677 116.692C94.203 116.692 94.1409 116.667 94.0952 116.621C94.0494 116.575 94.0237 116.513 94.0237 116.449V108.635C94.0237 108.571 94.0494 108.509 94.0952 108.463C94.1409 108.417 94.203 108.392 94.2677 108.392C94.3323 108.392 94.3944 108.417 94.4401 108.463C94.4859 108.509 94.5116 108.571 94.5116 108.635V116.449C94.5116 116.513 94.4859 116.575 94.4401 116.621C94.3944 116.667 94.3323 116.692 94.2677 116.692Z" fill="#455A64"/>
<path id="Vector_28" d="M93.4546 115.493L94.2676 116.306L95.0908 115.493V116.184L94.2676 116.997L93.4546 116.184V115.493Z" fill="#455A64"/>
<path id="Vector_29" d="M47.0709 166.619C47.0311 166.631 46.9887 166.631 46.9489 166.619C46.9116 166.6 46.8803 166.571 46.8588 166.535C46.8372 166.499 46.8262 166.457 46.8269 166.416V160.665C46.8269 160.6 46.8526 160.538 46.8984 160.493C46.9441 160.447 47.0062 160.421 47.0709 160.421C47.1024 160.421 47.1337 160.428 47.1627 160.44C47.1918 160.452 47.218 160.47 47.2398 160.493C47.2617 160.516 47.2787 160.543 47.2898 160.572C47.3009 160.602 47.306 160.633 47.3046 160.665V165.989L94.0543 139.004V135.427C94.0543 135.363 94.08 135.301 94.1257 135.255C94.1714 135.209 94.2335 135.184 94.2982 135.184C94.3629 135.184 94.4249 135.209 94.4707 135.255C94.5164 135.301 94.5421 135.363 94.5421 135.427V139.146C94.5407 139.187 94.5288 139.228 94.5075 139.263C94.4861 139.299 94.4561 139.328 94.4201 139.349L47.1725 166.619C47.1391 166.627 47.1042 166.627 47.0709 166.619Z" fill="#455A64"/>
<path id="Vector_30" d="M47.8432 161.59L47.0302 160.777L46.207 161.59V160.899L47.0302 160.076L47.8432 160.899V161.59Z" fill="#455A64"/>
<path id="Vector_31" d="M47.0708 193.289C47.031 193.301 46.9887 193.301 46.9489 193.289C46.9099 193.269 46.8776 193.238 46.8559 193.201C46.8343 193.163 46.8242 193.119 46.8269 193.076V189.367C46.8269 189.302 46.8526 189.24 46.8984 189.195C46.9441 189.149 47.0061 189.123 47.0708 189.123C47.1024 189.123 47.1337 189.13 47.1627 189.142C47.1917 189.154 47.218 189.173 47.2398 189.195C47.2617 189.218 47.2787 189.245 47.2898 189.275C47.3009 189.304 47.306 189.336 47.3046 189.367V192.649L94.0542 165.664V160.035C94.0542 159.97 94.0799 159.908 94.1257 159.863C94.1714 159.817 94.2334 159.791 94.2981 159.791C94.3628 159.791 94.4249 159.817 94.4706 159.863C94.5164 159.908 94.5421 159.97 94.5421 160.035V165.786C94.5407 165.827 94.5288 165.868 94.5074 165.903C94.4861 165.939 94.456 165.968 94.4201 165.989L47.142 193.258C47.1204 193.273 47.0963 193.283 47.0708 193.289Z" fill="#455A64"/>
<path id="Vector_32" d="M95.0908 160.99L94.2676 160.177L93.4546 160.99V160.299L94.2676 159.486L95.0908 160.299V160.99Z" fill="#455A64"/>
<path id="Vector_33" d="M36.2168 186.278C36.1766 186.288 36.1349 186.288 36.0948 186.278C36.0574 186.257 36.0264 186.226 36.005 186.188C35.9835 186.151 35.9725 186.108 35.9728 186.065V159.73C35.9742 159.689 35.9861 159.648 36.0075 159.613C36.0288 159.577 36.0589 159.548 36.0948 159.527L38.6559 158.044C38.7036 158.022 38.757 158.016 38.8082 158.027C38.8595 158.038 38.9059 158.065 38.9404 158.105C38.9567 158.133 38.9673 158.164 38.9715 158.196C38.9757 158.228 38.9734 158.26 38.9649 158.291C38.9564 158.323 38.9418 158.352 38.9219 158.377C38.902 158.403 38.8772 158.424 38.849 158.44L36.42 159.842V185.588L39.103 184.043C39.1304 184.02 39.1627 184.002 39.1976 183.993C39.2325 183.983 39.2691 183.981 39.3047 183.987C39.3404 183.993 39.3743 184.008 39.4038 184.028C39.4334 184.049 39.4579 184.077 39.4756 184.108C39.4933 184.14 39.5038 184.175 39.5062 184.211C39.5087 184.247 39.5031 184.283 39.4898 184.317C39.4765 184.351 39.4559 184.381 39.4294 184.406C39.4029 184.43 39.3713 184.449 39.3368 184.46L36.2879 186.218C36.2679 186.242 36.2438 186.262 36.2168 186.278Z" fill="#455A64"/>
<path id="Vector_34" d="M38.8388 185.476L39.1336 184.358L38.0156 184.053L38.6254 183.708L39.7332 184.013L39.4384 185.12L38.8388 185.476Z" fill="#455A64"/>
<path id="Vector_35" d="M103.424 171.313C103.383 171.313 103.341 171.302 103.305 171.281C103.269 171.259 103.24 171.228 103.221 171.191C103.205 171.163 103.194 171.132 103.19 171.1C103.186 171.068 103.188 171.035 103.197 171.004C103.205 170.973 103.22 170.944 103.24 170.918C103.26 170.893 103.284 170.871 103.313 170.855L105.853 169.392V146.126L103.658 147.386C103.632 147.402 103.602 147.413 103.571 147.418C103.54 147.423 103.509 147.421 103.478 147.414C103.448 147.406 103.42 147.393 103.395 147.374C103.37 147.355 103.349 147.332 103.333 147.305C103.316 147.277 103.305 147.247 103.3 147.215C103.295 147.183 103.297 147.151 103.304 147.12C103.312 147.089 103.325 147.06 103.344 147.034C103.363 147.008 103.387 146.986 103.414 146.969L105.975 145.496C106.013 145.476 106.055 145.465 106.097 145.465C106.14 145.465 106.182 145.476 106.219 145.496C106.255 145.519 106.284 145.551 106.303 145.588C106.323 145.625 106.332 145.667 106.331 145.709V169.525C106.332 169.565 106.322 169.605 106.302 169.641C106.283 169.677 106.254 169.707 106.219 169.728L103.546 171.313C103.506 171.323 103.464 171.323 103.424 171.313Z" fill="#455A64"/>
<path id="Vector_36" d="M103.851 169.87L103.557 170.987L104.674 171.282L104.065 171.638L102.947 171.333L103.252 170.215L103.851 169.87Z" fill="#455A64"/>
<path id="Vector_37" d="M54.317 99.6944C54.317 102.427 51.0547 106.522 47.0302 108.838C43.0056 111.155 39.7332 110.87 39.7332 108.097C39.7332 105.323 42.9955 101.269 47.0302 98.9528C51.0649 96.6363 54.317 96.9614 54.317 99.6944Z" fill="#4CAF4F"/>
<path id="Vector_38" d="M73.5612 192.923C77.3186 189.779 79.1994 185.838 77.7619 184.121C76.3245 182.405 72.1132 183.562 68.3557 186.706C64.5982 189.85 62.7175 193.791 64.1549 195.508C65.5923 197.224 69.8037 196.067 73.5612 192.923Z" fill="#4CAF4F"/>
<path id="Vector_39" d="M53.6666 127.208L40.3836 134.869C39.9872 135.092 39.6722 134.869 39.6722 134.32V127.482C39.6753 127.214 39.7413 126.95 39.8648 126.712C39.9884 126.474 40.1661 126.268 40.3836 126.111L53.6666 118.48C54.0629 118.257 54.378 118.48 54.378 119.029V125.857C54.3709 126.121 54.3031 126.381 54.1798 126.615C54.0564 126.849 53.8808 127.052 53.6666 127.208Z" fill="#4CAF4F"/>
<path id="Vector_40" opacity="0.6" d="M53.6666 127.208L40.3836 134.869C39.9872 135.092 39.6722 134.869 39.6722 134.32V127.482C39.6753 127.214 39.7413 126.95 39.8648 126.712C39.9884 126.474 40.1661 126.268 40.3836 126.111L53.6666 118.48C54.0629 118.257 54.378 118.48 54.378 119.029V125.857C54.3709 126.121 54.3031 126.381 54.1798 126.615C54.0564 126.849 53.8808 127.052 53.6666 127.208Z" fill="white"/>
<path id="Vector_41" d="M77.5597 113.4L64.3479 121.051C63.9515 121.284 63.6263 121.051 63.6263 120.512V113.675C63.6306 113.405 63.6981 113.141 63.8235 112.903C63.9488 112.665 64.1284 112.459 64.3479 112.303L77.5597 104.642C77.9561 104.409 78.2813 104.642 78.2813 105.181V112.019C78.2786 112.289 78.2118 112.556 78.0864 112.796C77.961 113.036 77.7805 113.243 77.5597 113.4Z" fill="#4CAF4F"/>
<path id="Vector_42" opacity="0.6" d="M77.5597 113.4L64.3479 121.051C63.9515 121.284 63.6263 121.051 63.6263 120.512V113.675C63.6306 113.405 63.6981 113.141 63.8235 112.903C63.9488 112.665 64.1284 112.459 64.3479 112.303L77.5597 104.642C77.9561 104.409 78.2813 104.642 78.2813 105.181V112.019C78.2786 112.289 78.2118 112.556 78.0864 112.796C77.961 113.036 77.7805 113.243 77.5597 113.4Z" fill="white"/>
<path id="Vector_43" d="M77.5597 140.223L64.3479 147.884C63.9515 148.117 63.6263 147.884 63.6263 147.345V140.507C63.6314 140.238 63.6993 139.974 63.8246 139.736C63.9498 139.498 64.129 139.292 64.3479 139.136L77.5597 131.475C77.9561 131.241 78.2813 131.475 78.2813 132.014V138.851C78.277 139.12 78.2094 139.385 78.0841 139.623C77.9588 139.861 77.7791 140.067 77.5597 140.223Z" fill="#4CAF4F"/>
<path id="Vector_44" opacity="0.6" d="M77.5597 140.223L64.3479 147.884C63.9515 148.117 63.6263 147.884 63.6263 147.345V140.507C63.6314 140.238 63.6993 139.974 63.8246 139.736C63.9498 139.498 64.129 139.292 64.3479 139.136L77.5597 131.475C77.9561 131.241 78.2813 131.475 78.2813 132.014V138.851C78.277 139.12 78.2094 139.385 78.0841 139.623C77.9588 139.861 77.7791 140.067 77.5597 140.223Z" fill="white"/>
<path id="Vector_45" d="M77.5597 166.537L64.3479 174.198C63.9515 174.422 63.6263 174.198 63.6263 173.649V166.812C63.6314 166.543 63.6993 166.279 63.8246 166.04C63.9498 165.802 64.129 165.597 64.3479 165.44L77.5597 157.779C77.9561 157.556 78.2813 157.779 78.2813 158.328V165.156C78.277 165.426 78.2095 165.692 78.0842 165.932C77.9589 166.172 77.7793 166.379 77.5597 166.537Z" fill="#4CAF4F"/>
<path id="Vector_46" opacity="0.6" d="M77.5597 166.537L64.3479 174.198C63.9515 174.422 63.6263 174.198 63.6263 173.649V166.812C63.6314 166.543 63.6993 166.279 63.8246 166.04C63.9498 165.802 64.129 165.597 64.3479 165.44L77.5597 157.779C77.9561 157.556 78.2813 157.779 78.2813 158.328V165.156C78.277 165.426 78.2095 165.692 78.0842 165.932C77.9589 166.172 77.7793 166.379 77.5597 166.537Z" fill="white"/>
<path id="Vector_47" d="M100.935 153.075L87.6617 160.736C87.2653 160.97 86.9401 160.736 86.9401 160.198V153.36C86.9452 153.091 87.0131 152.827 87.1384 152.589C87.2637 152.351 87.4429 152.145 87.6617 151.988L100.935 144.328C101.331 144.094 101.656 144.328 101.656 144.866V151.704C101.652 151.973 101.584 152.237 101.459 152.476C101.334 152.714 101.154 152.919 100.935 153.075Z" fill="#4CAF4F"/>
<path id="Vector_48" opacity="0.6" d="M100.935 153.075L87.6617 160.736C87.2653 160.97 86.9401 160.736 86.9401 160.198V153.36C86.9452 153.091 87.0131 152.827 87.1384 152.589C87.2637 152.351 87.4429 152.145 87.6617 151.988L100.935 144.328C101.331 144.094 101.656 144.328 101.656 144.866V151.704C101.652 151.973 101.584 152.237 101.459 152.476C101.334 152.714 101.154 152.919 100.935 153.075Z" fill="white"/>
<path id="Vector_49" d="M100.935 176.891L87.6312 184.521C87.2349 184.755 86.9097 184.521 86.9097 183.982V177.145C86.914 176.875 86.9815 176.611 87.1069 176.373C87.2322 176.135 87.4118 175.929 87.6312 175.773L100.935 168.143C101.331 167.909 101.656 168.143 101.656 168.681V175.519C101.651 175.788 101.583 176.052 101.458 176.29C101.333 176.528 101.153 176.734 100.935 176.891Z" fill="#4CAF4F"/>
<path id="Vector_50" opacity="0.6" d="M100.935 176.891L87.6312 184.521C87.2349 184.755 86.9097 184.521 86.9097 183.982V177.145C86.914 176.875 86.9815 176.611 87.1069 176.373C87.2322 176.135 87.4118 175.929 87.6312 175.773L100.935 168.143C101.331 167.909 101.656 168.143 101.656 168.681V175.519C101.651 175.788 101.583 176.052 101.458 176.29C101.333 176.528 101.153 176.734 100.935 176.891Z" fill="white"/>
<path id="Vector_51" d="M53.6666 154.041L40.3836 161.701C39.9872 161.935 39.6722 161.701 39.6722 161.153V154.325C39.6753 154.055 39.7412 153.79 39.8647 153.55C39.9882 153.31 40.1658 153.103 40.3836 152.943L53.6666 145.283C54.0629 145.059 54.378 145.283 54.378 145.831V152.669C54.3749 152.937 54.3089 153.201 54.1853 153.439C54.0618 153.677 53.8841 153.883 53.6666 154.041Z" fill="#4CAF4F"/>
<path id="Vector_52" opacity="0.6" d="M53.6666 154.041L40.3836 161.701C39.9872 161.935 39.6722 161.701 39.6722 161.153V154.325C39.6753 154.055 39.7412 153.79 39.8647 153.55C39.9882 153.31 40.1658 153.103 40.3836 152.943L53.6666 145.283C54.0629 145.059 54.378 145.283 54.378 145.831V152.669C54.3749 152.937 54.3089 153.201 54.1853 153.439C54.0618 153.677 53.8841 153.883 53.6666 154.041Z" fill="white"/>
<path id="Vector_53" d="M93.5969 106.563L87.9869 98.7293C87.8103 98.295 87.7803 97.815 87.9013 97.3621C88.0224 96.9092 88.288 96.5081 88.6577 96.2198L99.837 89.7478C100.548 89.3313 100.945 90.3574 100.508 91.475L94.8978 105.791C94.603 106.664 93.9424 107.04 93.5969 106.563Z" fill="#455A64"/>
<path id="Vector_54" d="M99.9792 123.977L94.7758 132.948C94.4709 133.467 94.0644 133.71 93.7595 133.538L88.5561 130.571C88.0987 130.307 88.0987 129.26 88.5561 128.468L93.7595 119.507C94.0644 118.988 94.4709 118.745 94.7758 118.917L99.9792 121.884C100.437 122.138 100.437 123.195 99.9792 123.977Z" fill="#C8E6C9"/>
<path id="Vector_55" d="M52.7316 177.551L47.5383 186.553C47.2334 187.071 46.8168 187.315 46.522 187.142L41.3186 184.175C40.8613 183.921 40.8613 182.865 41.3186 182.072L46.522 173.111C46.8168 172.593 47.2334 172.349 47.5383 172.522L52.7316 175.489C53.1686 175.712 53.1686 176.769 52.7316 177.551Z" fill="#C8E6C9"/>
<path id="Vector_56" d="M27.3445 145.913C27.3026 145.912 27.2614 145.902 27.2243 145.882C27.1872 145.863 27.1552 145.835 27.1311 145.801C27.1008 145.744 27.0935 145.677 27.1105 145.615C27.1274 145.553 27.1675 145.499 27.2225 145.466L42.8938 136.423C42.9212 136.406 42.9516 136.395 42.9832 136.39C43.0149 136.385 43.0472 136.387 43.0784 136.394C43.1095 136.402 43.1389 136.415 43.1647 136.434C43.1906 136.453 43.2125 136.477 43.2292 136.504C43.2594 136.561 43.2668 136.628 43.2498 136.69C43.2328 136.752 43.1927 136.806 43.1377 136.84L27.4664 145.913C27.4263 145.922 27.3846 145.922 27.3445 145.913Z" fill="#455A64"/>
<path id="Vector_57" d="M27.3445 148.229C27.3015 148.229 27.2594 148.217 27.2221 148.196C27.1847 148.174 27.1534 148.144 27.1311 148.107C27.1014 148.052 27.0944 147.987 27.1114 147.926C27.1285 147.866 27.1683 147.814 27.2226 147.782L42.8939 138.729C42.9509 138.699 43.0173 138.692 43.0796 138.709C43.1419 138.726 43.1954 138.766 43.2292 138.821C43.2589 138.876 43.266 138.941 43.2489 139.002C43.2319 139.062 43.192 139.114 43.1378 139.146L27.4665 148.199C27.4287 148.218 27.387 148.229 27.3445 148.229Z" fill="#E0E0E0"/>
<path id="Vector_58" d="M27.3445 150.505C27.3019 150.503 27.2604 150.49 27.2233 150.469C27.1863 150.448 27.1547 150.418 27.1311 150.383C27.1008 150.326 27.0935 150.26 27.1105 150.197C27.1274 150.135 27.1675 150.081 27.2225 150.048L42.8938 141.005C42.9218 140.989 42.9527 140.978 42.9848 140.974C43.0169 140.97 43.0495 140.972 43.0807 140.981C43.1119 140.989 43.1411 141.004 43.1666 141.024C43.1921 141.044 43.2134 141.068 43.2292 141.097C43.2589 141.152 43.2659 141.217 43.2489 141.278C43.2318 141.338 43.192 141.39 43.1377 141.422L27.4664 150.474L27.3445 150.505Z" fill="#E0E0E0"/>
<path id="Vector_59" d="M27.3445 152.771C27.3026 152.77 27.2614 152.76 27.2243 152.74C27.1872 152.721 27.1552 152.693 27.1311 152.659C27.1008 152.602 27.0935 152.535 27.1105 152.473C27.1274 152.411 27.1675 152.357 27.2225 152.324L42.8938 143.281C42.9212 143.264 42.9516 143.253 42.9832 143.248C43.0149 143.243 43.0472 143.245 43.0784 143.252C43.1095 143.26 43.1389 143.273 43.1647 143.292C43.1906 143.311 43.2125 143.335 43.2292 143.362C43.2594 143.419 43.2668 143.486 43.2498 143.548C43.2328 143.61 43.1927 143.664 43.1377 143.698L27.4664 152.74C27.4287 152.76 27.3869 152.77 27.3445 152.771Z" fill="#E0E0E0"/>
<path id="Vector_60" d="M20.454 119.364C20.4121 119.365 20.3708 119.354 20.3349 119.333C20.2989 119.311 20.2698 119.28 20.2507 119.242C20.234 119.215 20.2229 119.185 20.218 119.153C20.213 119.121 20.2143 119.089 20.2219 119.058C20.2294 119.027 20.2431 118.997 20.262 118.972C20.2809 118.946 20.3047 118.924 20.3321 118.907L36.0135 109.865C36.067 109.848 36.1247 109.85 36.1769 109.87C36.2292 109.891 36.2727 109.929 36.3001 109.978C36.3276 110.027 36.3373 110.084 36.3277 110.139C36.3181 110.194 36.2896 110.245 36.2472 110.281L20.576 119.334C20.5382 119.353 20.4965 119.364 20.454 119.364Z" fill="#455A64"/>
<path id="Vector_61" d="M20.454 121.63C20.4133 121.631 20.3732 121.621 20.3375 121.601C20.3019 121.582 20.272 121.553 20.2507 121.518C20.234 121.491 20.2229 121.461 20.218 121.429C20.213 121.397 20.2143 121.365 20.2219 121.334C20.2294 121.303 20.2431 121.273 20.262 121.247C20.2809 121.222 20.3047 121.2 20.3321 121.183L36.0135 112.14C36.0401 112.124 36.0697 112.113 36.1006 112.108C36.1314 112.103 36.163 112.105 36.1933 112.112C36.2236 112.12 36.2521 112.134 36.2771 112.152C36.3021 112.171 36.323 112.195 36.3387 112.222C36.355 112.25 36.3655 112.281 36.3697 112.313C36.3739 112.345 36.3717 112.377 36.3632 112.409C36.3547 112.44 36.3401 112.469 36.3202 112.494C36.3002 112.52 36.2755 112.541 36.2472 112.557L20.576 121.6C20.5382 121.619 20.4965 121.629 20.454 121.63Z" fill="#E0E0E0"/>
<path id="Vector_62" d="M20.454 123.906C20.4121 123.907 20.3708 123.896 20.3349 123.874C20.2989 123.853 20.2698 123.821 20.2507 123.784C20.2343 123.757 20.2233 123.728 20.2185 123.697C20.2137 123.666 20.2151 123.635 20.2227 123.604C20.2303 123.574 20.2438 123.546 20.2626 123.521C20.2814 123.496 20.305 123.475 20.332 123.459L36.0135 114.416C36.069 114.387 36.1339 114.38 36.1945 114.397C36.2551 114.414 36.3068 114.454 36.3387 114.508C36.3548 114.535 36.3651 114.565 36.3692 114.597C36.3733 114.628 36.371 114.66 36.3625 114.69C36.3539 114.72 36.3393 114.749 36.3195 114.773C36.2997 114.798 36.2751 114.818 36.2472 114.833L20.5759 123.886C20.5374 123.902 20.4957 123.909 20.454 123.906Z" fill="#E0E0E0"/>
<path id="Vector_63" d="M20.454 126.182C20.3996 126.183 20.3465 126.165 20.3031 126.132C20.2596 126.1 20.2284 126.053 20.2144 126.001C20.2004 125.948 20.2044 125.892 20.2257 125.842C20.247 125.792 20.2844 125.751 20.3321 125.725L36.0135 116.682C36.0407 116.666 36.0708 116.656 36.1022 116.652C36.1335 116.648 36.1653 116.65 36.1957 116.658C36.226 116.667 36.2544 116.682 36.279 116.701C36.3036 116.721 36.3239 116.746 36.3387 116.774C36.3548 116.801 36.3652 116.831 36.3692 116.862C36.3733 116.893 36.371 116.925 36.3625 116.956C36.3539 116.986 36.3393 117.014 36.3195 117.039C36.2997 117.064 36.2751 117.084 36.2473 117.099L20.576 126.151L20.454 126.182Z" fill="#E0E0E0"/>
<path id="Vector_64" d="M63.1181 125.034C63.0637 125.034 63.0106 125.017 62.9672 124.984C62.9238 124.952 62.8926 124.905 62.8785 124.853C62.8645 124.8 62.8685 124.744 62.8898 124.694C62.9111 124.644 62.9486 124.603 62.9962 124.576L78.6777 115.534C78.7049 115.518 78.735 115.508 78.7663 115.503C78.7976 115.499 78.8294 115.502 78.8598 115.51C78.8902 115.519 78.9186 115.533 78.9432 115.553C78.9677 115.573 78.9881 115.598 79.0029 115.625C79.0189 115.653 79.0293 115.683 79.0334 115.714C79.0375 115.745 79.0352 115.777 79.0266 115.807C79.0181 115.838 79.0035 115.866 78.9837 115.891C78.9639 115.915 78.9393 115.936 78.9114 115.95L63.2401 124.993C63.2053 125.02 63.1622 125.034 63.1181 125.034Z" fill="#455A64"/>
<path id="Vector_65" d="M63.1182 127.299C63.0763 127.3 63.035 127.289 62.9991 127.268C62.9631 127.246 62.934 127.215 62.9149 127.177C62.8985 127.151 62.8875 127.121 62.8827 127.09C62.8779 127.06 62.8793 127.028 62.8869 126.998C62.8944 126.967 62.908 126.939 62.9268 126.914C62.9456 126.889 62.9692 126.868 62.9962 126.852L78.6777 117.8C78.7338 117.774 78.7976 117.77 78.8563 117.79C78.9149 117.809 78.9641 117.85 78.9937 117.904C79.0234 117.958 79.0314 118.022 79.0161 118.081C79.0008 118.141 78.9634 118.193 78.9114 118.226L63.2401 127.269L63.1182 127.299Z" fill="#E0E0E0"/>
<path id="Vector_66" d="M63.1182 129.575C63.0763 129.576 63.035 129.565 62.9991 129.543C62.9631 129.522 62.934 129.491 62.9149 129.453C62.8985 129.427 62.8875 129.397 62.8827 129.366C62.8779 129.335 62.8793 129.304 62.8869 129.274C62.8944 129.243 62.908 129.215 62.9268 129.19C62.9456 129.165 62.9692 129.144 62.9962 129.128L78.6777 120.076C78.7332 120.046 78.7981 120.039 78.8587 120.056C78.9193 120.073 78.971 120.113 79.0029 120.167C79.019 120.194 79.0293 120.224 79.0334 120.256C79.0375 120.287 79.0352 120.319 79.0266 120.349C79.0181 120.38 79.0035 120.408 78.9837 120.433C78.9639 120.457 78.9393 120.477 78.9114 120.492L63.2401 129.545C63.2024 129.564 63.1606 129.575 63.1182 129.575Z" fill="#E0E0E0"/>
<path id="Vector_67" d="M63.1181 131.851C63.0637 131.852 63.0106 131.835 62.9672 131.802C62.9238 131.769 62.8926 131.723 62.8785 131.67C62.8645 131.618 62.8685 131.562 62.8898 131.512C62.9111 131.462 62.9486 131.42 62.9962 131.394L78.6777 122.351C78.7042 122.335 78.7338 122.324 78.7647 122.319C78.7956 122.314 78.8271 122.316 78.8575 122.323C78.8878 122.331 78.9163 122.345 78.9412 122.363C78.9662 122.382 78.9872 122.406 79.0029 122.433C79.0192 122.461 79.0297 122.492 79.0339 122.524C79.0381 122.556 79.0359 122.588 79.0274 122.62C79.0189 122.651 79.0042 122.68 78.9843 122.705C78.9644 122.731 78.9396 122.752 78.9114 122.768L63.2401 131.81C63.2053 131.838 63.1622 131.852 63.1181 131.851Z" fill="#E0E0E0"/>
<path id="Vector_68" d="M85.7917 86.1715C85.7498 86.1723 85.7085 86.1612 85.6726 86.1397C85.6367 86.1181 85.6075 86.0869 85.5885 86.0496C85.5708 86.0228 85.5592 85.9926 85.5543 85.961C85.5494 85.9293 85.5513 85.897 85.56 85.8661C85.5687 85.8353 85.5839 85.8067 85.6045 85.7823C85.6252 85.7578 85.651 85.7381 85.6799 85.7245L101.351 76.6719C101.407 76.6422 101.472 76.6351 101.532 76.6522C101.593 76.6692 101.645 76.709 101.676 76.7633C101.693 76.7899 101.704 76.8195 101.709 76.8503C101.713 76.8812 101.712 76.9127 101.704 76.943C101.697 76.9733 101.683 77.0018 101.665 77.0268C101.646 77.0518 101.622 77.0727 101.595 77.0884L85.9137 86.141C85.8764 86.1617 85.8344 86.1722 85.7917 86.1715Z" fill="#455A64"/>
<path id="Vector_69" d="M85.7918 88.4474C85.7503 88.4461 85.7099 88.4342 85.6743 88.4128C85.6388 88.3915 85.6092 88.3614 85.5885 88.3255C85.5596 88.2688 85.5541 88.203 85.5731 88.1423C85.5921 88.0815 85.6341 88.0306 85.6901 88.0004L101.361 78.958C101.388 78.9404 101.418 78.9287 101.45 78.9238C101.482 78.9189 101.514 78.9208 101.545 78.9295C101.576 78.9382 101.604 78.9534 101.629 78.974C101.653 78.9947 101.673 79.0204 101.687 79.0494C101.703 79.076 101.714 79.1056 101.719 79.1364C101.724 79.1673 101.722 79.1988 101.715 79.2291C101.707 79.2595 101.694 79.2879 101.675 79.3129C101.656 79.3379 101.632 79.3588 101.605 79.3745L85.9239 88.417C85.9051 88.4307 85.8836 88.4405 85.8609 88.4457C85.8382 88.4509 85.8147 88.4515 85.7918 88.4474Z" fill="#E0E0E0"/>
<path id="Vector_70" d="M85.7917 90.713C85.7498 90.7138 85.7085 90.7027 85.6726 90.6812C85.6366 90.6596 85.6075 90.6284 85.5884 90.5911C85.5724 90.5639 85.562 90.5337 85.5579 90.5025C85.5539 90.4712 85.5561 90.4394 85.5647 90.409C85.5732 90.3786 85.5879 90.3503 85.6077 90.3257C85.6275 90.3011 85.652 90.2808 85.6799 90.266L101.351 81.2235C101.378 81.207 101.407 81.1961 101.438 81.1913C101.469 81.1865 101.501 81.1879 101.531 81.1955C101.561 81.203 101.59 81.2166 101.615 81.2354C101.64 81.2542 101.661 81.2778 101.676 81.3048C101.693 81.3321 101.704 81.3625 101.709 81.3942C101.714 81.4258 101.713 81.4581 101.705 81.4893C101.698 81.5204 101.684 81.5497 101.665 81.5756C101.646 81.6015 101.622 81.6234 101.595 81.6401L85.9137 90.6825C85.8764 90.7031 85.8343 90.7137 85.7917 90.713Z" fill="#E0E0E0"/>
<path id="Vector_71" d="M85.7917 92.9889C85.7498 92.9896 85.7085 92.9786 85.6726 92.9571C85.6367 92.9355 85.6075 92.9043 85.5885 92.867C85.5708 92.8402 85.5592 92.81 85.5543 92.7783C85.5494 92.7467 85.5513 92.7144 85.56 92.6835C85.5687 92.6527 85.5839 92.6241 85.6045 92.5996C85.6252 92.5752 85.651 92.5555 85.6799 92.5418L101.351 83.4892C101.407 83.4596 101.472 83.4525 101.532 83.4696C101.593 83.4866 101.645 83.5264 101.676 83.5807C101.693 83.6072 101.704 83.6368 101.709 83.6677C101.713 83.6986 101.712 83.7301 101.704 83.7604C101.697 83.7907 101.683 83.8192 101.665 83.8442C101.646 83.8692 101.622 83.8901 101.595 83.9058L85.9137 92.9584C85.8764 92.979 85.8344 92.9895 85.7917 92.9889Z" fill="#E0E0E0"/>
<path id="Vector_72" d="M100.315 111.612C100.273 111.613 100.231 111.602 100.195 111.581C100.16 111.559 100.13 111.528 100.111 111.49C100.094 111.464 100.082 111.433 100.077 111.402C100.072 111.37 100.074 111.338 100.083 111.307C100.092 111.276 100.107 111.248 100.127 111.223C100.148 111.199 100.174 111.179 100.203 111.165L115.874 102.113C115.931 102.08 115.998 102.072 116.061 102.089C116.124 102.106 116.177 102.148 116.209 102.204C116.242 102.261 116.25 102.328 116.233 102.391C116.216 102.454 116.175 102.507 116.118 102.539L100.437 111.582C100.399 111.603 100.357 111.613 100.315 111.612Z" fill="#455A64"/>
<path id="Vector_73" d="M100.315 113.888C100.273 113.889 100.231 113.878 100.195 113.856C100.16 113.835 100.13 113.803 100.111 113.766C100.095 113.738 100.085 113.707 100.08 113.675C100.076 113.643 100.078 113.611 100.087 113.579C100.095 113.548 100.11 113.519 100.13 113.493C100.15 113.468 100.175 113.447 100.203 113.431L115.874 104.388C115.901 104.371 115.931 104.359 115.963 104.354C115.994 104.349 116.027 104.351 116.058 104.36C116.088 104.369 116.117 104.384 116.141 104.404C116.166 104.425 116.186 104.451 116.199 104.48C116.216 104.506 116.227 104.536 116.232 104.567C116.236 104.598 116.235 104.629 116.227 104.66C116.22 104.69 116.206 104.718 116.187 104.743C116.169 104.768 116.145 104.789 116.118 104.805L100.437 113.858C100.399 113.878 100.357 113.889 100.315 113.888Z" fill="#E0E0E0"/>
<path id="Vector_74" d="M100.315 116.154C100.274 116.155 100.234 116.145 100.198 116.125C100.162 116.105 100.133 116.077 100.111 116.042C100.095 116.014 100.085 115.983 100.08 115.951C100.076 115.919 100.078 115.887 100.087 115.855C100.095 115.824 100.11 115.795 100.13 115.769C100.15 115.744 100.175 115.723 100.203 115.707L115.874 106.664C115.901 106.648 115.93 106.637 115.961 106.632C115.992 106.627 116.024 106.629 116.054 106.636C116.084 106.644 116.113 106.658 116.138 106.676C116.163 106.695 116.184 106.719 116.199 106.746C116.216 106.773 116.227 106.803 116.232 106.835C116.237 106.867 116.236 106.899 116.228 106.93C116.221 106.961 116.207 106.991 116.188 107.017C116.169 107.042 116.145 107.064 116.118 107.081L100.437 116.123C100.399 116.144 100.357 116.155 100.315 116.154Z" fill="#E0E0E0"/>
<path id="Vector_75" d="M100.315 118.48C100.273 118.481 100.231 118.47 100.195 118.449C100.16 118.427 100.13 118.396 100.111 118.358C100.094 118.332 100.082 118.301 100.077 118.27C100.072 118.238 100.074 118.206 100.083 118.175C100.092 118.144 100.107 118.116 100.127 118.091C100.148 118.067 100.174 118.047 100.203 118.033L115.874 108.981C115.93 108.951 115.995 108.944 116.055 108.961C116.116 108.978 116.167 109.018 116.199 109.072C116.216 109.099 116.227 109.128 116.232 109.159C116.236 109.19 116.235 109.222 116.227 109.252C116.22 109.282 116.206 109.311 116.187 109.336C116.169 109.361 116.145 109.382 116.118 109.397L100.437 118.45C100.399 118.47 100.357 118.481 100.315 118.48Z" fill="#E0E0E0"/>
<path id="Vector_76" d="M100.315 134.208C100.273 134.209 100.231 134.198 100.195 134.176C100.16 134.155 100.13 134.124 100.111 134.086C100.094 134.059 100.082 134.029 100.077 133.998C100.072 133.966 100.074 133.934 100.083 133.903C100.092 133.872 100.107 133.843 100.127 133.819C100.148 133.794 100.174 133.775 100.203 133.761L115.874 124.708C115.93 124.679 115.995 124.672 116.055 124.689C116.116 124.706 116.167 124.746 116.199 124.8C116.216 124.826 116.227 124.856 116.232 124.887C116.236 124.918 116.235 124.949 116.227 124.98C116.22 125.01 116.206 125.038 116.187 125.063C116.169 125.088 116.145 125.109 116.118 125.125L100.437 134.178C100.399 134.198 100.357 134.209 100.315 134.208Z" fill="#455A64"/>
<path id="Vector_77" d="M100.315 136.484C100.273 136.483 100.233 136.471 100.197 136.449C100.162 136.428 100.132 136.398 100.111 136.362C100.095 136.334 100.085 136.303 100.08 136.271C100.076 136.239 100.078 136.206 100.087 136.175C100.095 136.144 100.11 136.115 100.13 136.089C100.15 136.064 100.175 136.043 100.203 136.027L115.874 126.984C115.901 126.967 115.931 126.955 115.963 126.95C115.994 126.945 116.027 126.947 116.058 126.956C116.088 126.965 116.117 126.98 116.141 127C116.166 127.021 116.186 127.047 116.199 127.076C116.216 127.102 116.227 127.132 116.232 127.163C116.236 127.194 116.235 127.225 116.227 127.256C116.22 127.286 116.206 127.314 116.187 127.339C116.169 127.364 116.145 127.385 116.118 127.401L100.437 136.454C100.399 136.474 100.357 136.485 100.315 136.484Z" fill="#E0E0E0"/>
<path id="Vector_78" d="M100.315 138.801C100.273 138.801 100.231 138.79 100.195 138.769C100.16 138.747 100.13 138.716 100.111 138.679C100.095 138.652 100.085 138.621 100.081 138.59C100.077 138.559 100.079 138.527 100.088 138.497C100.096 138.466 100.111 138.438 100.131 138.413C100.15 138.389 100.175 138.368 100.203 138.354L115.874 129.311C115.901 129.295 115.93 129.284 115.961 129.279C115.992 129.274 116.024 129.276 116.054 129.283C116.084 129.291 116.113 129.304 116.138 129.323C116.163 129.342 116.184 129.365 116.199 129.392C116.216 129.42 116.227 129.45 116.232 129.482C116.237 129.513 116.236 129.546 116.228 129.577C116.221 129.608 116.207 129.637 116.188 129.663C116.169 129.689 116.145 129.711 116.118 129.728L100.437 138.77C100.399 138.791 100.357 138.801 100.315 138.801Z" fill="#E0E0E0"/>
<path id="Vector_79" d="M100.315 141.026C100.273 141.026 100.231 141.015 100.195 140.994C100.16 140.972 100.13 140.941 100.111 140.904C100.094 140.877 100.082 140.847 100.077 140.815C100.072 140.783 100.074 140.751 100.083 140.72C100.092 140.689 100.107 140.661 100.127 140.636C100.148 140.612 100.174 140.592 100.203 140.578L115.874 131.526C115.93 131.496 115.995 131.489 116.055 131.506C116.116 131.523 116.167 131.563 116.199 131.617C116.216 131.644 116.227 131.673 116.232 131.704C116.236 131.735 116.235 131.767 116.227 131.797C116.22 131.827 116.206 131.856 116.187 131.881C116.169 131.906 116.145 131.927 116.118 131.942L100.437 140.995C100.399 141.016 100.357 141.026 100.315 141.026Z" fill="#E0E0E0"/>
<path id="Vector_80" d="M26.5721 197.251C26.5301 197.252 26.4886 197.242 26.4513 197.222C26.4141 197.203 26.3823 197.174 26.3587 197.14C26.3424 197.112 26.3319 197.081 26.3277 197.049C26.3235 197.017 26.3257 196.984 26.3342 196.953C26.3427 196.922 26.3574 196.892 26.3773 196.867C26.3972 196.841 26.422 196.82 26.4502 196.804L42.1215 187.762C42.1488 187.745 42.1792 187.734 42.2109 187.729C42.2425 187.724 42.2749 187.725 42.306 187.733C42.3371 187.74 42.3665 187.754 42.3924 187.773C42.4183 187.792 42.4402 187.816 42.4568 187.843C42.4871 187.9 42.4944 187.967 42.4774 188.029C42.4605 188.091 42.4204 188.145 42.3654 188.178L26.7449 197.221C26.6922 197.25 26.6315 197.26 26.5721 197.251Z" fill="#455A64"/>
<path id="Vector_81" d="M26.5721 199.527C26.5289 199.528 26.4864 199.517 26.4489 199.495C26.4114 199.474 26.3803 199.443 26.3587 199.405C26.3427 199.378 26.3323 199.348 26.3282 199.317C26.3241 199.285 26.3264 199.254 26.335 199.223C26.3435 199.193 26.3581 199.164 26.3779 199.14C26.3977 199.115 26.4223 199.095 26.4502 199.08L42.1215 190.028C42.1785 189.997 42.2449 189.99 42.3072 190.007C42.3695 190.024 42.423 190.064 42.4568 190.119C42.4865 190.175 42.4936 190.239 42.4765 190.3C42.4595 190.361 42.4197 190.412 42.3654 190.444L26.7449 199.497L26.5721 199.527Z" fill="#E0E0E0"/>
<path id="Vector_82" d="M26.5721 201.793C26.5293 201.791 26.4876 201.78 26.4504 201.758C26.4132 201.737 26.3817 201.707 26.3587 201.671C26.3424 201.643 26.3319 201.612 26.3277 201.58C26.3235 201.548 26.3257 201.515 26.3342 201.484C26.3427 201.453 26.3574 201.424 26.3773 201.398C26.3972 201.373 26.422 201.352 26.4502 201.336L42.1215 192.293C42.1494 192.277 42.1804 192.267 42.2124 192.262C42.2445 192.258 42.2771 192.26 42.3083 192.269C42.3395 192.277 42.3687 192.292 42.3942 192.312C42.4197 192.332 42.441 192.357 42.4569 192.385C42.4865 192.44 42.4936 192.505 42.4765 192.566C42.4595 192.626 42.4197 192.678 42.3654 192.71L26.7449 201.793C26.6888 201.812 26.6282 201.812 26.5721 201.793Z" fill="#E0E0E0"/>
<path id="Vector_83" d="M26.5721 204.069C26.5208 204.066 26.4716 204.047 26.4316 204.015C26.3915 203.983 26.3627 203.939 26.3492 203.889C26.3357 203.84 26.3381 203.787 26.3563 203.739C26.3744 203.691 26.4072 203.65 26.4501 203.622L42.1214 194.579C42.1488 194.562 42.1792 194.551 42.2108 194.546C42.2425 194.541 42.2748 194.543 42.306 194.55C42.3371 194.558 42.3665 194.571 42.3924 194.59C42.4182 194.609 42.4401 194.633 42.4568 194.66C42.487 194.717 42.4944 194.784 42.4774 194.846C42.4604 194.908 42.4204 194.962 42.3654 194.996L26.7449 204.038L26.5721 204.069Z" fill="#E0E0E0"/>
</g>
</g>
</svg>
