<svg width="37" height="59" viewBox="0 0 37 59" fill="none" xmlns="http://www.w3.org/2000/svg">
<g id="freepik  Box  inject 10">
<g id="freepik  speach bubble  inject 10">
<path id="Vector" d="M30.2895 1.07262L1.22343 17.8367C0.882008 18.0591 0.598113 18.3592 0.394975 18.7124C0.191838 19.0656 0.075227 19.4618 0.0546875 19.8687V54.9514C0.072763 55.3588 0.18833 55.756 0.391692 56.1096C0.595053 56.4632 0.880279 56.7628 1.22343 56.9834L3.43896 58.2331C3.80134 58.4161 4.20168 58.5115 4.6077 58.5115C5.01372 58.5115 5.41405 58.4161 5.77644 58.2331L34.8832 41.469C35.2246 41.2465 35.5085 40.9465 35.7116 40.5933C35.9148 40.2401 36.0314 39.8439 36.0519 39.437V4.27304C36.0327 3.86466 35.9156 3.4669 35.7104 3.11325C35.5053 2.75961 35.2181 2.46046 34.873 2.24102L32.6677 0.991326C32.2936 0.813992 31.8825 0.728827 31.4687 0.742968C31.0549 0.757109 30.6506 0.870163 30.2895 1.07262Z" fill="#4CAF4F"/>
<path id="Vector_2" opacity="0.2" d="M5.73579 58.172C5.37183 58.3498 4.97211 58.4422 4.56705 58.4422C4.16199 58.4422 3.76226 58.3498 3.39831 58.172L1.22343 56.9224C0.878507 56.7037 0.59191 56.4045 0.388315 56.0505C0.18472 55.6965 0.0702251 55.2984 0.0546875 54.8904V19.8484C0.0748735 19.4263 0.204455 19.0166 0.43072 18.6597L4.95324 21.2809C4.74058 21.6273 4.62152 22.0229 4.6077 22.429V57.5015C4.56705 58.1822 5.04471 58.5683 5.73579 58.172Z" fill="#103E13"/>
<path id="Vector_3" opacity="0.5" d="M35.9909 4.11047C35.8995 3.52119 35.4218 3.30783 34.8425 3.64312L5.73577 20.4174C5.39096 20.6288 5.10723 20.9265 4.91257 21.281L0.379883 18.6597C0.574089 18.3223 0.850217 18.0392 1.18276 17.8367L30.2895 1.07262C30.6519 0.88957 31.0522 0.794189 31.4582 0.794189C31.8643 0.794189 32.2646 0.88957 32.627 1.07262L34.8323 2.32229C35.1417 2.52072 35.405 2.78289 35.6048 3.09127C35.8046 3.39965 35.9363 3.74714 35.9909 4.11047Z" fill="white"/>
<path id="Vector_4" d="M34.8426 3.64306L5.73582 20.4173C5.39382 20.6391 5.10949 20.9391 4.90628 21.2924C4.70307 21.6457 4.5868 22.0422 4.56708 22.4493V57.5218C4.56708 58.2635 5.09555 58.5378 5.73582 58.1924L34.8426 41.4283C35.1827 41.2053 35.465 40.9049 35.6664 40.5516C35.8678 40.1984 35.9825 39.8024 36.0011 39.3963V4.27298C36.0011 3.57194 35.4828 3.25698 34.8426 3.64306Z" fill="#4CAF4F"/>
</g>
<g id="freepik    inject 10">
<path id="Vector_5" d="M6.49801 38.5733C6.49101 38.3272 6.53244 38.082 6.61997 37.8519C6.72854 37.6161 6.85422 37.3886 6.99599 37.1712L13.856 26.0764C13.8889 26.0289 13.9263 25.9846 13.9678 25.9443L14.0491 25.8833C14.0843 25.8526 14.1294 25.8357 14.1761 25.8357C14.2228 25.8357 14.268 25.8526 14.3032 25.8833C14.3413 25.9298 14.3699 25.9834 14.3874 26.0409C14.4048 26.0984 14.4107 26.1588 14.4048 26.2186V30.5062C14.4155 30.8156 14.3491 31.1228 14.2117 31.4003C14.105 31.6003 13.9862 31.7937 13.856 31.9794L10.8071 36.5921L13.856 37.7706C13.9811 37.8092 14.1007 37.8639 14.2117 37.9332C14.3438 38.0145 14.4048 38.238 14.4048 38.5936V42.8811C14.407 43.0394 14.3722 43.1959 14.3032 43.3384C14.2496 43.4623 14.1614 43.5681 14.0491 43.6431H13.9678C13.9313 43.6536 13.8925 43.6536 13.856 43.6431L6.99599 40.4732C6.8531 40.418 6.72456 40.3311 6.61997 40.2192C6.52046 40.0471 6.47778 39.848 6.49801 39.6502V38.5733Z" fill="white"/>
<path id="Vector_6" d="M21.4681 19.757C21.5273 19.5181 21.6125 19.2864 21.7221 19.0661C21.8289 18.8398 22.0028 18.6518 22.2201 18.5276L24.5169 17.1966C24.5554 17.1644 24.604 17.1467 24.6542 17.1467C24.7043 17.1467 24.7529 17.1644 24.7914 17.1966C24.8321 17.2439 24.863 17.2987 24.8822 17.3581C24.9014 17.4174 24.9085 17.48 24.9031 17.5421C24.9107 17.6266 24.9107 17.7116 24.9031 17.7961L19.1001 42.5256C19.0487 42.7589 18.9667 42.9844 18.8562 43.1962C18.7496 43.4312 18.5719 43.6266 18.348 43.755L16.0918 45.0555C16.055 45.087 16.0082 45.1043 15.9597 45.1043C15.9113 45.1043 15.8644 45.087 15.8276 45.0555C15.7869 45.0083 15.756 44.9534 15.7368 44.8941C15.7176 44.8347 15.7105 44.7722 15.7158 44.7101C15.7033 44.6258 15.7033 44.5403 15.7158 44.456L21.4681 19.757Z" fill="white"/>
<path id="Vector_7" d="M34.0803 23.76C34.0855 24.006 34.0441 24.2508 33.9584 24.4814C33.8472 24.7126 33.7216 24.9366 33.5823 25.152L26.7122 36.2467C26.6847 36.2954 26.6505 36.3398 26.6105 36.3788L26.5292 36.4398C26.4276 36.5007 26.3361 36.5007 26.2752 36.4398C26.2365 36.3936 26.2076 36.3401 26.1901 36.2825C26.1727 36.2249 26.167 36.1643 26.1735 36.1045V31.8271C26.1606 31.5208 26.2271 31.2163 26.3666 30.9432C26.4987 30.7095 26.6105 30.5165 26.7122 30.3641L29.761 25.7311L26.7122 24.583C26.5883 24.5401 26.4718 24.4784 26.3666 24.4001C26.2345 24.3087 26.1735 24.0852 26.1735 23.7397V19.4522C26.1713 19.294 26.2061 19.1374 26.2752 18.995C26.3254 18.869 26.4144 18.7623 26.5292 18.6902H26.6105H26.7122L33.5823 21.8601C33.7252 21.9154 33.8538 22.0022 33.9584 22.1141C34.0536 22.2878 34.096 22.4856 34.0803 22.6831V23.76Z" fill="white"/>
</g>
</g>
</svg>
