<svg width="89" height="181" viewBox="0 0 89 181" fill="none" xmlns="http://www.w3.org/2000/svg">
<g id="freepik  code window  inject 10">
<g id="freepik  window  inject 10">
<path id="Vector" d="M88.9669 5.05608V128.897C88.9122 129.929 88.614 130.934 88.0964 131.83C87.5789 132.725 86.8568 133.485 85.9891 134.048L6.81965 179.768C6.51432 179.957 6.16211 180.055 5.80335 180.053C5.67844 180.068 5.55223 180.068 5.42732 180.053C5.33913 180.033 5.25377 180.002 5.17325 179.961L5.01064 179.88L4.83787 179.758C4.77908 179.716 4.7246 179.669 4.67526 179.616C4.44189 179.394 4.25529 179.128 4.12647 178.834C3.91875 178.359 3.81146 177.847 3.8114 177.33V54.0986C3.87003 53.067 4.17001 52.0635 4.68718 51.1688C5.20436 50.2742 5.92432 49.5133 6.78916 48.9475L85.9586 3.31871C86.2501 3.1119 86.5883 2.98047 86.943 2.93615C87.2977 2.89182 87.6578 2.93599 87.9912 3.06471C88.0803 3.10791 88.1653 3.15891 88.2453 3.21711C88.507 3.44113 88.7097 3.72598 88.8355 4.04663C88.9613 4.36728 89.0064 4.71392 88.9669 5.05608Z" fill="#455A64"/>
<path id="Vector_2" d="M87.3104 3.93861C87.4056 3.93429 87.5003 3.95533 87.5848 3.99957H87.6356C87.6356 3.99957 87.9506 4.26373 87.9506 5.01557V128.897C87.8974 129.751 87.6467 130.581 87.2181 131.321C86.7896 132.062 86.1949 132.693 85.481 133.164L6.32167 178.884C6.17769 178.974 6.01347 179.027 5.84401 179.037H5.67125H5.62043L5.53914 178.976H5.47815L5.42734 178.925C5.30052 178.795 5.19734 178.644 5.12245 178.478C4.97433 178.135 4.89823 177.765 4.89887 177.391V54.0988C4.96113 53.2471 5.21571 52.4207 5.64346 51.6816C6.0712 50.9425 6.66098 50.31 7.36846 49.8315L86.538 4.20277C86.7812 4.04512 87.0616 3.95403 87.351 3.93861H87.3104ZM87.351 2.92261C86.8835 2.93685 86.428 3.07348 86.0298 3.31885L6.86031 48.9476C5.99547 49.5135 5.27551 50.2743 4.75834 51.169C4.24116 52.0636 3.9412 53.0671 3.88257 54.0988V177.239C3.88263 177.756 3.9899 178.268 4.19762 178.742C4.32644 179.037 4.51304 179.303 4.74641 179.525C4.79576 179.577 4.85023 179.625 4.90902 179.667L5.08179 179.789L5.2444 179.87C5.32492 179.911 5.41028 179.942 5.49848 179.961C5.62338 179.976 5.7496 179.976 5.8745 179.961C6.20859 179.948 6.53384 179.85 6.81967 179.677L85.9892 133.957C86.8568 133.394 87.579 132.634 88.0965 131.738C88.614 130.843 88.9123 129.838 88.9669 128.806V5.05622C88.9997 4.72059 88.9512 4.38201 88.8257 4.06903C88.7001 3.75605 88.501 3.47785 88.2454 3.25789C87.9757 3.05733 87.6463 2.95352 87.3104 2.96324L87.351 2.92261Z" fill="#455A64"/>
<g id="Group" opacity="0.8">
<path id="Vector_3" opacity="0.8" d="M88.9669 5.05608V128.897C88.9122 129.929 88.614 130.934 88.0964 131.83C87.5789 132.725 86.8568 133.485 85.9891 134.048L6.81965 179.768C6.51432 179.957 6.16211 180.055 5.80335 180.053C5.67844 180.068 5.55223 180.068 5.42732 180.053C5.33913 180.033 5.25377 180.002 5.17325 179.961L5.01064 179.88L4.83787 179.758C4.77908 179.716 4.7246 179.669 4.67526 179.616C4.44189 179.394 4.25529 179.128 4.12647 178.834C3.91875 178.359 3.81146 177.847 3.8114 177.33V54.0986C3.87003 53.067 4.17001 52.0635 4.68718 51.1688C5.20436 50.2742 5.92432 49.5133 6.78916 48.9475L85.9586 3.31871C86.2501 3.1119 86.5883 2.98047 86.943 2.93615C87.2977 2.89182 87.6578 2.93599 87.9912 3.06471C88.0803 3.10791 88.1653 3.15891 88.2453 3.21711C88.507 3.44113 88.7097 3.72598 88.8355 4.04663C88.9613 4.36728 89.0064 4.71392 88.9669 5.05608Z" fill="#455A64"/>
</g>
<path id="Vector_4" d="M87.9913 3.02412C87.6578 2.8954 87.2977 2.85123 86.943 2.89556C86.5884 2.93988 86.2502 3.07131 85.9587 3.27812L6.78917 48.9069C5.92433 49.4728 5.20437 50.2336 4.6872 51.1283C4.17002 52.0229 3.87005 53.0264 3.81141 54.058V63.7812L0.0206299 61.5562V51.9041C0.0748961 50.874 0.372026 49.8713 0.88776 48.9779C1.40349 48.0844 2.12322 47.3255 2.98821 46.7631L82.1679 1.13435C82.4744 0.905893 82.8392 0.7685 83.2203 0.737948C83.6014 0.707396 83.9834 0.784925 84.3225 0.961629C84.8916 1.31723 87.3612 2.73964 87.9913 3.02412Z" fill="#4CAF4F"/>
<path id="Vector_5" d="M88.9669 5.05612C88.9669 3.17651 87.6254 2.42466 85.9891 3.36955L6.81964 48.9983C5.95633 49.5625 5.23789 50.3218 4.72238 51.2149C4.20686 52.108 3.90872 53.1098 3.85205 54.1393V63.8625L88.9669 14.7793V5.05612Z" fill="#4CAF4F"/>
<g id="Group_2" opacity="0.4">
<path id="Vector_6" opacity="0.4" d="M85.9892 3.31878L6.81966 48.9475C5.94829 49.5001 5.22869 50.2615 4.7261 51.1624L0.955627 48.9679C1.43696 48.0847 2.13677 47.3396 2.98822 46.8038L82.1578 1.17501C82.4678 0.950516 82.8332 0.814843 83.2147 0.782617C83.5961 0.750391 83.9792 0.822832 84.3225 0.992132C84.8509 1.32741 87.3205 2.7295 87.9506 3.02414C87.6241 2.91173 87.2753 2.87982 86.9338 2.93112C86.5923 2.98242 86.2682 3.11541 85.9892 3.31878Z" fill="white"/>
</g>
<path id="Vector_7" opacity="0.15" d="M0.0409546 61.6069V51.9447C0.0828943 50.8899 0.398062 49.8642 0.955617 48.9678L4.73625 51.1522C4.19021 52.0445 3.88553 53.0633 3.85207 54.1088V63.8218L0.0409546 61.6069Z" fill="#103E13"/>
<path id="Vector_8" d="M71.0496 16.09C70.5146 16.5132 70.0848 17.0544 69.7939 17.6713C69.503 18.2883 69.3588 18.9641 69.3727 19.646C69.3727 21.0684 70.1248 21.7999 71.0496 21.2614C71.5829 20.8367 72.0114 20.2952 72.3022 19.6786C72.5929 19.0621 72.7381 18.387 72.7265 17.7054C72.7265 16.2322 71.9745 15.5515 71.0496 16.09Z" fill="#455A64"/>
<path id="Vector_9" d="M77.0966 12.5846C76.5633 13.0094 76.1348 13.5509 75.8441 14.1675C75.5533 14.784 75.4081 15.4591 75.4197 16.1406C75.4197 17.5732 76.1718 18.2946 77.0966 17.7662C77.6329 17.3436 78.0642 16.8027 78.3568 16.1858C78.6495 15.569 78.7956 14.8928 78.7836 14.2102C78.7836 12.7776 78.0316 12.0563 77.0966 12.5846Z" fill="#455A64"/>
<path id="Vector_10" d="M83.1435 9.12025C82.6103 9.545 82.1817 10.0865 81.891 10.7031C81.6002 11.3196 81.4551 11.9947 81.4666 12.6763C81.4666 14.1088 82.2187 14.8302 83.1435 14.2917C83.6816 13.8706 84.1142 13.33 84.407 12.7128C84.6998 12.0956 84.8449 11.4187 84.8306 10.7357C84.8306 9.2828 84.0785 8.55128 83.1435 9.12025Z" fill="#455A64"/>
<path id="Vector_11" d="M4.93947 179.738L4.56345 179.524C4.26741 179.336 3.96215 179.164 3.64879 179.006L3.1508 178.722L2.37842 178.275L1.71782 177.899L1.35195 177.696C1.15493 177.599 0.981492 177.46 0.843803 177.289C0.675237 177.11 0.537841 176.904 0.437292 176.68C0.212307 176.189 0.0978187 175.655 0.101913 175.115V61.5967L3.89269 63.8217V177.238C3.91113 177.754 4.01768 178.262 4.20774 178.742C4.33656 179.037 4.52317 179.303 4.75654 179.524C4.7983 179.584 4.85414 179.633 4.91915 179.667L4.93947 179.738Z" fill="#37474F"/>
</g>
<g id="freepik  Code  inject 10">
<path id="Vector_12" d="M11.2914 67.9468C11.2961 67.8044 11.3344 67.6652 11.4032 67.5404L12.9886 64.2485C13.005 64.213 13.0293 64.1817 13.0597 64.1571C13.0683 64.1482 13.0785 64.1411 13.0899 64.1362C13.1012 64.1314 13.1135 64.1289 13.1258 64.1289C13.1382 64.1289 13.1504 64.1314 13.1617 64.1362C13.1731 64.1411 13.1833 64.1482 13.1919 64.1571C13.228 64.1993 13.2462 64.254 13.2427 64.3095V65.417C13.2551 65.5318 13.2551 65.6476 13.2427 65.7624C13.2427 65.8437 13.1817 65.9453 13.1309 66.057L12.2874 67.7944L13.1309 68.5666C13.1774 68.6176 13.2151 68.676 13.2427 68.7393C13.2573 68.8404 13.2573 68.943 13.2427 69.0441V70.0804C13.2403 70.1575 13.223 70.2334 13.1919 70.3039C13.1617 70.3653 13.1162 70.4178 13.0597 70.4563C13.0597 70.4563 13.0597 70.4563 12.9886 70.4563L11.4235 69.0644C11.3838 69.0314 11.3528 68.9891 11.3333 68.9412C11.3138 68.8934 11.3064 68.8415 11.3117 68.7901L11.2914 67.9468Z" fill="#4CAF4F"/>
<path id="Vector_13" d="M17.1046 59.7071C17.1296 59.5949 17.1671 59.4859 17.2164 59.382C17.2693 59.28 17.3504 59.1954 17.4501 59.1382L18.0497 58.7927C18.0497 58.7927 18.1412 58.7927 18.1717 58.7927C18.1919 58.8121 18.207 58.8361 18.2159 58.8627C18.2247 58.8892 18.227 58.9175 18.2225 58.9451C18.2275 58.9856 18.2275 59.0266 18.2225 59.0671L15.4887 70.68C15.4635 70.7889 15.426 70.8945 15.3769 70.9949C15.3269 71.1074 15.2411 71.2003 15.1329 71.2591L14.5638 71.5944C14.5462 71.6076 14.5248 71.6147 14.5028 71.6147C14.4809 71.6147 14.4595 71.6076 14.4419 71.5944C14.4209 71.5731 14.4046 71.5476 14.3941 71.5196C14.3836 71.4916 14.3791 71.4617 14.3809 71.4318C14.3776 71.3912 14.3776 71.3505 14.3809 71.3099L17.1046 59.7071Z" fill="#4CAF4F"/>
<path id="Vector_14" d="M21.312 62.9684C21.3074 63.114 21.2691 63.2566 21.2002 63.385L19.6148 66.6666L19.5437 66.7682C19.524 66.7809 19.5011 66.7877 19.4776 66.7877C19.4542 66.7877 19.4313 66.7809 19.4116 66.7682C19.3921 66.7158 19.3921 66.6581 19.4116 66.6057V65.4982C19.3985 65.3869 19.3985 65.2743 19.4116 65.163C19.4424 65.0577 19.4833 64.9557 19.5335 64.8582L20.3669 63.1208L19.5335 62.3588C19.483 62.3089 19.4417 62.2504 19.4116 62.1861C19.397 62.085 19.397 61.9824 19.4116 61.8813V60.7738C19.3985 60.6999 19.3985 60.6243 19.4116 60.5503C19.4417 60.489 19.4872 60.4365 19.5437 60.3979C19.5541 60.3905 19.5665 60.3865 19.5792 60.3865C19.592 60.3865 19.6045 60.3905 19.6148 60.3979L21.2002 61.8508C21.2401 61.886 21.271 61.9301 21.2904 61.9796C21.3099 62.029 21.3173 62.0824 21.312 62.1353V62.9684Z" fill="#4CAF4F"/>
<path id="Vector_15" d="M25.7228 62.2167C25.746 62.1986 25.7746 62.1887 25.8041 62.1887C25.8336 62.1887 25.8622 62.1986 25.8854 62.2167C25.9312 62.274 25.953 62.3468 25.9464 62.4199V63.6289C25.9457 63.7237 25.9249 63.8171 25.8854 63.9033C25.8476 63.9798 25.7918 64.046 25.7228 64.0963L24.9809 64.523C24.9602 64.5423 24.933 64.553 24.9047 64.553C24.8764 64.553 24.8491 64.5423 24.8285 64.523C24.802 64.4989 24.7817 64.4688 24.7693 64.4352C24.757 64.4016 24.7528 64.3655 24.7573 64.33V63.1108C24.7566 63.0147 24.7811 62.9201 24.8285 62.8365C24.8567 62.7598 24.9106 62.6952 24.9809 62.6536L25.7228 62.2167Z" fill="#4CAF4F"/>
<path id="Vector_16" d="M28.233 60.7738C28.2546 60.7565 28.2815 60.7471 28.3093 60.7471C28.337 60.7471 28.3638 60.7565 28.3855 60.7738C28.4312 60.8312 28.4531 60.904 28.4465 60.977V62.1861C28.4457 62.2808 28.425 62.3743 28.3855 62.4604C28.3572 62.537 28.3033 62.6016 28.233 62.6433L27.481 63.0801C27.4593 63.0975 27.4324 63.1069 27.4047 63.1069C27.377 63.1069 27.3501 63.0975 27.3285 63.0801C27.2827 63.0228 27.2609 62.95 27.2675 62.8769V61.6679C27.2682 61.5732 27.289 61.4797 27.3285 61.3936C27.3593 61.3157 27.4123 61.2485 27.481 61.2005L28.233 60.7738Z" fill="#4CAF4F"/>
<path id="Vector_17" d="M30.7331 59.3311C30.7555 59.3111 30.7844 59.3 30.8144 59.3C30.8444 59.3 30.8734 59.3111 30.8957 59.3311C30.9186 59.3574 30.9358 59.3881 30.9463 59.4213C30.9568 59.4545 30.9603 59.4895 30.9567 59.5241V60.7434C30.956 60.8381 30.9352 60.9316 30.8957 61.0177C30.8611 61.0935 30.8044 61.1572 30.7331 61.2006L29.9912 61.6374C29.9696 61.6548 29.9427 61.6642 29.915 61.6642C29.8873 61.6642 29.8604 61.6548 29.8388 61.6374C29.8121 61.6113 29.7919 61.5793 29.7796 61.5441C29.7672 61.5089 29.7631 61.4713 29.7676 61.4342V60.2252C29.7669 60.1291 29.7914 60.0345 29.8388 59.9509C29.8695 59.873 29.9226 59.8058 29.9912 59.7578L30.7331 59.3311Z" fill="#4CAF4F"/>
<path id="Vector_18" d="M11.9621 76.8065L63.2547 47.2204C63.6815 46.9766 64.0372 47.1493 64.0372 47.6167C64.0175 47.8795 63.9364 48.134 63.8005 48.3599C63.6646 48.5857 63.4777 48.7766 63.2547 48.9172L11.9926 78.5032C11.5556 78.7572 11.2101 78.5845 11.2101 78.107C11.2256 77.8467 11.3017 77.5936 11.4323 77.3678C11.5628 77.142 11.7443 76.9498 11.9621 76.8065Z" fill="#4CAF4F"/>
<path id="Vector_19" d="M23.741 90.4005L75.003 60.8144C75.4298 60.5706 75.7855 60.7433 75.7855 61.2107C75.7658 61.4749 75.6848 61.7308 75.549 61.9583C75.4131 62.1858 75.2262 62.3785 75.003 62.5213L23.741 92.1074C23.304 92.3512 22.9584 92.1785 22.9584 91.7111C22.9758 91.4463 23.0558 91.1894 23.1918 90.9616C23.3279 90.7337 23.5161 90.5414 23.741 90.4005Z" fill="#C8E6C9"/>
<path id="Vector_20" d="M23.741 97.2078L55.8559 78.6759C56.2929 78.4219 56.6385 78.5946 56.6385 79.0722C56.6196 79.3352 56.5388 79.59 56.4029 79.816C56.2669 80.042 56.0795 80.2327 55.8559 80.3726L23.741 98.9045C23.304 99.1484 22.9584 98.9757 22.9584 98.5083C22.9757 98.2449 23.0558 97.9894 23.1919 97.7632C23.328 97.5369 23.5163 97.3465 23.741 97.2078Z" fill="#C8E6C9"/>
<path id="Vector_21" d="M23.741 104.005L55.8559 85.473C56.2929 85.219 56.6385 85.4019 56.6385 85.8692C56.6196 86.1322 56.5388 86.3871 56.4029 86.6131C56.2669 86.839 56.0795 87.0298 55.8559 87.1697L23.741 105.702C23.304 105.956 22.9584 105.773 22.9584 105.305C22.9757 105.042 23.0558 104.786 23.1919 104.56C23.328 104.334 23.5163 104.144 23.741 104.005Z" fill="#C8E6C9"/>
<path id="Vector_22" d="M66.3035 45.4627L80.928 36.9892C81.365 36.7454 81.7106 36.9181 81.7106 37.3855C81.6932 37.6503 81.6132 37.9071 81.4771 38.135C81.3411 38.3628 81.1529 38.5552 80.928 38.6961L66.3035 47.1696C65.8665 47.4134 65.5209 47.2407 65.5209 46.7733C65.5383 46.5086 65.6183 46.2517 65.7544 46.0238C65.8904 45.796 66.0786 45.6037 66.3035 45.4627Z" fill="#4CAF4F"/>
<path id="Vector_23" d="M24.6353 144.361L63.2546 122.009C63.6815 121.755 64.0372 121.937 64.0372 122.405C64.0159 122.667 63.9342 122.921 63.7984 123.147C63.6627 123.372 63.4766 123.564 63.2546 123.705L24.6353 146.057C24.1983 146.301 23.8528 146.129 23.8528 145.661C23.8733 145.399 23.9547 145.144 24.0905 144.919C24.2263 144.693 24.4129 144.502 24.6353 144.361Z" fill="#4CAF4F"/>
<path id="Vector_24" d="M66.3035 120.241L80.8873 111.737C81.3244 111.483 81.6699 111.666 81.6699 112.133C81.6526 112.396 81.5725 112.652 81.4364 112.878C81.3003 113.104 81.112 113.295 80.8873 113.433L66.3035 121.897C65.8665 122.151 65.5209 121.968 65.5209 121.5C65.546 121.245 65.6296 120.998 65.7653 120.779C65.901 120.561 66.0851 120.377 66.3035 120.241Z" fill="#4CAF4F"/>
<path id="Vector_25" d="M31.1905 120.058L80.8874 91.4065C81.3244 91.1626 81.6699 91.3353 81.6699 91.8027C81.6526 92.0675 81.5726 92.3244 81.4365 92.5522C81.3005 92.7801 81.1123 92.9724 80.8874 93.1133L31.1905 121.765C30.7636 122.009 30.4079 121.836 30.4079 121.358C30.4292 121.096 30.5109 120.842 30.6467 120.616C30.7824 120.391 30.9685 120.2 31.1905 120.058Z" fill="#4CAF4F"/>
<path id="Vector_26" d="M18.7205 134.292L80.8873 98.2036C81.3243 97.9597 81.6699 98.1325 81.6699 98.5998C81.6525 98.8646 81.5725 99.1215 81.4365 99.3494C81.3004 99.5772 81.1122 99.7695 80.8873 99.9105L18.7205 135.989C18.2936 136.243 17.9379 136.06 17.9379 135.593C17.9577 135.33 18.0387 135.075 18.1746 134.849C18.3105 134.623 18.4975 134.433 18.7205 134.292Z" fill="#4CAF4F"/>
<path id="Vector_27" d="M21.6474 139.281L63.2546 115.201C63.6815 114.958 64.0372 115.13 64.0372 115.598C64.0174 115.862 63.9364 116.118 63.8006 116.345C63.6648 116.573 63.4778 116.766 63.2546 116.908L21.6779 140.988C21.2409 141.231 20.8954 141.059 20.8954 140.591C20.9094 140.329 20.9847 140.074 21.1153 139.847C21.246 139.619 21.4282 139.425 21.6474 139.281Z" fill="#E8F5E9"/>
<path id="Vector_28" d="M18.7205 127.241L26.9423 122.496C27.3692 122.242 27.7249 122.425 27.7249 122.892C27.7051 123.155 27.6241 123.41 27.4882 123.636C27.3523 123.861 27.1653 124.052 26.9423 124.193L18.7205 128.938C18.2936 129.192 17.9379 129.009 17.9379 128.541C17.9552 128.278 18.0353 128.022 18.1714 127.796C18.3075 127.57 18.4958 127.38 18.7205 127.241Z" fill="#4CAF4F"/>
<path id="Vector_29" d="M11.9621 83.6239L47.9187 62.8568C48.3557 62.6028 48.7114 62.7856 48.7114 63.253C48.6922 63.5172 48.6102 63.7729 48.4724 63.9991C48.3345 64.2253 48.1447 64.4153 47.9187 64.5535L11.9621 85.3206C11.5251 85.5746 11.1796 85.3917 11.1796 84.9244C11.1969 84.661 11.2769 84.4055 11.4131 84.1792C11.5492 83.953 11.7374 83.7626 11.9621 83.6239Z" fill="#4CAF4F"/>
<path id="Vector_30" opacity="0.6" d="M11.9621 83.6239L47.9187 62.8568C48.3557 62.6028 48.7114 62.7856 48.7114 63.253C48.6922 63.5172 48.6102 63.7729 48.4724 63.9991C48.3345 64.2253 48.1447 64.4153 47.9187 64.5535L11.9621 85.3206C11.5251 85.5746 11.1796 85.3917 11.1796 84.9244C11.1969 84.661 11.2769 84.4055 11.4131 84.1792C11.5492 83.953 11.7374 83.7626 11.9621 83.6239Z" fill="white"/>
<path id="Vector_31" d="M11.9621 90.4006L19.2286 86.2045C19.6555 85.9505 20.0112 86.1232 20.0112 86.6007C19.9899 86.8631 19.9082 87.1171 19.7725 87.3427C19.6367 87.5683 19.4506 87.7595 19.2286 87.9012L11.9621 92.0973C11.5251 92.3513 11.1796 92.1684 11.1796 91.7011C11.1969 91.4376 11.2769 91.1822 11.4131 90.9559C11.5492 90.7297 11.7374 90.5393 11.9621 90.4006Z" fill="#4CAF4F"/>
<path id="Vector_32" opacity="0.6" d="M11.9621 90.4006L19.2286 86.2045C19.6555 85.9505 20.0112 86.1232 20.0112 86.6007C19.9899 86.8631 19.9082 87.1171 19.7725 87.3427C19.6367 87.5683 19.4506 87.7595 19.2286 87.9012L11.9621 92.0973C11.5251 92.3513 11.1796 92.1684 11.1796 91.7011C11.1969 91.4376 11.2769 91.1822 11.4131 90.9559C11.5492 90.7297 11.7374 90.5393 11.9621 90.4006Z" fill="white"/>
<path id="Vector_33" d="M11.9621 97.2079L19.2286 93.0118C19.6555 92.7578 20.0112 92.9407 20.0112 93.408C19.9899 93.6705 19.9082 93.9244 19.7725 94.15C19.6367 94.3756 19.4506 94.5668 19.2286 94.7085L11.9621 98.9046C11.5251 99.1586 11.1796 98.9757 11.1796 98.5084C11.1969 98.2449 11.2769 97.9895 11.4131 97.7632C11.5492 97.537 11.7374 97.3466 11.9621 97.2079Z" fill="#4CAF4F"/>
<path id="Vector_34" opacity="0.6" d="M11.9621 97.2079L19.2286 93.0118C19.6555 92.7578 20.0112 92.9407 20.0112 93.408C19.9899 93.6705 19.9082 93.9244 19.7725 94.15C19.6367 94.3756 19.4506 94.5668 19.2286 94.7085L11.9621 98.9046C11.5251 99.1586 11.1796 98.9757 11.1796 98.5084C11.1969 98.2449 11.2769 97.9895 11.4131 97.7632C11.5492 97.537 11.7374 97.3466 11.9621 97.2079Z" fill="white"/>
<path id="Vector_35" d="M11.9621 104.005L19.2286 99.8089C19.6555 99.5549 20.0112 99.7378 20.0112 100.205C19.9899 100.468 19.9082 100.722 19.7725 100.947C19.6367 101.173 19.4506 101.364 19.2286 101.506L11.9621 105.702C11.5251 105.956 11.1796 105.773 11.1796 105.305C11.1985 105.042 11.2792 104.788 11.4152 104.562C11.5512 104.336 11.7386 104.145 11.9621 104.005Z" fill="#4CAF4F"/>
<path id="Vector_36" opacity="0.6" d="M11.9621 104.005L19.2286 99.8089C19.6555 99.5549 20.0112 99.7378 20.0112 100.205C19.9899 100.468 19.9082 100.722 19.7725 100.947C19.6367 101.173 19.4506 101.364 19.2286 101.506L11.9621 105.702C11.5251 105.956 11.1796 105.773 11.1796 105.305C11.1985 105.042 11.2792 104.788 11.4152 104.562C11.5512 104.336 11.7386 104.145 11.9621 104.005Z" fill="white"/>
<path id="Vector_37" d="M11.9621 110.802L19.2286 106.606C19.6555 106.352 20.0112 106.535 20.0112 107.002C19.9899 107.264 19.9082 107.518 19.7725 107.744C19.6367 107.97 19.4506 108.161 19.2286 108.303L11.9621 112.499C11.5251 112.753 11.1796 112.57 11.1796 112.102C11.1985 111.839 11.2792 111.585 11.4152 111.359C11.5512 111.133 11.7386 110.942 11.9621 110.802Z" fill="#4CAF4F"/>
<path id="Vector_38" opacity="0.6" d="M11.9621 110.802L19.2286 106.606C19.6555 106.352 20.0112 106.535 20.0112 107.002C19.9899 107.264 19.9082 107.518 19.7725 107.744C19.6367 107.97 19.4506 108.161 19.2286 108.303L11.9621 112.499C11.5251 112.753 11.1796 112.57 11.1796 112.102C11.1985 111.839 11.2792 111.585 11.4152 111.359C11.5512 111.133 11.7386 110.942 11.9621 110.802Z" fill="white"/>
<path id="Vector_39" d="M23.741 151.828L55.8559 133.296C56.2929 133.042 56.6385 133.225 56.6385 133.693C56.6196 133.956 56.5388 134.211 56.4029 134.437C56.2669 134.663 56.0795 134.853 55.8559 134.993L23.741 153.525C23.304 153.779 22.9584 153.596 22.9584 153.129C22.9757 152.865 23.0558 152.61 23.1919 152.384C23.328 152.158 23.5163 151.967 23.741 151.828Z" fill="#C8E6C9"/>
<path id="Vector_40" d="M23.741 158.625L55.8559 140.093C56.2929 139.839 56.6385 140.022 56.6385 140.49C56.6212 140.753 56.5411 141.008 56.405 141.235C56.2689 141.461 56.0806 141.651 55.8559 141.79L23.741 160.322C23.304 160.576 22.9584 160.393 22.9584 159.926C22.9774 159.663 23.0581 159.408 23.1941 159.182C23.33 158.956 23.5174 158.765 23.741 158.625Z" fill="#C8E6C9"/>
<path id="Vector_41" d="M60.531 130.594L80.7146 118.981C81.1516 118.737 81.4971 118.91 81.4971 119.377C81.4798 119.642 81.3998 119.899 81.2637 120.127C81.1277 120.355 80.9395 120.547 80.7146 120.688L60.531 132.291C60.1041 132.545 59.7484 132.362 59.7484 131.894C59.7681 131.632 59.8492 131.377 59.9851 131.151C60.121 130.925 60.308 130.734 60.531 130.594Z" fill="#C8E6C9"/>
<path id="Vector_42" d="M60.531 137.391L80.7146 125.778C81.1516 125.534 81.4971 125.707 81.4971 126.184C81.4782 126.447 81.3975 126.702 81.2615 126.928C81.1255 127.154 80.9382 127.345 80.7146 127.485L60.531 139.088C60.1041 139.342 59.7484 139.159 59.7484 138.691C59.7697 138.429 59.8514 138.175 59.9872 137.949C60.1229 137.724 60.309 137.533 60.531 137.391Z" fill="#C8E6C9"/>
<path id="Vector_43" d="M11.9621 158.625L19.2286 154.429C19.6555 154.175 20.0112 154.358 20.0112 154.826C19.9915 155.088 19.9104 155.343 19.7745 155.569C19.6386 155.795 19.4517 155.985 19.2286 156.126L11.9621 160.322C11.5251 160.576 11.1796 160.403 11.1796 159.926C11.1985 159.663 11.2792 159.408 11.4152 159.182C11.5512 158.956 11.7386 158.765 11.9621 158.625Z" fill="#4CAF4F"/>
<path id="Vector_44" opacity="0.6" d="M11.9621 158.625L19.2286 154.429C19.6555 154.175 20.0112 154.358 20.0112 154.826C19.9915 155.088 19.9104 155.343 19.7745 155.569C19.6386 155.795 19.4517 155.985 19.2286 156.126L11.9621 160.322C11.5251 160.576 11.1796 160.403 11.1796 159.926C11.1985 159.663 11.2792 159.408 11.4152 159.182C11.5512 158.956 11.7386 158.765 11.9621 158.625Z" fill="white"/>
<path id="Vector_45" d="M11.9621 165.422L19.2286 161.226C19.6555 160.982 20.0112 161.155 20.0112 161.623C19.9915 161.885 19.9104 162.14 19.7745 162.366C19.6386 162.592 19.4517 162.782 19.2286 162.923L11.9621 167.129C11.5251 167.373 11.1796 167.2 11.1796 166.733C11.1969 166.468 11.2769 166.211 11.413 165.984C11.549 165.756 11.7372 165.563 11.9621 165.422Z" fill="#4CAF4F"/>
<path id="Vector_46" opacity="0.6" d="M11.9621 165.422L19.2286 161.226C19.6555 160.982 20.0112 161.155 20.0112 161.623C19.9915 161.885 19.9104 162.14 19.7745 162.366C19.6386 162.592 19.4517 162.782 19.2286 162.923L11.9621 167.129C11.5251 167.373 11.1796 167.2 11.1796 166.733C11.1969 166.468 11.2769 166.211 11.413 165.984C11.549 165.756 11.7372 165.563 11.9621 165.422Z" fill="white"/>
<path id="Vector_47" d="M50.9676 61.0991L60.2769 55.7447C60.7037 55.4907 61.0594 55.6736 61.0594 56.1409C61.0397 56.4038 60.9586 56.6583 60.8227 56.8842C60.6868 57.11 60.4999 57.3009 60.2769 57.4414L50.9676 62.7958C50.5306 63.0498 50.1749 62.8771 50.1749 62.3995C50.1957 62.1358 50.2783 61.8807 50.416 61.6548C50.5537 61.4288 50.7427 61.2385 50.9676 61.0991Z" fill="#4CAF4F"/>
<path id="Vector_48" opacity="0.6" d="M50.9676 61.0991L60.2769 55.7447C60.7037 55.4907 61.0594 55.6736 61.0594 56.1409C61.0397 56.4038 60.9586 56.6583 60.8227 56.8842C60.6868 57.11 60.4999 57.3009 60.2769 57.4414L50.9676 62.7958C50.5306 63.0498 50.1749 62.8771 50.1749 62.3995C50.1957 62.1358 50.2783 61.8807 50.416 61.6548C50.5537 61.4288 50.7427 61.2385 50.9676 61.0991Z" fill="white"/>
<path id="Vector_49" d="M23.182 111.066L68.5393 84.9244C68.9662 84.6704 69.3219 84.8533 69.3219 85.3206C69.3022 85.5835 69.2211 85.838 69.0852 86.0638C68.9493 86.2897 68.7624 86.4805 68.5393 86.6211L23.182 112.753C22.7552 113.007 22.3995 112.824 22.3995 112.357C22.4207 112.095 22.5025 111.843 22.6384 111.619C22.7742 111.395 22.9603 111.206 23.182 111.066Z" fill="#E8F5E9"/>
<path id="Vector_50" d="M11.9621 124.508L80.8874 84.6195C81.3244 84.3655 81.6699 84.5483 81.6699 85.0157C81.6526 85.2791 81.5726 85.5346 81.4364 85.7608C81.3003 85.9871 81.1121 86.1775 80.8874 86.3162L11.9621 126.205C11.5251 126.459 11.1796 126.276 11.1796 125.808C11.1969 125.545 11.2769 125.289 11.4131 125.063C11.5492 124.837 11.7374 124.647 11.9621 124.508Z" fill="#E8F5E9"/>
<path id="Vector_51" d="M71.5781 83.1667L80.8874 77.8123C81.3244 77.5583 81.6699 77.7412 81.6699 78.2086C81.6526 78.472 81.5725 78.7275 81.4364 78.9537C81.3003 79.1799 81.112 79.3703 80.8874 79.5091L71.5781 84.8736C71.1411 85.1174 70.7955 84.9447 70.7955 84.4672C70.8145 84.2041 70.8952 83.9493 71.0312 83.7233C71.1671 83.4974 71.3545 83.3066 71.5781 83.1667Z" fill="#E8F5E9"/>
<path id="Vector_52" d="M23.741 83.6137L59.6976 62.8465C60.1346 62.5925 60.4903 62.7754 60.4903 63.2427C60.4695 63.5065 60.3868 63.7616 60.2491 63.9875C60.1114 64.2135 59.9225 64.4038 59.6976 64.5432L23.741 85.3205C23.304 85.5745 22.9483 85.3917 22.9483 84.9243C22.966 84.6584 23.0472 84.4006 23.1851 84.1725C23.323 83.9445 23.5137 83.7528 23.741 83.6137Z" fill="#4CAF4F"/>
<path id="Vector_53" opacity="0.6" d="M23.741 83.6137L59.6976 62.8465C60.1346 62.5925 60.4903 62.7754 60.4903 63.2427C60.4695 63.5065 60.3868 63.7616 60.2491 63.9875C60.1114 64.2135 59.9225 64.4038 59.6976 64.5432L23.741 85.3205C23.304 85.5745 22.9483 85.3917 22.9483 84.9243C22.966 84.6584 23.0472 84.4006 23.1851 84.1725C23.323 83.9445 23.5137 83.7528 23.741 83.6137Z" fill="white"/>
<path id="Vector_54" d="M62.7464 61.0889L72.0557 55.7345C72.4826 55.4805 72.8382 55.6532 72.8382 56.1307C72.817 56.3932 72.7353 56.6471 72.5995 56.8727C72.4638 57.0983 72.2776 57.2895 72.0557 57.4312L62.7464 62.7856C62.3094 63.0396 61.9537 62.8567 61.9537 62.3894C61.9746 62.1256 62.0572 61.8705 62.1949 61.6446C62.3326 61.4186 62.5215 61.2283 62.7464 61.0889Z" fill="#4CAF4F"/>
<path id="Vector_55" opacity="0.6" d="M62.7464 61.0889L72.0557 55.7345C72.4826 55.4805 72.8382 55.6532 72.8382 56.1307C72.817 56.3932 72.7353 56.6471 72.5995 56.8727C72.4638 57.0983 72.2776 57.2895 72.0557 57.4312L62.7464 62.7856C62.3094 63.0396 61.9537 62.8567 61.9537 62.3894C61.9746 62.1256 62.0572 61.8705 62.1949 61.6446C62.3326 61.4186 62.5215 61.2283 62.7464 61.0889Z" fill="white"/>
</g>
</g>
</svg>
