<svg width="73" height="161" viewBox="0 0 73 161" fill="none" xmlns="http://www.w3.org/2000/svg">
<g id="freepik  Bottom  inject 10">
<path id="Vector" d="M70.5926 133.394C71.3142 134.816 71.6373 136.406 71.5276 137.997C71.4564 139.389 70.623 141.197 70.9991 144.337C71.3751 147.476 72.0967 148.472 72.4321 150.687C72.629 151.703 72.6217 152.748 72.4106 153.762C72.1995 154.775 71.7888 155.736 71.2024 156.59C69.9015 158.703 67.0355 160.379 61.3646 160.176C56.7913 160.014 54.9416 157.667 54.84 154.974L70.5926 133.394Z" fill="#263238"/>
<path id="Vector_2" d="M69.2917 126.912C69.4323 127.496 69.5241 128.091 69.5661 128.69C69.7388 129.757 70.0539 130.722 70.308 131.809C70.3791 132.083 70.4401 132.358 70.5011 132.632C70.9381 134.735 70.5011 136.91 70.5011 139.053C70.6765 141.586 71.1229 144.093 71.8324 146.531C72.8487 150.981 73.0215 153.958 69.1291 157.037C67.0965 158.662 64.8301 158.713 62.2284 158.784C60.2276 158.854 58.2457 158.376 56.4965 157.402C54.8298 156.173 54.8501 155.137 54.8399 154.74C54.6875 150.016 56.3949 144.519 56.7404 139.805C56.8689 138.536 56.8961 137.258 56.8217 135.985C56.6591 134.42 56.1205 132.866 55.9477 131.291C55.8264 130.704 55.9014 130.094 56.1611 129.554C56.4239 129.255 56.7476 129.016 57.1105 128.853C57.4734 128.69 57.867 128.607 58.2648 128.609C60.2974 128.334 62.4113 128.131 64.4947 127.979C64.9847 127.886 65.4917 127.988 65.9074 128.263C66.3139 128.629 66.3241 129.279 66.4359 129.777C66.5477 130.275 66.9339 130.915 67.4522 130.793C67.6236 130.738 67.7748 130.633 67.8869 130.492C67.999 130.351 68.067 130.18 68.0823 130.001C68.1331 129.655 68.2855 126.953 68.2754 126.556C68.316 126.577 69.0478 126.465 69.2917 126.912Z" fill="#37474F"/>
<path id="Vector_3" d="M0.468074 142.589C0.133363 143.424 0.133363 144.355 0.468074 145.19C0.803452 145.962 4.67555 148.36 10.0314 148.238C13.9947 148.111 17.853 146.933 21.2107 144.824C23.2941 143.554 25.4283 143.392 28.0809 143.341C30.7334 143.29 33.8433 142.325 34.7478 141.136C35.088 139.972 35.088 138.734 34.7478 137.57L0.468074 142.589Z" fill="#263238"/>
<path id="Vector_4" d="M19.8591 126.77C19.6537 127.152 19.4705 127.545 19.3103 127.948C18.6537 129.4 17.6397 130.662 16.363 131.616C14.5151 132.894 12.5314 133.964 10.4482 134.806C9.12701 135.396 7.74484 135.558 6.38301 136.026C4.87352 136.509 3.41897 137.149 2.0434 137.936C-0.11115 139.257 -0.517649 142.802 1.80967 144.306C3.84226 145.596 9.19814 147.131 14.9504 145.749C18.0907 144.997 21.6579 141.817 25.7434 141.685C28.335 141.593 33.264 141.065 35.0121 139.165C35.6523 136.33 34.9511 135.528 34.3718 133.069C34.062 131.709 33.8985 130.319 33.884 128.924C33.884 128.192 34.3718 126.089 32.8677 125.876L32.7153 127.451C32.7153 127.451 32.4205 127.979 30.8148 128.263C30.2964 128.355 29.8899 129.036 29.6155 129.655C29.3411 130.275 29.1684 130.753 28.5992 130.742C28.4217 130.718 28.254 130.646 28.113 130.536C27.972 130.425 27.8628 130.279 27.7964 130.112C27.6739 129.781 27.5754 129.442 27.5016 129.096C27.2961 128.543 26.9723 128.041 26.5528 127.625C26.1334 127.209 25.6282 126.889 25.0727 126.689C24.1511 126.377 23.1959 126.176 22.2271 126.089C21.4953 125.977 20.8856 125.662 20.1945 126.292C20.0623 126.436 19.9495 126.597 19.8591 126.77Z" fill="#37474F"/>
<path id="Vector_5" d="M61.5576 5.92626C62.5739 21.4407 63.1126 30.4729 65.8871 72.8098C67.9288 80.0556 69.2262 87.4905 69.7591 94.9994C70.3079 104.367 71.6393 132.592 71.6393 132.592C71.6393 132.592 64.0882 138.789 55.3786 135.924C55.3786 135.924 47.4718 94.4304 44.7075 81.4865C42.0651 69.0608 40.0325 55.4768 40.0325 55.4768L38.071 72.8098C38.071 72.8098 38.4166 80.5213 38.1727 92.0327C38.0507 98.1896 35.1238 131.515 35.1238 131.515C35.1238 131.515 24.5238 136.33 17.3691 130.143C17.3691 130.143 16.8508 76.1017 16.739 70.534C16.617 64.1738 17.7553 0.216309 17.7553 0.216309L61.5576 5.92626Z" fill="#455A64"/>
<path id="Vector_6" d="M39.9919 55.487L34.575 27.11C34.575 27.11 26.2007 26.3785 21.5765 21.7048C21.5765 21.7048 22.3998 26.287 32.9286 29.0302L38.1625 55.1618L38.0711 72.8098L39.9919 55.487Z" fill="#37474F"/>
<path id="Vector_7" d="M71.3954 127.501C68.1763 130.288 64.0364 131.78 59.7792 131.687C59.7792 131.687 66.9949 130.61 71.3243 125.855L71.3954 127.501Z" fill="#37474F"/>
<path id="Vector_8" d="M35.4592 127.583C35.4592 127.583 28.0707 130.163 21.8408 128.192C21.8408 128.192 26.6479 131.423 35.3474 128.772L35.4592 127.583Z" fill="#37474F"/>
</g>
</svg>
