<svg width="1440" height="1400" viewBox="0 0 1440 1400" fill="none" xmlns="http://www.w3.org/2000/svg">
<rect width="1440" height="1400" fill="white"/>
<path d="M517 279L519.293 281.293C519.683 281.683 520.317 281.683 520.707 281.293L523 279M510 285L510 275C510 272.239 512.239 270 515 270L525 270C527.761 270 530 272.239 530 275V285C530 287.761 527.761 290 525 290H515C512.239 290 510 287.761 510 285Z" stroke="#717171" stroke-width="1.5" stroke-linecap="round"/>
<path d="M571 281L568.707 278.707C568.317 278.317 567.683 278.317 567.293 278.707L565 281M578 275V285C578 287.761 575.761 290 573 290H563C560.239 290 558 287.761 558 285L558 275C558 272.239 560.239 270 563 270L573 270C575.761 270 578 272.239 578 275Z" stroke="#717171" stroke-width="1.5" stroke-linecap="round"/>
<path d="M615 277L617.293 279.293C617.683 279.683 617.683 280.317 617.293 280.707L615 283M621 290H611C608.239 290 606 287.761 606 285V275C606 272.239 608.239 270 611 270H621C623.761 270 626 272.239 626 275V285C626 287.761 623.761 290 621 290Z" stroke="#717171" stroke-width="1.5" stroke-linecap="round"/>
<path d="M665 277L662.707 279.293C662.317 279.683 662.317 280.317 662.707 280.707L665 283M659 290H669C671.761 290 674 287.761 674 285V275C674 272.239 671.761 270 669 270H659C656.239 270 654 272.239 654 275V285C654 287.761 656.239 290 659 290Z" stroke="#717171" stroke-width="1.5" stroke-linecap="round"/>
<path d="M709 281L711.293 283.293C711.683 283.683 712.317 283.683 712.707 283.293L715 281M712 283V276M702 285L702 275C702 272.239 704.239 270 707 270L717 270C719.761 270 722 272.239 722 275V285C722 287.761 719.761 290 717 290H707C704.239 290 702 287.761 702 285Z" stroke="#717171" stroke-width="1.5" stroke-linecap="round"/>
<path d="M757 279L759.293 276.707C759.683 276.317 760.317 276.317 760.707 276.707L763 279M760 277V284M770 275V285C770 287.761 767.761 290 765 290H755C752.239 290 750 287.761 750 285L750 275C750 272.239 752.239 270 755 270L765 270C767.761 270 770 272.239 770 275Z" stroke="#717171" stroke-width="1.5" stroke-linecap="round"/>
<path d="M809 283L811.293 280.707C811.683 280.317 811.683 279.683 811.293 279.293L809 277M811 280L804 280M813 290H803C800.239 290 798 287.761 798 285V275C798 272.239 800.239 270 803 270H813C815.761 270 818 272.239 818 275V285C818 287.761 815.761 290 813 290Z" stroke="#717171" stroke-width="1.5" stroke-linecap="round"/>
<path d="M855 277L852.707 279.293C852.317 279.683 852.317 280.317 852.707 280.707L855 283M853 280H860M851 290H861C863.761 290 866 287.761 866 285V275C866 272.239 863.761 270 861 270H851C848.239 270 846 272.239 846 275V285C846 287.761 848.239 290 851 290Z" stroke="#717171" stroke-width="1.5" stroke-linecap="round"/>
<path d="M900.8 278.7L903.317 281.411C903.713 281.837 904.387 281.837 904.783 281.411L907.3 278.7M894 280C894 285.523 898.477 290 904 290C909.523 290 914 285.523 914 280C914 274.477 909.523 270 904 270C898.477 270 894 274.477 894 280Z" stroke="#717171" stroke-width="1.5" stroke-linecap="round"/>
<path d="M948.8 281.3L951.317 278.589C951.713 278.163 952.387 278.163 952.783 278.589L955.3 281.3M942 280C942 274.477 946.477 270 952 270C957.523 270 962 274.477 962 280C962 285.523 957.523 290 952 290C946.477 290 942 285.523 942 280Z" stroke="#717171" stroke-width="1.5" stroke-linecap="round"/>
<path d="M1097 283L1099.29 280.707C1099.68 280.317 1099.68 279.683 1099.29 279.293L1097 277M1099 280L1092 280M1096 290C1101.52 290 1106 285.523 1106 280C1106 274.477 1101.52 270 1096 270C1090.48 270 1086 274.477 1086 280C1086 285.523 1090.48 290 1096 290Z" stroke="#717171" stroke-width="1.5" stroke-linecap="round"/>
<path d="M1143 277L1140.71 279.293C1140.32 279.683 1140.32 280.317 1140.71 280.707L1143 283M1141 280H1148M1144 270C1138.48 270 1134 274.477 1134 280C1134 285.523 1138.48 290 1144 290C1149.52 290 1154 285.523 1154 280C1154 274.477 1149.52 270 1144 270Z" stroke="#717171" stroke-width="1.5" stroke-linecap="round"/>
<path d="M1189 281L1191.29 283.293C1191.68 283.683 1192.32 283.683 1192.71 283.293L1195 281M1192 283V276M1182 280C1182 285.523 1186.48 290 1192 290C1197.52 290 1202 285.523 1202 280C1202 274.477 1197.52 270 1192 270C1186.48 270 1182 274.477 1182 280Z" stroke="#717171" stroke-width="1.5" stroke-linecap="round"/>
<path d="M1237 279L1239.29 276.707C1239.68 276.317 1240.32 276.317 1240.71 276.707L1243 279M1240 277V284M1230 280C1230 274.477 1234.48 270 1240 270C1245.52 270 1250 274.477 1250 280C1250 285.523 1245.52 290 1240 290C1234.48 290 1230 285.523 1230 280Z" stroke="#717171" stroke-width="1.5" stroke-linecap="round"/>
<path d="M1286.59 277.172H1289.83C1290.38 277.172 1290.83 277.619 1290.83 278.172V281.414M1290.12 277.879L1285.17 282.828M1278 280C1278 274.477 1282.48 270 1288 270C1293.52 270 1298 274.477 1298 280C1298 285.523 1293.52 290 1288 290C1282.48 290 1278 285.523 1278 280Z" stroke="#717171" stroke-width="1.5" stroke-linecap="round"/>
<path d="M1337.41 277.172H1334.17C1333.62 277.172 1333.17 277.619 1333.17 278.172V281.414M1333.88 277.879L1338.83 282.828M1346 280C1346 274.477 1341.52 270 1336 270C1330.48 270 1326 274.477 1326 280C1326 285.523 1330.48 290 1336 290C1341.52 290 1346 285.523 1346 280Z" stroke="#717171" stroke-width="1.5" stroke-linecap="round"/>
<path d="M518.586 330.828H521.828C522.381 330.828 522.828 330.381 522.828 329.828V326.586M522.121 330.121L517.172 325.172M510 328C510 333.523 514.477 338 520 338C525.523 338 530 333.523 530 328C530 322.477 525.523 318 520 318C514.477 318 510 322.477 510 328Z" stroke="#717171" stroke-width="1.5" stroke-linecap="round"/>
<path d="M569.414 330.828H566.172C565.619 330.828 565.172 330.381 565.172 329.828V326.586M565.879 330.121L570.828 325.172M578 328C578 333.523 573.523 338 568 338C562.477 338 558 333.523 558 328C558 322.477 562.477 318 568 318C573.523 318 578 322.477 578 328Z" stroke="#717171" stroke-width="1.5" stroke-linecap="round"/>
<path d="M612 332L615.293 335.293C615.683 335.683 616.317 335.683 616.707 335.293L620 332M616 335L616 321" stroke="#717171" stroke-width="1.5" stroke-linecap="round"/>
<path d="M513 499.25L515.47 501.72C515.763 502.013 516.238 502.013 516.53 501.72L519 499.25M516 501.5V490.5" stroke="#717171" stroke-width="1.1" stroke-linecap="round"/>
<path d="M551 492.75L548.53 490.28C548.237 489.987 547.762 489.987 547.47 490.28L545 492.75M548 490.5L548 501.5" stroke="#717171" stroke-width="1.1" stroke-linecap="round"/>
<path d="M583.25 499L585.72 496.53C586.013 496.238 586.013 495.763 585.72 495.47L583.25 493M585.5 496L574.5 496" stroke="#717171" stroke-width="1.1" stroke-linecap="round"/>
<path d="M608.75 493L606.28 495.47C605.987 495.762 605.987 496.237 606.28 496.53L608.75 499M606.5 496L617.5 496" stroke="#717171" stroke-width="1.1" stroke-linecap="round"/>
<path d="M643.759 491.736H640.266C639.852 491.736 639.516 492.072 639.516 492.486L639.516 495.979M640.047 492.266L647.825 500.044" stroke="#717171" stroke-width="1.1" stroke-linecap="round"/>
<path d="M680.044 495.978V492.486C680.044 492.072 679.708 491.736 679.294 491.736L675.802 491.736M679.514 492.266L671.736 500.044" stroke="#717171" stroke-width="1.1" stroke-linecap="round"/>
<path d="M703.516 496.021V499.514C703.516 499.928 703.852 500.264 704.266 500.264L707.759 500.264M704.046 499.734L711.825 491.955" stroke="#717171" stroke-width="1.1" stroke-linecap="round"/>
<path d="M739.802 500.264H743.294C743.709 500.264 744.044 499.928 744.044 499.514L744.044 496.021M743.514 499.734L735.736 491.955" stroke="#717171" stroke-width="1.1" stroke-linecap="round"/>
<path d="M660 324L663.293 320.707C663.683 320.317 664.317 320.317 664.707 320.707L668 324M664 321L664 335" stroke="#717171" stroke-width="1.5" stroke-linecap="round"/>
<path d="M716 332L719.293 328.707C719.683 328.317 719.683 327.683 719.293 327.293L716 324M719 328L705 328" stroke="#717171" stroke-width="1.5" stroke-linecap="round"/>
<path d="M756 324L752.707 327.293C752.316 327.683 752.316 328.317 752.707 328.707L756 332M753 328L767 328" stroke="#717171" stroke-width="1.5" stroke-linecap="round"/>
<path d="M807.854 322.697L803.197 322.697C802.644 322.697 802.197 323.145 802.197 323.697L802.197 328.354M802.904 323.404L812.803 333.303" stroke="#717171" stroke-width="1.5" stroke-linecap="round"/>
<path d="M903.854 333.303H899.197C898.644 333.303 898.197 332.855 898.197 332.303L898.197 327.646M898.904 332.596L908.803 322.696" stroke="#717171" stroke-width="1.5" stroke-linecap="round"/>
<path d="M856.147 322.697L860.803 322.697C861.356 322.697 861.803 323.144 861.803 323.697V328.354M861.096 323.404L851.197 333.303" stroke="#717171" stroke-width="1.5" stroke-linecap="round"/>
<path d="M952.147 333.303H956.803C957.356 333.303 957.803 332.855 957.803 332.303V327.646M957.096 332.596L947.197 322.696" stroke="#717171" stroke-width="1.5" stroke-linecap="round"/>
<path d="M993 331L999.219 325.669C999.668 325.284 1000.33 325.284 1000.78 325.669L1007 331" stroke="#717171" stroke-width="1.5" stroke-linecap="round"/>
<path d="M767 497.3L771.236 493.669C771.685 493.284 772.348 493.284 772.798 493.669L777.033 497.3" stroke="#717171" stroke-width="1.1" stroke-linecap="round"/>
<path d="M802.7 491L806.331 495.236C806.716 495.685 806.716 496.348 806.331 496.797L802.7 501.033" stroke="#717171" stroke-width="1.1" stroke-linecap="round"/>
<path d="M837.3 501L833.669 496.764C833.284 496.315 833.284 495.652 833.669 495.203L837.3 490.967" stroke="#717171" stroke-width="1.1" stroke-linecap="round"/>
<path d="M1041 325L1047.22 330.331C1047.67 330.716 1048.33 330.716 1048.78 330.331L1055 325" stroke="#717171" stroke-width="1.5" stroke-linecap="round"/>
<path d="M1093 335L1098.33 328.781C1098.72 328.332 1098.72 327.668 1098.33 327.219L1093 321" stroke="#717171" stroke-width="1.5" stroke-linecap="round"/>
<path d="M1147 321L1141.67 327.219C1141.28 327.668 1141.28 328.332 1141.67 328.781L1147 335" stroke="#717171" stroke-width="1.5" stroke-linecap="round"/>
<path d="M1185 324L1187.29 321.707C1187.68 321.317 1188.32 321.317 1188.71 321.707L1191 324M1188 322L1188 334M1194 333L1196.29 335.293C1196.68 335.683 1197.32 335.683 1197.71 335.293L1200 333M1197 335V323" stroke="#717171" stroke-width="1.5" stroke-linecap="round"/>
<path d="M863 492.825L864.618 491.207C864.894 490.931 865.34 490.931 865.616 491.207L867.234 492.825M865.117 491.413L865.117 499.881M869.351 499.175L870.969 500.793C871.244 501.069 871.691 501.069 871.967 500.793L873.585 499.175M871.468 500.587V492.119" stroke="#717171" stroke-linecap="round"/>
<path d="M896.825 501L895.207 499.382C894.931 499.106 894.931 498.66 895.207 498.384L896.825 496.766M895.413 498.883L903.881 498.883M903.175 494.649L904.793 493.031C905.069 492.756 905.069 492.309 904.793 492.033L903.175 490.415M904.587 492.532L896.119 492.532" stroke="#717171" stroke-linecap="round"/>
<path d="M1236 335L1233.71 332.707C1233.32 332.317 1233.32 331.683 1233.71 331.293L1236 329M1234 332L1246 332M1245 326L1247.29 323.707C1247.68 323.317 1247.68 322.683 1247.29 322.293L1245 320M1247 323L1235 323" stroke="#717171" stroke-width="1.5" stroke-linecap="round"/>
<path d="M1281.07 324C1281.81 322.722 1282.89 321.674 1284.18 320.97C1285.48 320.266 1286.94 319.934 1288.42 320.011C1289.89 320.088 1291.31 320.571 1292.53 321.407C1293.75 322.243 1294.71 323.398 1295.31 324.746M1279.23 321.515L1279.96 324.675C1280.09 325.213 1280.62 325.549 1281.16 325.424L1284.32 324.695M1294.93 332C1294.19 333.278 1293.11 334.327 1291.82 335.031C1290.52 335.735 1289.05 336.066 1287.58 335.989C1286.11 335.912 1284.68 335.429 1283.47 334.593C1282.25 333.757 1281.29 332.602 1280.69 331.254M1296.77 334.485L1296.04 331.325C1295.91 330.787 1295.38 330.451 1294.84 330.576L1291.68 331.305" stroke="#717171" stroke-width="1.5" stroke-linecap="round"/>
<path d="M928.175 494.879C928.566 494.201 929.137 493.645 929.825 493.271C930.513 492.898 931.291 492.722 932.072 492.763C932.854 492.804 933.609 493.06 934.254 493.503C934.899 493.947 935.409 494.56 935.727 495.275M927.199 493.561L927.586 495.237C927.652 495.522 927.936 495.7 928.222 495.635L929.898 495.248M935.525 499.123C935.134 499.8 934.563 500.357 933.875 500.73C933.187 501.104 932.409 501.28 931.628 501.239C930.846 501.198 930.091 500.941 929.446 500.498C928.801 500.055 928.291 499.442 927.973 498.727M936.501 500.441L936.114 498.765C936.048 498.479 935.764 498.301 935.478 498.367L933.802 498.754" stroke="#717171" stroke-linecap="round"/>
<path d="M1332.62 335.385L1329 335.385C1328.45 335.385 1328 334.937 1328 334.385L1328 330.769M1328.77 334.615L1334.15 329.231M1343.38 324.615L1343.38 321C1343.38 320.447 1342.94 320 1342.38 320L1338.77 320M1342.62 320.769L1337.23 326.154" stroke="#717171" stroke-width="1.5" stroke-linecap="round"/>
<path d="M962.15 502.5H959.683C959.306 502.5 959 502.195 959 501.818L959 499.35M959.525 501.975L963.2 498.3M969.5 495.15V492.683C969.5 492.306 969.194 492 968.817 492L966.35 492M968.975 492.525L965.3 496.2" stroke="#717171" stroke-linecap="round"/>
<path d="M990.231 498.177H987.691C987.303 498.177 986.989 498.491 986.989 498.879L986.989 501.419M987.529 498.717L991.312 502.5M985.324 493.081V495.621C985.324 496.009 985.009 496.324 984.621 496.324H982.081M984.783 495.783L981 492" stroke="#717171" stroke-linecap="round"/>
<path d="M513.846 377.538L517.462 377.538C518.014 377.538 518.462 377.986 518.462 378.538L518.462 382.154" stroke="#717171" stroke-width="1.5" stroke-linecap="round"/>
<path d="M517.692 378.307L512.308 383.692" stroke="#717171" stroke-width="1.5" stroke-linecap="round"/>
<path d="M521.538 369.847L521.538 373.462C521.538 374.014 521.986 374.462 522.538 374.462L526.154 374.462" stroke="#717171" stroke-width="1.5" stroke-linecap="round"/>
<path d="M522.307 373.693L527.692 368.308" stroke="#717171" stroke-width="1.5" stroke-linecap="round"/>
<path d="M998.7 283.2L1001.41 280.683C1001.84 280.287 1001.84 279.613 1001.41 279.217L998.7 276.7M1000 290C1005.52 290 1010 285.523 1010 280C1010 274.477 1005.52 270 1000 270C994.477 270 990 274.477 990 280C990 285.523 994.477 290 1000 290Z" stroke="#717171" stroke-width="1.5" stroke-linecap="round"/>
<path d="M1049.3 276.8L1046.59 279.317C1046.16 279.713 1046.16 280.387 1046.59 280.783L1049.3 283.3M1048 270C1042.48 270 1038 274.477 1038 280C1038 285.523 1042.48 290 1048 290C1053.52 290 1058 285.523 1058 280C1058 274.477 1053.52 270 1048 270Z" stroke="#717171" stroke-width="1.5" stroke-linecap="round"/>
<path d="M64.6236 244H60.6861L67.8551 223.636H72.4091L79.5881 244H75.6506L70.2116 227.812H70.0526L64.6236 244ZM64.7528 236.016H75.4915V238.979H64.7528V236.016ZM82.2112 244V228.727H85.7012V231.273H85.8603C86.1387 230.391 86.616 229.712 87.2921 229.234C87.9749 228.75 88.7538 228.509 89.6288 228.509C89.8276 228.509 90.0497 228.518 90.295 228.538C90.5469 228.552 90.7557 228.575 90.9214 228.608V231.919C90.7689 231.866 90.527 231.82 90.1955 231.78C89.8707 231.733 89.5558 231.71 89.2509 231.71C88.5947 231.71 88.0047 231.853 87.481 232.138C86.964 232.416 86.5563 232.804 86.258 233.301C85.9597 233.798 85.8106 234.372 85.8106 235.021V244H82.2112ZM93.4127 244V228.727H96.9028V231.273H97.0619C97.3403 230.391 97.8175 229.712 98.4937 229.234C99.1764 228.75 99.9553 228.509 100.83 228.509C101.029 228.509 101.251 228.518 101.497 228.538C101.748 228.552 101.957 228.575 102.123 228.608V231.919C101.97 231.866 101.729 231.82 101.397 231.78C101.072 231.733 100.757 231.71 100.452 231.71C99.7962 231.71 99.2063 231.853 98.6826 232.138C98.1656 232.416 97.7579 232.804 97.4596 233.301C97.1613 233.798 97.0121 234.372 97.0121 235.021V244H93.4127ZM110.647 244.298C109.156 244.298 107.863 243.97 106.769 243.314C105.676 242.658 104.827 241.74 104.224 240.56C103.627 239.38 103.329 238.001 103.329 236.423C103.329 234.846 103.627 233.464 104.224 232.277C104.827 231.09 105.676 230.169 106.769 229.513C107.863 228.857 109.156 228.528 110.647 228.528C112.139 228.528 113.431 228.857 114.525 229.513C115.619 230.169 116.464 231.09 117.061 232.277C117.664 233.464 117.965 234.846 117.965 236.423C117.965 238.001 117.664 239.38 117.061 240.56C116.464 241.74 115.619 242.658 114.525 243.314C113.431 243.97 112.139 244.298 110.647 244.298ZM110.667 241.415C111.476 241.415 112.152 241.193 112.696 240.749C113.239 240.298 113.644 239.695 113.909 238.939C114.18 238.183 114.316 237.341 114.316 236.413C114.316 235.479 114.18 234.634 113.909 233.878C113.644 233.116 113.239 232.509 112.696 232.058C112.152 231.607 111.476 231.382 110.667 231.382C109.839 231.382 109.149 231.607 108.599 232.058C108.055 232.509 107.648 233.116 107.376 233.878C107.111 234.634 106.978 235.479 106.978 236.413C106.978 237.341 107.111 238.183 107.376 238.939C107.648 239.695 108.055 240.298 108.599 240.749C109.149 241.193 109.839 241.415 110.667 241.415ZM123.835 244L119.52 228.727H123.189L125.873 239.466H126.013L128.757 228.727H132.386L135.13 239.406H135.28L137.925 228.727H141.603L137.278 244H133.53L130.666 233.679H130.457L127.594 244H123.835ZM156.288 232.764L153.006 233.122C152.914 232.791 152.751 232.479 152.519 232.188C152.294 231.896 151.989 231.661 151.604 231.482C151.22 231.303 150.749 231.213 150.192 231.213C149.443 231.213 148.814 231.375 148.303 231.7C147.799 232.025 147.551 232.446 147.558 232.963C147.551 233.407 147.713 233.768 148.045 234.047C148.383 234.325 148.94 234.554 149.715 234.733L152.32 235.29C153.765 235.601 154.839 236.095 155.542 236.771C156.251 237.447 156.609 238.332 156.616 239.426C156.609 240.387 156.327 241.236 155.771 241.972C155.22 242.701 154.455 243.271 153.474 243.682C152.493 244.093 151.366 244.298 150.093 244.298C148.224 244.298 146.719 243.907 145.579 243.125C144.439 242.336 143.759 241.239 143.54 239.834L147.05 239.496C147.21 240.185 147.548 240.705 148.065 241.057C148.582 241.408 149.254 241.584 150.083 241.584C150.938 241.584 151.624 241.408 152.141 241.057C152.665 240.705 152.927 240.271 152.927 239.754C152.927 239.317 152.758 238.955 152.42 238.67C152.088 238.385 151.571 238.167 150.869 238.014L148.263 237.467C146.799 237.162 145.715 236.649 145.012 235.926C144.309 235.197 143.961 234.276 143.968 233.162C143.961 232.221 144.217 231.405 144.734 230.716C145.257 230.02 145.983 229.483 146.911 229.105C147.846 228.721 148.923 228.528 150.143 228.528C151.933 228.528 153.341 228.91 154.369 229.672C155.403 230.434 156.042 231.465 156.288 232.764ZM172.814 244.298C171.422 244.298 170.226 244.046 169.225 243.543C168.224 243.039 167.452 242.359 166.908 241.504C166.371 240.643 166.103 239.671 166.103 238.591C166.103 237.776 166.268 237.053 166.6 236.423C166.938 235.794 167.402 235.21 167.992 234.673C168.588 234.136 169.278 233.603 170.06 233.072L173.669 230.616C174.2 230.272 174.601 229.907 174.873 229.523C175.151 229.138 175.29 228.687 175.29 228.17C175.29 227.733 175.105 227.319 174.733 226.928C174.369 226.536 173.865 226.341 173.222 226.341C172.791 226.341 172.41 226.444 172.079 226.649C171.754 226.848 171.499 227.11 171.313 227.435C171.134 227.759 171.044 228.104 171.044 228.469C171.044 228.913 171.167 229.364 171.412 229.821C171.664 230.278 171.989 230.752 172.387 231.243C172.791 231.733 173.222 232.254 173.679 232.804L183.235 244H179.337L171.402 234.912C170.812 234.223 170.242 233.543 169.692 232.874C169.149 232.204 168.701 231.508 168.35 230.786C168.005 230.056 167.833 229.268 167.833 228.419C167.833 227.458 168.055 226.599 168.499 225.844C168.943 225.081 169.563 224.482 170.358 224.044C171.16 223.607 172.098 223.388 173.172 223.388C174.246 223.388 175.168 223.6 175.937 224.024C176.705 224.448 177.299 225.012 177.716 225.714C178.134 226.417 178.343 227.183 178.343 228.011C178.343 228.973 178.104 229.834 177.627 230.597C177.15 231.352 176.487 232.038 175.638 232.655L171.522 235.668C170.846 236.158 170.362 236.655 170.07 237.159C169.778 237.656 169.633 238.08 169.633 238.432C169.633 238.969 169.768 239.456 170.04 239.893C170.312 240.331 170.693 240.682 171.184 240.947C171.681 241.206 172.261 241.335 172.924 241.335C173.653 241.335 174.372 241.173 175.081 240.848C175.791 240.517 176.437 240.046 177.02 239.436C177.604 238.826 178.068 238.097 178.412 237.249C178.757 236.393 178.929 235.446 178.929 234.405H182.022C182.022 235.691 181.879 236.811 181.594 237.766C181.309 238.714 180.941 239.516 180.49 240.172C180.04 240.821 179.562 241.342 179.059 241.733C178.9 241.846 178.747 241.958 178.601 242.071C178.455 242.184 178.303 242.296 178.144 242.409C177.428 243.059 176.589 243.536 175.628 243.841C174.674 244.146 173.736 244.298 172.814 244.298ZM199.5 244H192.6V223.636H199.64C201.661 223.636 203.398 224.044 204.85 224.859C206.308 225.668 207.429 226.831 208.211 228.349C208.993 229.867 209.384 231.684 209.384 233.798C209.384 235.92 208.99 237.742 208.201 239.267C207.419 240.792 206.288 241.962 204.81 242.777C203.339 243.592 201.569 244 199.5 244ZM196.289 240.808H199.322C200.74 240.808 201.923 240.55 202.871 240.033C203.819 239.509 204.532 238.73 205.009 237.696C205.486 236.655 205.725 235.356 205.725 233.798C205.725 232.241 205.486 230.948 205.009 229.92C204.532 228.886 203.826 228.114 202.891 227.604C201.963 227.087 200.81 226.828 199.431 226.828H196.289V240.808ZM212.83 244V228.727H216.429V244H212.83ZM214.64 226.56C214.069 226.56 213.579 226.371 213.168 225.993C212.757 225.608 212.551 225.148 212.551 224.611C212.551 224.067 212.757 223.607 213.168 223.229C213.579 222.844 214.069 222.652 214.64 222.652C215.216 222.652 215.707 222.844 216.111 223.229C216.522 223.607 216.728 224.067 216.728 224.611C216.728 225.148 216.522 225.608 216.111 225.993C215.707 226.371 215.216 226.56 214.64 226.56ZM220.231 244V228.727H223.721V231.273H223.88C224.158 230.391 224.636 229.712 225.312 229.234C225.994 228.75 226.773 228.509 227.648 228.509C227.847 228.509 228.069 228.518 228.314 228.538C228.566 228.552 228.775 228.575 228.941 228.608V231.919C228.788 231.866 228.547 231.82 228.215 231.78C227.89 231.733 227.575 231.71 227.27 231.71C226.614 231.71 226.024 231.853 225.501 232.138C224.984 232.416 224.576 232.804 224.278 233.301C223.979 233.798 223.83 234.372 223.83 235.021V244H220.231ZM237.565 244.298C236.033 244.298 234.711 243.98 233.597 243.344C232.49 242.701 231.639 241.793 231.042 240.619C230.445 239.439 230.147 238.051 230.147 236.453C230.147 234.882 230.445 233.503 231.042 232.317C231.645 231.124 232.487 230.196 233.568 229.533C234.648 228.863 235.917 228.528 237.376 228.528C238.317 228.528 239.205 228.681 240.041 228.986C240.882 229.284 241.625 229.748 242.268 230.378C242.917 231.008 243.428 231.81 243.799 232.784C244.17 233.752 244.356 234.905 244.356 236.244V237.348H231.837V234.922H240.906C240.899 234.232 240.75 233.619 240.458 233.082C240.166 232.539 239.759 232.111 239.235 231.8C238.718 231.488 238.115 231.332 237.425 231.332C236.69 231.332 236.043 231.511 235.487 231.869C234.93 232.221 234.496 232.685 234.184 233.261C233.879 233.831 233.723 234.458 233.717 235.141V237.259C233.717 238.147 233.879 238.909 234.204 239.545C234.529 240.175 234.983 240.659 235.566 240.997C236.149 241.329 236.832 241.494 237.614 241.494C238.138 241.494 238.612 241.421 239.036 241.276C239.461 241.123 239.828 240.901 240.14 240.609C240.452 240.318 240.687 239.956 240.846 239.526L244.207 239.903C243.995 240.792 243.59 241.567 242.994 242.23C242.404 242.886 241.648 243.397 240.727 243.761C239.805 244.119 238.751 244.298 237.565 244.298ZM254.163 244.298C252.638 244.298 251.329 243.964 250.235 243.294C249.148 242.625 248.31 241.7 247.72 240.52C247.136 239.333 246.845 237.968 246.845 236.423C246.845 234.872 247.143 233.503 247.74 232.317C248.336 231.124 249.178 230.196 250.265 229.533C251.359 228.863 252.652 228.528 254.143 228.528C255.383 228.528 256.48 228.757 257.434 229.214C258.395 229.665 259.161 230.305 259.731 231.134C260.301 231.955 260.626 232.917 260.706 234.017H257.265C257.126 233.281 256.795 232.668 256.271 232.178C255.754 231.68 255.061 231.432 254.193 231.432C253.457 231.432 252.811 231.631 252.254 232.028C251.697 232.42 251.263 232.983 250.951 233.719C250.646 234.455 250.494 235.336 250.494 236.364C250.494 237.404 250.646 238.299 250.951 239.048C251.256 239.791 251.684 240.364 252.234 240.768C252.791 241.166 253.444 241.365 254.193 241.365C254.723 241.365 255.197 241.266 255.615 241.067C256.039 240.861 256.394 240.566 256.679 240.182C256.964 239.797 257.159 239.33 257.265 238.78H260.706C260.619 239.86 260.301 240.818 259.751 241.653C259.201 242.482 258.452 243.132 257.504 243.602C256.556 244.066 255.442 244.298 254.163 244.298ZM271.388 228.727V231.511H262.608V228.727H271.388ZM264.775 225.068H268.375V239.406C268.375 239.89 268.448 240.261 268.594 240.52C268.746 240.772 268.945 240.944 269.19 241.037C269.435 241.13 269.707 241.176 270.005 241.176C270.231 241.176 270.436 241.16 270.622 241.126C270.814 241.093 270.96 241.063 271.059 241.037L271.666 243.851C271.474 243.917 271.199 243.99 270.841 244.07C270.489 244.149 270.058 244.196 269.548 244.209C268.647 244.235 267.835 244.099 267.112 243.801C266.389 243.496 265.816 243.026 265.392 242.389C264.974 241.753 264.769 240.957 264.775 240.003V225.068ZM274.498 244V228.727H278.097V244H274.498ZM276.308 226.56C275.737 226.56 275.247 226.371 274.836 225.993C274.425 225.608 274.219 225.148 274.219 224.611C274.219 224.067 274.425 223.607 274.836 223.229C275.247 222.844 275.737 222.652 276.308 222.652C276.884 222.652 277.375 222.844 277.779 223.229C278.19 223.607 278.396 224.067 278.396 224.611C278.396 225.148 278.19 225.608 277.779 225.993C277.375 226.371 276.884 226.56 276.308 226.56ZM288.561 244.298C287.069 244.298 285.776 243.97 284.683 243.314C283.589 242.658 282.741 241.74 282.137 240.56C281.541 239.38 281.242 238.001 281.242 236.423C281.242 234.846 281.541 233.464 282.137 232.277C282.741 231.09 283.589 230.169 284.683 229.513C285.776 228.857 287.069 228.528 288.561 228.528C290.052 228.528 291.345 228.857 292.438 229.513C293.532 230.169 294.377 231.09 294.974 232.277C295.577 233.464 295.879 234.846 295.879 236.423C295.879 238.001 295.577 239.38 294.974 240.56C294.377 241.74 293.532 242.658 292.438 243.314C291.345 243.97 290.052 244.298 288.561 244.298ZM288.58 241.415C289.389 241.415 290.065 241.193 290.609 240.749C291.152 240.298 291.557 239.695 291.822 238.939C292.094 238.183 292.23 237.341 292.23 236.413C292.23 235.479 292.094 234.634 291.822 233.878C291.557 233.116 291.152 232.509 290.609 232.058C290.065 231.607 289.389 231.382 288.58 231.382C287.752 231.382 287.062 231.607 286.512 232.058C285.969 232.509 285.561 233.116 285.289 233.878C285.024 234.634 284.892 235.479 284.892 236.413C284.892 237.341 285.024 238.183 285.289 238.939C285.561 239.695 285.969 240.298 286.512 240.749C287.062 241.193 287.752 241.415 288.58 241.415ZM302.633 235.051V244H299.034V228.727H302.474V231.322H302.653C303.004 230.467 303.565 229.788 304.334 229.284C305.109 228.78 306.067 228.528 307.207 228.528C308.261 228.528 309.179 228.754 309.961 229.205C310.75 229.655 311.36 230.308 311.791 231.163C312.228 232.018 312.444 233.056 312.437 234.276V244H308.838V234.832C308.838 233.812 308.573 233.013 308.042 232.436C307.519 231.859 306.793 231.571 305.865 231.571C305.235 231.571 304.675 231.71 304.184 231.989C303.7 232.26 303.319 232.655 303.041 233.172C302.769 233.689 302.633 234.315 302.633 235.051ZM328.267 232.764L324.986 233.122C324.893 232.791 324.731 232.479 324.499 232.188C324.273 231.896 323.969 231.661 323.584 231.482C323.2 231.303 322.729 231.213 322.172 231.213C321.423 231.213 320.793 231.375 320.283 231.7C319.779 232.025 319.531 232.446 319.537 232.963C319.531 233.407 319.693 233.768 320.024 234.047C320.363 234.325 320.919 234.554 321.695 234.733L324.3 235.29C325.745 235.601 326.819 236.095 327.522 236.771C328.231 237.447 328.589 238.332 328.595 239.426C328.589 240.387 328.307 241.236 327.75 241.972C327.2 242.701 326.434 243.271 325.453 243.682C324.472 244.093 323.345 244.298 322.073 244.298C320.203 244.298 318.699 243.907 317.559 243.125C316.418 242.336 315.739 241.239 315.52 239.834L319.03 239.496C319.189 240.185 319.527 240.705 320.044 241.057C320.561 241.408 321.234 241.584 322.063 241.584C322.918 241.584 323.604 241.408 324.121 241.057C324.645 240.705 324.907 240.271 324.907 239.754C324.907 239.317 324.738 238.955 324.399 238.67C324.068 238.385 323.551 238.167 322.848 238.014L320.243 237.467C318.778 237.162 317.694 236.649 316.992 235.926C316.289 235.197 315.941 234.276 315.948 233.162C315.941 232.221 316.196 231.405 316.713 230.716C317.237 230.02 317.963 229.483 318.891 229.105C319.826 228.721 320.903 228.528 322.122 228.528C323.912 228.528 325.321 228.91 326.348 229.672C327.382 230.434 328.022 231.465 328.267 232.764Z" fill="#0671E0"/>
<path d="M74.8452 639.636H78.5341V652.94C78.5341 654.399 78.1894 655.681 77.5 656.788C76.8172 657.895 75.8561 658.76 74.6165 659.384C73.3769 660 71.9285 660.308 70.2713 660.308C68.6075 660.308 67.1558 660 65.9162 659.384C64.6766 658.76 63.7154 657.895 63.0327 656.788C62.3499 655.681 62.0085 654.399 62.0085 652.94V639.636H65.6974V652.632C65.6974 653.481 65.883 654.236 66.2543 654.899C66.6321 655.562 67.1624 656.082 67.8452 656.46C68.5279 656.831 69.3366 657.017 70.2713 657.017C71.206 657.017 72.0147 656.831 72.6974 656.46C73.3868 656.082 73.9171 655.562 74.2884 654.899C74.6596 654.236 74.8452 653.481 74.8452 652.632V639.636ZM94.5556 648.764L91.2744 649.122C91.1816 648.791 91.0192 648.479 90.7871 648.188C90.5618 647.896 90.2568 647.661 89.8724 647.482C89.4879 647.303 89.0173 647.213 88.4604 647.213C87.7114 647.213 87.0817 647.375 86.5712 647.7C86.0674 648.025 85.8189 648.446 85.8255 648.963C85.8189 649.407 85.9813 649.768 86.3127 650.047C86.6508 650.325 87.2076 650.554 87.9832 650.733L90.5883 651.29C92.0334 651.601 93.1072 652.095 93.8099 652.771C94.5192 653.447 94.8771 654.332 94.8837 655.426C94.8771 656.387 94.5954 657.236 94.0386 657.972C93.4884 658.701 92.7228 659.271 91.7417 659.682C90.7606 660.093 89.6337 660.298 88.361 660.298C86.4917 660.298 84.987 659.907 83.8468 659.125C82.7067 658.336 82.0272 657.239 81.8085 655.834L85.3184 655.496C85.4775 656.185 85.8156 656.705 86.3326 657.057C86.8496 657.408 87.5225 657.584 88.3511 657.584C89.2062 657.584 89.8923 657.408 90.4093 657.057C90.933 656.705 91.1948 656.271 91.1948 655.754C91.1948 655.317 91.0258 654.955 90.6877 654.67C90.3563 654.385 89.8392 654.167 89.1366 654.014L86.5315 653.467C85.0665 653.162 83.9827 652.649 83.28 651.926C82.5774 651.197 82.2294 650.276 82.236 649.162C82.2294 648.221 82.4846 647.405 83.0016 646.716C83.5253 646.02 84.2512 645.483 85.1792 645.105C86.1139 644.721 87.191 644.528 88.4107 644.528C90.2005 644.528 91.6091 644.91 92.6366 645.672C93.6707 646.434 94.3103 647.465 94.5556 648.764ZM104.713 660.298C103.182 660.298 101.859 659.98 100.746 659.344C99.6388 658.701 98.787 657.793 98.1904 656.619C97.5938 655.439 97.2955 654.051 97.2955 652.453C97.2955 650.882 97.5938 649.503 98.1904 648.317C98.7936 647.124 99.6355 646.196 100.716 645.533C101.796 644.863 103.066 644.528 104.524 644.528C105.466 644.528 106.354 644.681 107.189 644.986C108.031 645.284 108.773 645.748 109.416 646.378C110.066 647.008 110.576 647.81 110.948 648.784C111.319 649.752 111.504 650.905 111.504 652.244V653.348H98.9859V650.922H108.054C108.047 650.232 107.898 649.619 107.607 649.082C107.315 648.539 106.907 648.111 106.384 647.8C105.867 647.488 105.263 647.332 104.574 647.332C103.838 647.332 103.192 647.511 102.635 647.869C102.078 648.221 101.644 648.685 101.332 649.261C101.028 649.831 100.872 650.458 100.865 651.141V653.259C100.865 654.147 101.028 654.909 101.352 655.545C101.677 656.175 102.131 656.659 102.715 656.997C103.298 657.329 103.981 657.494 104.763 657.494C105.287 657.494 105.76 657.421 106.185 657.276C106.609 657.123 106.977 656.901 107.288 656.609C107.6 656.318 107.835 655.956 107.994 655.526L111.355 655.903C111.143 656.792 110.739 657.567 110.142 658.23C109.552 658.886 108.796 659.397 107.875 659.761C106.954 660.119 105.9 660.298 104.713 660.298ZM114.649 660V644.727H118.139V647.273H118.299C118.577 646.391 119.054 645.712 119.73 645.234C120.413 644.75 121.192 644.509 122.067 644.509C122.266 644.509 122.488 644.518 122.733 644.538C122.985 644.552 123.194 644.575 123.36 644.608V647.919C123.207 647.866 122.965 647.82 122.634 647.78C122.309 647.733 121.994 647.71 121.689 647.71C121.033 647.71 120.443 647.853 119.919 648.138C119.402 648.416 118.995 648.804 118.696 649.301C118.398 649.798 118.249 650.372 118.249 651.021V660H114.649ZM136.744 639.636V660H133.055V639.636H136.744ZM144.279 651.051V660H140.68V644.727H144.12V647.322H144.299C144.651 646.467 145.211 645.788 145.98 645.284C146.755 644.78 147.713 644.528 148.853 644.528C149.907 644.528 150.825 644.754 151.607 645.205C152.396 645.655 153.006 646.308 153.437 647.163C153.875 648.018 154.09 649.056 154.083 650.276V660H150.484V650.832C150.484 649.812 150.219 649.013 149.688 648.436C149.165 647.859 148.439 647.571 147.511 647.571C146.881 647.571 146.321 647.71 145.83 647.989C145.347 648.26 144.965 648.655 144.687 649.172C144.415 649.689 144.279 650.315 144.279 651.051ZM165.469 644.727V647.511H156.689V644.727H165.469ZM158.857 641.068H162.456V655.406C162.456 655.89 162.529 656.261 162.675 656.52C162.827 656.772 163.026 656.944 163.271 657.037C163.517 657.13 163.788 657.176 164.087 657.176C164.312 657.176 164.518 657.16 164.703 657.126C164.895 657.093 165.041 657.063 165.141 657.037L165.747 659.851C165.555 659.917 165.28 659.99 164.922 660.07C164.571 660.149 164.14 660.196 163.629 660.209C162.728 660.235 161.916 660.099 161.193 659.801C160.471 659.496 159.897 659.026 159.473 658.389C159.055 657.753 158.85 656.957 158.857 656.003V641.068ZM175.176 660.298C173.645 660.298 172.323 659.98 171.209 659.344C170.102 658.701 169.25 657.793 168.654 656.619C168.057 655.439 167.759 654.051 167.759 652.453C167.759 650.882 168.057 649.503 168.654 648.317C169.257 647.124 170.099 646.196 171.179 645.533C172.26 644.863 173.529 644.528 174.988 644.528C175.929 644.528 176.817 644.681 177.652 644.986C178.494 645.284 179.237 645.748 179.88 646.378C180.529 647.008 181.04 647.81 181.411 648.784C181.782 649.752 181.968 650.905 181.968 652.244V653.348H169.449V650.922H178.517C178.511 650.232 178.362 649.619 178.07 649.082C177.778 648.539 177.371 648.111 176.847 647.8C176.33 647.488 175.727 647.332 175.037 647.332C174.301 647.332 173.655 647.511 173.098 647.869C172.541 648.221 172.107 648.685 171.796 649.261C171.491 649.831 171.335 650.458 171.328 651.141V653.259C171.328 654.147 171.491 654.909 171.816 655.545C172.14 656.175 172.595 656.659 173.178 656.997C173.761 657.329 174.444 657.494 175.226 657.494C175.75 657.494 176.224 657.421 176.648 657.276C177.072 657.123 177.44 656.901 177.752 656.609C178.063 656.318 178.299 655.956 178.458 655.526L181.818 655.903C181.606 656.792 181.202 657.567 180.605 658.23C180.015 658.886 179.26 659.397 178.338 659.761C177.417 660.119 176.363 660.298 175.176 660.298ZM185.113 660V644.727H188.603V647.273H188.762C189.04 646.391 189.518 645.712 190.194 645.234C190.876 644.75 191.655 644.509 192.53 644.509C192.729 644.509 192.951 644.518 193.197 644.538C193.448 644.552 193.657 644.575 193.823 644.608V647.919C193.67 647.866 193.429 647.82 193.097 647.78C192.772 647.733 192.457 647.71 192.152 647.71C191.496 647.71 190.906 647.853 190.383 648.138C189.866 648.416 189.458 648.804 189.16 649.301C188.861 649.798 188.712 650.372 188.712 651.021V660H185.113ZM204.87 644.727V647.511H195.842V644.727H204.87ZM198.099 660V643.286C198.099 642.258 198.311 641.403 198.735 640.72C199.166 640.037 199.743 639.527 200.466 639.189C201.188 638.851 201.99 638.682 202.872 638.682C203.495 638.682 204.048 638.732 204.532 638.831C205.016 638.93 205.374 639.02 205.606 639.099L204.89 641.884C204.738 641.837 204.546 641.791 204.314 641.744C204.082 641.691 203.823 641.665 203.538 641.665C202.868 641.665 202.395 641.827 202.116 642.152C201.844 642.47 201.708 642.928 201.708 643.524V660H198.099ZM211.665 660.308C210.697 660.308 209.825 660.136 209.05 659.791C208.281 659.44 207.671 658.923 207.22 658.24C206.776 657.557 206.554 656.715 206.554 655.714C206.554 654.853 206.713 654.14 207.031 653.577C207.349 653.013 207.783 652.562 208.334 652.224C208.884 651.886 209.504 651.631 210.193 651.459C210.889 651.28 211.608 651.151 212.351 651.071C213.246 650.978 213.971 650.895 214.528 650.822C215.085 650.743 215.489 650.624 215.741 650.464C216 650.299 216.129 650.044 216.129 649.699V649.639C216.129 648.89 215.907 648.31 215.463 647.899C215.019 647.488 214.379 647.283 213.544 647.283C212.662 647.283 211.963 647.475 211.446 647.859C210.935 648.244 210.591 648.698 210.412 649.222L207.051 648.744C207.316 647.816 207.754 647.041 208.364 646.418C208.973 645.788 209.719 645.317 210.601 645.006C211.482 644.688 212.457 644.528 213.524 644.528C214.26 644.528 214.992 644.615 215.721 644.787C216.451 644.959 217.117 645.244 217.72 645.642C218.323 646.033 218.807 646.567 219.172 647.243C219.543 647.919 219.729 648.764 219.729 649.778V660H216.268V657.902H216.149C215.93 658.326 215.622 658.724 215.224 659.095C214.833 659.46 214.339 659.755 213.743 659.98C213.153 660.199 212.46 660.308 211.665 660.308ZM212.599 657.663C213.322 657.663 213.948 657.521 214.479 657.236C215.009 656.944 215.417 656.56 215.702 656.082C215.993 655.605 216.139 655.085 216.139 654.521V652.722C216.026 652.814 215.834 652.901 215.562 652.98C215.297 653.06 214.999 653.129 214.667 653.189C214.336 653.249 214.008 653.302 213.683 653.348C213.358 653.394 213.077 653.434 212.838 653.467C212.301 653.54 211.82 653.66 211.396 653.825C210.972 653.991 210.637 654.223 210.392 654.521C210.147 654.813 210.024 655.191 210.024 655.655C210.024 656.318 210.266 656.818 210.75 657.156C211.234 657.494 211.85 657.663 212.599 657.663ZM230.11 660.298C228.585 660.298 227.276 659.964 226.182 659.294C225.095 658.625 224.257 657.7 223.667 656.52C223.083 655.333 222.792 653.968 222.792 652.423C222.792 650.872 223.09 649.503 223.687 648.317C224.283 647.124 225.125 646.196 226.212 645.533C227.306 644.863 228.598 644.528 230.09 644.528C231.329 644.528 232.427 644.757 233.381 645.214C234.342 645.665 235.108 646.305 235.678 647.134C236.248 647.955 236.573 648.917 236.652 650.017H233.212C233.073 649.281 232.741 648.668 232.218 648.178C231.701 647.68 231.008 647.432 230.14 647.432C229.404 647.432 228.758 647.631 228.201 648.028C227.644 648.42 227.21 648.983 226.898 649.719C226.593 650.455 226.441 651.336 226.441 652.364C226.441 653.404 226.593 654.299 226.898 655.048C227.203 655.791 227.631 656.364 228.181 656.768C228.738 657.166 229.391 657.365 230.14 657.365C230.67 657.365 231.144 657.266 231.562 657.067C231.986 656.861 232.34 656.566 232.625 656.182C232.91 655.797 233.106 655.33 233.212 654.78H236.652C236.566 655.86 236.248 656.818 235.698 657.653C235.148 658.482 234.399 659.132 233.451 659.602C232.503 660.066 231.389 660.298 230.11 660.298ZM246.469 660.298C244.938 660.298 243.616 659.98 242.502 659.344C241.395 658.701 240.543 657.793 239.947 656.619C239.35 655.439 239.052 654.051 239.052 652.453C239.052 650.882 239.35 649.503 239.947 648.317C240.55 647.124 241.392 646.196 242.472 645.533C243.553 644.863 244.822 644.528 246.28 644.528C247.222 644.528 248.11 644.681 248.945 644.986C249.787 645.284 250.53 645.748 251.173 646.378C251.822 647.008 252.333 647.81 252.704 648.784C253.075 649.752 253.261 650.905 253.261 652.244V653.348H240.742V650.922H249.81C249.804 650.232 249.655 649.619 249.363 649.082C249.071 648.539 248.664 648.111 248.14 647.8C247.623 647.488 247.02 647.332 246.33 647.332C245.594 647.332 244.948 647.511 244.391 647.869C243.834 648.221 243.4 648.685 243.089 649.261C242.784 649.831 242.628 650.458 242.621 651.141V653.259C242.621 654.147 242.784 654.909 243.109 655.545C243.433 656.175 243.887 656.659 244.471 656.997C245.054 657.329 245.737 657.494 246.519 657.494C247.043 657.494 247.517 657.421 247.941 657.276C248.365 657.123 248.733 656.901 249.045 656.609C249.356 656.318 249.592 655.956 249.751 655.526L253.111 655.903C252.899 656.792 252.495 657.567 251.898 658.23C251.308 658.886 250.553 659.397 249.631 659.761C248.71 660.119 247.656 660.298 246.469 660.298Z" fill="#0671E0"/>
<path d="M509.293 237V235.097L514.342 230.146C514.825 229.659 515.228 229.225 515.55 228.847C515.872 228.468 516.113 228.101 516.274 227.746C516.435 227.391 516.516 227.012 516.516 226.609C516.516 226.15 516.411 225.757 516.203 225.43C515.995 225.099 515.708 224.843 515.344 224.663C514.979 224.483 514.565 224.393 514.101 224.393C513.623 224.393 513.204 224.493 512.844 224.692C512.484 224.886 512.205 225.163 512.006 225.523C511.812 225.883 511.714 226.311 511.714 226.808H509.207C509.207 225.885 509.418 225.082 509.839 224.401C510.261 223.719 510.841 223.191 511.58 222.817C512.323 222.443 513.175 222.256 514.136 222.256C515.112 222.256 515.969 222.438 516.707 222.803C517.446 223.167 518.019 223.667 518.426 224.301C518.838 224.936 519.044 225.66 519.044 226.474C519.044 227.019 518.94 227.554 518.732 228.08C518.523 228.605 518.156 229.187 517.631 229.827C517.11 230.466 516.378 231.24 515.436 232.149L512.929 234.699V234.798H519.264V237H509.293ZM521.239 234.301V232.206L527.411 222.455H529.158V225.438H528.093L523.938 232.021V232.135H532.553V234.301H521.239ZM528.178 237V233.662L528.207 232.724V222.455H530.692V237H528.178Z" fill="#717171"/>
<path d="M509.293 653V651.097L514.342 646.146C514.825 645.659 515.228 645.225 515.55 644.847C515.872 644.468 516.113 644.101 516.274 643.746C516.435 643.391 516.516 643.012 516.516 642.609C516.516 642.15 516.411 641.757 516.203 641.43C515.995 641.099 515.708 640.843 515.344 640.663C514.979 640.483 514.565 640.393 514.101 640.393C513.623 640.393 513.204 640.493 512.844 640.692C512.484 640.886 512.205 641.163 512.006 641.523C511.812 641.883 511.714 642.311 511.714 642.808H509.207C509.207 641.885 509.418 641.082 509.839 640.401C510.261 639.719 510.841 639.191 511.58 638.817C512.323 638.443 513.175 638.256 514.136 638.256C515.112 638.256 515.969 638.438 516.707 638.803C517.446 639.167 518.019 639.667 518.426 640.301C518.838 640.936 519.044 641.66 519.044 642.474C519.044 643.019 518.94 643.554 518.732 644.08C518.523 644.605 518.156 645.187 517.631 645.827C517.11 646.466 516.378 647.24 515.436 648.149L512.929 650.699V650.798H519.264V653H509.293ZM521.239 650.301V648.206L527.411 638.455H529.158V641.438H528.093L523.938 648.021V648.135H532.553V650.301H521.239ZM528.178 653V649.662L528.207 648.724V638.455H530.692V653H528.178Z" fill="#717171"/>
<path d="M515.209 442.455V457H512.574V445.018H512.489L509.087 447.192V444.777L512.702 442.455H515.209ZM524.329 457.199C523.633 457.194 522.953 457.073 522.29 456.837C521.627 456.595 521.031 456.205 520.501 455.665C519.97 455.12 519.549 454.398 519.236 453.499C518.924 452.594 518.77 451.474 518.775 450.139C518.775 448.894 518.907 447.784 519.172 446.808C519.438 445.833 519.819 445.009 520.316 444.337C520.813 443.66 521.412 443.143 522.113 442.788C522.818 442.433 523.607 442.256 524.478 442.256C525.392 442.256 526.201 442.436 526.907 442.795C527.617 443.155 528.19 443.648 528.626 444.273C529.061 444.893 529.331 445.594 529.435 446.375H526.843C526.71 445.816 526.438 445.371 526.026 445.04C525.619 444.704 525.103 444.536 524.478 444.536C523.469 444.536 522.693 444.973 522.148 445.849C521.609 446.725 521.336 447.928 521.332 449.457H521.431C521.663 449.041 521.964 448.683 522.333 448.385C522.702 448.087 523.119 447.857 523.583 447.696C524.052 447.53 524.546 447.447 525.067 447.447C525.92 447.447 526.684 447.651 527.361 448.058C528.043 448.465 528.583 449.027 528.981 449.741C529.378 450.452 529.575 451.266 529.57 452.185C529.575 453.141 529.357 454 528.917 454.763C528.476 455.52 527.863 456.117 527.077 456.553C526.291 456.988 525.375 457.204 524.329 457.199ZM524.314 455.068C524.831 455.068 525.292 454.943 525.699 454.692C526.107 454.441 526.429 454.102 526.665 453.676C526.902 453.25 527.018 452.772 527.013 452.241C527.018 451.721 526.904 451.25 526.672 450.828C526.445 450.407 526.13 450.073 525.728 449.827C525.325 449.58 524.866 449.457 524.35 449.457C523.966 449.457 523.609 449.531 523.278 449.678C522.946 449.824 522.657 450.028 522.411 450.288C522.165 450.544 521.971 450.842 521.829 451.183C521.691 451.519 521.62 451.879 521.616 452.263C521.62 452.769 521.739 453.236 521.971 453.662C522.203 454.088 522.522 454.429 522.93 454.685C523.337 454.94 523.798 455.068 524.314 455.068Z" fill="#717171"/>
<path d="M515.209 858.455V873H512.574V861.018H512.489L509.087 863.192V860.777L512.702 858.455H515.209ZM524.329 873.199C523.633 873.194 522.953 873.073 522.29 872.837C521.627 872.595 521.031 872.205 520.501 871.665C519.97 871.12 519.549 870.398 519.236 869.499C518.924 868.594 518.77 867.474 518.775 866.139C518.775 864.894 518.907 863.784 519.172 862.808C519.438 861.833 519.819 861.009 520.316 860.337C520.813 859.66 521.412 859.143 522.113 858.788C522.818 858.433 523.607 858.256 524.478 858.256C525.392 858.256 526.201 858.436 526.907 858.795C527.617 859.155 528.19 859.648 528.626 860.273C529.061 860.893 529.331 861.594 529.435 862.375H526.843C526.71 861.816 526.438 861.371 526.026 861.04C525.619 860.704 525.103 860.536 524.478 860.536C523.469 860.536 522.693 860.973 522.148 861.849C521.609 862.725 521.336 863.928 521.332 865.457H521.431C521.663 865.041 521.964 864.683 522.333 864.385C522.702 864.087 523.119 863.857 523.583 863.696C524.052 863.53 524.546 863.447 525.067 863.447C525.92 863.447 526.684 863.651 527.361 864.058C528.043 864.465 528.583 865.027 528.981 865.741C529.378 866.452 529.575 867.266 529.57 868.185C529.575 869.141 529.357 870 528.917 870.763C528.476 871.52 527.863 872.117 527.077 872.553C526.291 872.988 525.375 873.204 524.329 873.199ZM524.314 871.068C524.831 871.068 525.292 870.943 525.699 870.692C526.107 870.441 526.429 870.102 526.665 869.676C526.902 869.25 527.018 868.772 527.013 868.241C527.018 867.721 526.904 867.25 526.672 866.828C526.445 866.407 526.13 866.073 525.728 865.827C525.325 865.58 524.866 865.457 524.35 865.457C523.966 865.457 523.609 865.531 523.278 865.678C522.946 865.824 522.657 866.028 522.411 866.288C522.165 866.544 521.971 866.842 521.829 867.183C521.691 867.519 521.62 867.879 521.616 868.263C521.62 868.769 521.739 869.236 521.971 869.662C522.203 870.088 522.522 870.429 522.93 870.685C523.337 870.94 523.798 871.068 524.314 871.068Z" fill="#717171"/>
<path d="M60 568H1380" stroke="#ABBED1"/>
<circle cx="759" cy="695" r="8" stroke="#717171" stroke-width="1.5" stroke-linecap="round" stroke-linejoin="round"/>
<path d="M764.5 700.958L769.5 705.958" stroke="#717171" stroke-width="1.5" stroke-linecap="round" stroke-linejoin="round"/>
<ellipse cx="675.189" cy="911.36" rx="5.18919" ry="5.18919" stroke="#717171" stroke-width="1.1" stroke-linecap="round" stroke-linejoin="round"/>
<path d="M678.757 915.225L682 918.468" stroke="#717171" stroke-width="1.1" stroke-linecap="round" stroke-linejoin="round"/>
<rect x="800" y="686" width="16" height="20" rx="4" stroke="#717171" stroke-width="1.5"/>
<path d="M804 691H812" stroke="#717171" stroke-width="1.5" stroke-linecap="round"/>
<path d="M804 696H812" stroke="#717171" stroke-width="1.5" stroke-linecap="round"/>
<path d="M804 701H808" stroke="#717171" stroke-width="1.5" stroke-linecap="round"/>
<path d="M848 690C848 687.791 849.791 686 852 686H856H858.063C858.657 686 859.22 686.264 859.6 686.72L863.536 691.444C863.836 691.803 864 692.256 864 692.724V696V702C864 704.209 862.209 706 860 706H852C849.791 706 848 704.209 848 702V690Z" stroke="#717171" stroke-width="1.5"/>
<path d="M859 686.5V690C859 691.105 859.895 692 861 692H863.5" stroke="#717171" stroke-width="1.5" stroke-linecap="round"/>
<path d="M852 696H860" stroke="#717171" stroke-width="1.5" stroke-linecap="round"/>
<path d="M852 701H856" stroke="#717171" stroke-width="1.5" stroke-linecap="round"/>
<path d="M911 696V692.724C911 692.256 910.836 691.803 910.536 691.444L906.6 686.72C906.22 686.264 905.657 686 905.063 686H903H899C896.791 686 895 687.791 895 690V702C895 704.209 896.791 706 899 706H904" stroke="#717171" stroke-width="1.5" stroke-linecap="round"/>
<path d="M908 703H914" stroke="#717171" stroke-width="1.5" stroke-linecap="round" stroke-linejoin="round"/>
<path d="M911 700L911 706" stroke="#717171" stroke-width="1.5" stroke-linecap="round" stroke-linejoin="round"/>
<path d="M906 686.5V690C906 691.105 906.895 692 908 692H910.5" stroke="#717171" stroke-width="1.5" stroke-linecap="round"/>
<path d="M959 696V692.724C959 692.256 958.836 691.803 958.536 691.444L954.6 686.72C954.22 686.264 953.657 686 953.063 686H951H947C944.791 686 943 687.791 943 690V702C943 704.209 944.791 706 947 706H952" stroke="#717171" stroke-width="1.5" stroke-linecap="round"/>
<path d="M956 703H962" stroke="#717171" stroke-width="1.5" stroke-linecap="round" stroke-linejoin="round"/>
<path d="M954 686.5V690C954 691.105 954.895 692 956 692H958.5" stroke="#717171" stroke-width="1.5" stroke-linecap="round"/>
<rect x="1233" y="687" width="10" height="14" rx="3" stroke="#717171" stroke-width="1.5"/>
<path d="M1245.5 691.401C1246.4 691.92 1247 692.89 1247 694V702C1247 703.657 1245.66 705 1244 705H1240C1238.89 705 1237.92 704.397 1237.4 703.5" stroke="#717171" stroke-width="1.5" stroke-linecap="round"/>
<path d="M1005.72 693.527L1007.84 694.677L1008.29 694.927C1009.24 695.459 1009.24 696.832 1008.29 697.365L1002.25 700.757C1000.85 701.543 999.148 701.543 997.748 700.757L991.711 697.365C990.763 696.832 990.763 695.459 991.711 694.927L992.156 694.677L994.163 693.527M1006.18 698.646L1008.11 699.619C1009.11 700.12 1009.14 701.54 1008.17 702.086L1002.25 705.41C1000.85 706.197 999.148 706.197 997.748 705.41L991.918 702.135C990.928 701.579 990.983 700.128 992.011 699.649L994.163 698.646M1002.25 695.811L1008.29 692.42C1009.24 691.887 1009.24 690.514 1008.29 689.981L1002.25 686.59C1000.85 685.803 999.148 685.803 997.748 686.59L991.711 689.981C990.763 690.514 990.763 691.887 991.711 692.42L997.748 695.811C999.148 696.598 1000.85 696.598 1002.25 695.811Z" stroke="#717171" stroke-width="1.5"/>
<path d="M1246.26 791.899L1239.55 798.617C1237.79 800.374 1234.94 800.374 1233.18 798.617V798.617C1231.42 796.86 1231.42 794.01 1233.18 792.253L1241.31 784.121C1242.48 782.95 1244.38 782.95 1245.56 784.121V784.121C1246.73 785.293 1246.73 787.192 1245.56 788.364L1237.32 796.597C1236.74 797.182 1235.79 797.182 1235.2 796.597V796.597C1234.62 796.011 1234.62 795.061 1235.2 794.475L1242.02 787.657" stroke="#717171" stroke-width="1.5" stroke-linecap="round"/>
<rect x="655" y="735.5" width="18" height="18" rx="5" stroke="#717171" stroke-width="1.5"/>
<path d="M655 740.5H673" stroke="#717171" stroke-width="1.5" stroke-linejoin="round"/>
<path d="M668.5 734L668.5 737" stroke="#717171" stroke-width="1.5" stroke-linecap="round" stroke-linejoin="round"/>
<path d="M659.5 734L659.5 737" stroke="#717171" stroke-width="1.5" stroke-linecap="round" stroke-linejoin="round"/>
<path d="M658.5 744.5H659.5" stroke="#717171" stroke-width="1.5" stroke-linecap="round" stroke-linejoin="round"/>
<path d="M663.5 744.5H664.5" stroke="#717171" stroke-width="1.5" stroke-linecap="round" stroke-linejoin="round"/>
<path d="M668.5 744.5H669.5" stroke="#717171" stroke-width="1.5" stroke-linecap="round" stroke-linejoin="round"/>
<path d="M658.5 748.5H659.5" stroke="#717171" stroke-width="1.5" stroke-linecap="round" stroke-linejoin="round"/>
<path d="M663.5 748.5H664.5" stroke="#717171" stroke-width="1.5" stroke-linecap="round" stroke-linejoin="round"/>
<path d="M668.5 748.5H669.5" stroke="#717171" stroke-width="1.5" stroke-linecap="round" stroke-linejoin="round"/>
<rect x="1040" y="693" width="16" height="12" rx="4" stroke="#717171" stroke-width="1.5"/>
<path d="M1048 700L1048 698" stroke="#717171" stroke-width="1.5" stroke-linecap="round" stroke-linejoin="round"/>
<path d="M1052 693V691C1052 688.791 1050.21 687 1048 687V687C1045.79 687 1044 688.791 1044 691V693" stroke="#717171" stroke-width="1.5"/>
<rect x="1088" y="693" width="16" height="12" rx="4" stroke="#717171" stroke-width="1.5"/>
<path d="M1096 700L1096 698" stroke="#717171" stroke-width="1.5" stroke-linecap="round" stroke-linejoin="round"/>
<path d="M1098.67 689.142C1098.9 689.482 1099.37 689.566 1099.71 689.329C1100.05 689.092 1100.13 688.625 1099.9 688.285L1098.67 689.142ZM1092.28 688.049C1092.02 688.373 1092.08 688.845 1092.4 689.102C1092.72 689.36 1093.2 689.305 1093.45 688.981L1092.28 688.049ZM1092.75 693V691H1091.25V693H1092.75ZM1092.75 691C1092.75 689.205 1094.21 687.75 1096 687.75V686.25C1093.38 686.25 1091.25 688.377 1091.25 691H1092.75ZM1099.9 688.285C1099.33 687.472 1098.52 686.856 1097.59 686.524L1097.09 687.938C1097.73 688.165 1098.28 688.586 1098.67 689.142L1099.9 688.285ZM1097.59 686.524C1096.66 686.192 1095.64 686.161 1094.69 686.434L1095.1 687.876C1095.76 687.689 1096.45 687.711 1097.09 687.938L1097.59 686.524ZM1094.69 686.434C1093.74 686.708 1092.89 687.272 1092.28 688.049L1093.45 688.981C1093.87 688.449 1094.45 688.063 1095.1 687.876L1094.69 686.434Z" fill="#717171"/>
<rect x="1136" y="693" width="16" height="12" rx="4" stroke="#717171" stroke-width="1.5"/>
<path d="M1142 699L1143.5 700.5L1146.5 697.5" stroke="#717171" stroke-width="1.5" stroke-linecap="round" stroke-linejoin="round"/>
<path d="M1148 693V691C1148 688.791 1146.21 687 1144 687V687C1141.79 687 1140 688.791 1140 691V693" stroke="#717171" stroke-width="1.5"/>
<rect x="1184" y="693" width="16" height="12" rx="4" stroke="#717171" stroke-width="1.5"/>
<path d="M1190.12 701L1194.12 697" stroke="#717171" stroke-width="1.5" stroke-linecap="round" stroke-linejoin="round"/>
<path d="M1190.12 697L1194.12 701" stroke="#717171" stroke-width="1.5" stroke-linecap="round" stroke-linejoin="round"/>
<path d="M1196 693V691C1196 688.791 1194.21 687 1192 687V687C1189.79 687 1188 688.791 1188 691V693" stroke="#717171" stroke-width="1.5"/>
<path d="M1278 688C1278 686.895 1278.9 686 1280 686H1296C1297.1 686 1298 686.895 1298 688V688.818C1298 689.577 1297.71 690.309 1297.19 690.864L1291.54 696.924C1291.19 697.294 1291 697.782 1291 698.288V702.382C1291 702.761 1290.79 703.107 1290.45 703.276L1286.45 705.276C1285.78 705.609 1285 705.125 1285 704.382V698.288C1285 697.782 1284.81 697.294 1284.46 696.924L1278.81 690.864C1278.29 690.309 1278 689.577 1278 688.818V688Z" stroke="#717171" stroke-width="1.5"/>
<path d="M1326 694.456C1326 692.271 1327.77 690.5 1329.96 690.5V690.5C1330.59 690.5 1331.16 690.123 1331.41 689.541L1331.72 688.818C1332.19 687.715 1333.28 687 1334.48 687H1336H1337.52C1338.72 687 1339.81 687.715 1340.28 688.818L1340.59 689.541C1340.84 690.123 1341.41 690.5 1342.04 690.5V690.5C1344.23 690.5 1346 692.271 1346 694.456V699.5C1346 702.261 1343.76 704.5 1341 704.5H1331C1328.24 704.5 1326 702.261 1326 699.5V694.456Z" stroke="#717171" stroke-width="1.5"/>
<circle cx="3" cy="3" r="3" transform="matrix(-1 0 0 1 1339 693.5)" stroke="#717171" stroke-width="1.5"/>
<rect x="894" y="734" width="20" height="20" rx="5" stroke="#717171" stroke-width="1.5"/>
<path d="M904.5 749L904.5 743" stroke="#717171" stroke-width="1.5" stroke-linecap="round" stroke-linejoin="round"/>
<path d="M902.5 743L904.5 743" stroke="#717171" stroke-width="1.5" stroke-linecap="round" stroke-linejoin="round"/>
<path d="M904.5 740L904.5 739" stroke="#717171" stroke-width="1.5" stroke-linecap="round" stroke-linejoin="round"/>
<rect x="942" y="734" width="20" height="20" rx="5" stroke="#717171" stroke-width="1.5"/>
<path d="M949.879 746.122L954.122 741.879" stroke="#717171" stroke-width="1.5" stroke-linecap="round" stroke-linejoin="round"/>
<path d="M949.879 741.879L954.122 746.122" stroke="#717171" stroke-width="1.5" stroke-linecap="round" stroke-linejoin="round"/>
<rect x="990" y="734" width="20" height="20" rx="5" stroke="#717171" stroke-width="1.5"/>
<path d="M997.5 743.5L999.5 745.5L1003.5 741.5" stroke="#717171" stroke-width="1.5" stroke-linecap="round" stroke-linejoin="round"/>
<rect x="1086" y="734" width="20" height="20" rx="5" stroke="#717171" stroke-width="1.5"/>
<circle cx="1091.05" cy="744.05" r="1.25" fill="#717171"/>
<circle cx="1096.05" cy="744.05" r="1.25" fill="#717171"/>
<circle cx="1101.05" cy="744.05" r="1.25" fill="#717171"/>
<rect x="1038" y="734" width="20" height="20" rx="10" stroke="#717171" stroke-width="1.5"/>
<circle cx="1043.05" cy="744.05" r="1.25" fill="#717171"/>
<circle cx="1048.05" cy="744.05" r="1.25" fill="#717171"/>
<circle cx="1053.05" cy="744.05" r="1.25" fill="#717171"/>
<rect x="1135.5" y="736" width="7" height="7" rx="2.5" stroke="#717171" stroke-width="1.5"/>
<rect x="1135.5" y="746" width="7" height="7" rx="2.5" stroke="#717171" stroke-width="1.5"/>
<rect x="1145.5" y="736" width="7" height="7" rx="2.5" stroke="#717171" stroke-width="1.5"/>
<rect x="1145.5" y="746" width="7" height="7" rx="2.5" stroke="#717171" stroke-width="1.5"/>
<rect x="750" y="736" width="20" height="16" rx="5" stroke="#717171" stroke-width="1.5"/>
<path d="M754 741L758.8 744.6C759.511 745.133 760.489 745.133 761.2 744.6L766 741" stroke="#717171" stroke-width="1.5" stroke-linecap="round" stroke-linejoin="round"/>
<path d="M798.5 742.938C798.5 741.714 799.061 740.557 800.021 739.799L805.521 735.457C806.975 734.309 809.025 734.309 810.479 735.457L815.979 739.799C816.939 740.557 817.5 741.714 817.5 742.938V749.5C817.5 751.709 815.709 753.5 813.5 753.5H812C811.448 753.5 811 753.052 811 752.5V749.5C811 748.395 810.105 747.5 809 747.5H807C805.895 747.5 805 748.395 805 749.5V752.5C805 753.052 804.552 753.5 804 753.5H802.5C800.291 753.5 798.5 751.709 798.5 749.5V742.938Z" stroke="#717171" stroke-width="1.5"/>
<path d="M1184 794.885H1183.25H1184ZM1186.73 798.083L1186.84 797.341H1186.84L1186.73 798.083ZM1196.92 798.083L1196.82 797.341H1196.82L1196.92 798.083ZM1184.47 793.187L1183.82 792.803L1184.47 793.187ZM1186.49 788.087C1186.49 785.139 1188.88 782.75 1191.83 782.75V781.25C1188.05 781.25 1184.99 784.311 1184.99 788.087H1186.49ZM1186.49 790.179V788.087H1184.99V790.179H1186.49ZM1184.75 794.885C1184.75 794.404 1184.88 793.955 1185.11 793.571L1183.82 792.803C1183.46 793.413 1183.25 794.126 1183.25 794.885H1184.75ZM1186.84 797.341C1185.64 797.174 1184.75 796.131 1184.75 794.885H1183.25C1183.25 796.845 1184.65 798.552 1186.63 798.826L1186.84 797.341ZM1191.83 797.772C1190.33 797.772 1188.41 797.558 1186.84 797.341L1186.63 798.826C1188.21 799.046 1190.23 799.272 1191.83 799.272V797.772ZM1196.82 797.341C1195.25 797.558 1193.32 797.772 1191.83 797.772V799.272C1193.43 799.272 1195.44 799.046 1197.02 798.826L1196.82 797.341ZM1198.9 794.885C1198.9 796.131 1198.02 797.174 1196.82 797.341L1197.02 798.826C1199 798.552 1200.4 796.845 1200.4 794.885H1198.9ZM1198.54 793.571C1198.77 793.955 1198.9 794.404 1198.9 794.885H1200.4C1200.4 794.126 1200.19 793.413 1199.83 792.803L1198.54 793.571ZM1197.16 788.087V790.18H1198.66V788.087H1197.16ZM1191.83 782.75C1194.77 782.75 1197.16 785.139 1197.16 788.087H1198.66C1198.66 784.311 1195.6 781.25 1191.83 781.25V782.75ZM1199.83 792.803C1199.52 792.285 1199.24 791.87 1199.01 791.407C1198.79 790.963 1198.66 790.567 1198.66 790.18H1197.16C1197.16 790.892 1197.39 791.528 1197.67 792.077C1197.93 792.606 1198.29 793.144 1198.54 793.571L1199.83 792.803ZM1184.99 790.179C1184.99 790.567 1184.86 790.963 1184.64 791.407C1184.41 791.87 1184.13 792.285 1183.82 792.803L1185.11 793.571C1185.37 793.144 1185.72 792.606 1185.99 792.077C1186.26 791.528 1186.49 790.892 1186.49 790.179H1184.99Z" fill="#717171"/>
<path d="M1194 800.834C1193.53 801.537 1192.73 802 1191.83 802C1190.92 802 1190.12 801.537 1189.65 800.834" stroke="#717171" stroke-width="1.5" stroke-linecap="round"/>
<path d="M623.723 734.759C624.661 734.446 625.554 735.339 625.241 736.277L620.185 751.447C619.856 752.432 618.516 752.563 618.003 751.66L614.908 746.217C614.641 745.748 614.252 745.359 613.783 745.092L608.34 741.997C607.437 741.484 607.568 740.144 608.553 739.816L623.723 734.759Z" stroke="#717171" stroke-width="1.5"/>
<path d="M616.786 743.214L614.786 745.214" stroke="#717171" stroke-width="1.5" stroke-linecap="round" stroke-linejoin="round"/>
<path d="M1249 740.85V739C1249 736.791 1247.21 735 1245 735H1243.15M1249 747.15V749C1249 751.209 1247.21 753 1245 753H1243.15M1236.85 753H1235C1232.79 753 1231 751.209 1231 749V747.15M1231 740.85V739C1231 736.791 1232.79 735 1235 735H1236.85" stroke="#717171" stroke-width="1.5" stroke-linecap="round"/>
<path d="M1250 744L1230 744" stroke="#717171" stroke-width="1.5" stroke-linecap="round" stroke-linejoin="round"/>
<path d="M720 742.417C720 747.844 713.6 753.5 712 753.5C710.4 753.5 704 747.844 704 742.417C704 738.044 707.582 734.5 712 734.5C716.418 734.5 720 738.044 720 742.417Z" stroke="#717171" stroke-width="1.5"/>
<circle cx="3" cy="3" r="3" transform="matrix(-1 0 0 1 715 739)" stroke="#717171" stroke-width="1.5"/>
<rect x="846" y="734" width="20" height="20" rx="5" stroke="#717171" stroke-width="1.5"/>
<path d="M846.5 749.5L848.759 747.886C849.475 747.375 850.456 747.456 851.078 748.078L852.151 749.151C852.62 749.62 853.38 749.62 853.849 749.151L858.838 744.162C859.496 743.504 860.548 743.456 861.263 744.052L866 748" stroke="#717171" stroke-width="1.5" stroke-linecap="round"/>
<circle cx="2" cy="2" r="2" transform="matrix(-1 0 0 1 854 738)" stroke="#717171" stroke-width="1.5"/>
<path d="M1185.05 740.734C1184.21 739.608 1185.01 738 1186.42 738H1197.58C1198.99 738 1199.79 739.608 1198.95 740.734V740.734C1198.33 741.556 1198 742.555 1198 743.582V750C1198 752.209 1196.21 754 1194 754H1190C1187.79 754 1186 752.209 1186 750V743.582C1186 742.555 1185.67 741.556 1185.05 740.734V740.734Z" stroke="#717171" stroke-width="1.5"/>
<path d="M1194 749L1194 743" stroke="#717171" stroke-width="1.5" stroke-linecap="round" stroke-linejoin="round"/>
<path d="M1190 749L1190 743" stroke="#717171" stroke-width="1.5" stroke-linecap="round" stroke-linejoin="round"/>
<path d="M1196 738L1195.46 736.368C1195.18 735.551 1194.42 735 1193.56 735H1190.44C1189.58 735 1188.82 735.551 1188.54 736.368L1188 738" stroke="#717171" stroke-width="1.5" stroke-linecap="round"/>
<path d="M529 739L519 739" stroke="#717171" stroke-width="1.5" stroke-linecap="round" stroke-linejoin="round"/>
<circle cx="2" cy="2" r="2" transform="matrix(-1 0 0 1 515 737)" stroke="#717171" stroke-width="1.5"/>
<path d="M511 749L521 749" stroke="#717171" stroke-width="1.5" stroke-linecap="round" stroke-linejoin="round"/>
<circle cx="527" cy="749" r="2" stroke="#717171" stroke-width="1.5"/>
<circle cx="3" cy="3" r="3" transform="matrix(-1 0 0 1 571 741)" stroke="#717171" stroke-width="1.5"/>
<path d="M572.5 736.937L572.875 736.288L572.875 736.288L572.5 736.937ZM572.5 751.062L572.125 750.413L572.5 751.062ZM563.5 751.062L563.125 751.712H563.125L563.5 751.062ZM563.5 736.938L563.875 737.587L563.5 736.938ZM564.923 735.015L564.192 734.846L564.923 735.015ZM561.312 750.74L561.14 750.01L561.312 750.74ZM560.403 750.503L560.972 750.015L560.403 750.503ZM565.539 753.695L565.723 752.968L565.539 753.695ZM564.923 752.985L565.654 752.816L564.923 752.985ZM571.077 752.985L570.346 752.816L571.077 752.985ZM570.461 753.695L570.645 754.422L570.461 753.695ZM575.597 750.503L575.027 750.015L575.597 750.503ZM577.444 740.703L578.152 740.456L577.444 740.703ZM577.094 741.684L576.617 741.105L577.094 741.684ZM574.688 737.26L574.516 736.53L574.688 737.26ZM577.094 746.316L576.617 746.895L577.094 746.316ZM577.444 747.297L576.736 747.05L577.444 747.297ZM571.077 735.015L570.346 735.184L571.077 735.015ZM570.346 735.184C570.572 736.16 571.188 737.046 572.125 737.587L572.875 736.288C572.313 735.963 571.944 735.434 571.808 734.846L570.346 735.184ZM572.125 737.587C572.986 738.084 573.964 738.201 574.86 737.989L574.516 736.53C573.977 736.657 573.392 736.587 572.875 736.288L572.125 737.587ZM578.152 740.456C577.706 739.179 577.027 738.013 576.166 737.009L575.027 737.985C575.769 738.85 576.353 739.853 576.736 740.95L578.152 740.456ZM576.75 744C576.75 743.301 577.068 742.676 577.57 742.262L576.617 741.105C575.783 741.791 575.25 742.834 575.25 744H576.75ZM577.57 745.738C577.068 745.324 576.75 744.699 576.75 744H575.25C575.25 745.166 575.783 746.209 576.617 746.895L577.57 745.738ZM576.167 750.991C577.027 749.986 577.706 748.82 578.152 747.544L576.736 747.05C576.353 748.147 575.769 749.15 575.027 750.015L576.167 750.991ZM572.875 751.712C573.392 751.413 573.977 751.343 574.516 751.47L574.86 750.01C573.964 749.799 572.986 749.916 572.125 750.413L572.875 751.712ZM571.808 753.154C571.944 752.566 572.313 752.036 572.875 751.712L572.125 750.413C571.188 750.954 570.572 751.84 570.346 752.816L571.808 753.154ZM568 754.75C568.912 754.75 569.798 754.636 570.645 754.422L570.277 752.968C569.549 753.152 568.787 753.25 568 753.25V754.75ZM565.355 754.422C566.202 754.636 567.088 754.75 568 754.75V753.25C567.213 753.25 566.451 753.152 565.723 752.968L565.355 754.422ZM563.125 751.712C563.687 752.036 564.056 752.566 564.192 753.154L565.654 752.816C565.428 751.84 564.812 750.954 563.875 750.413L563.125 751.712ZM561.484 751.47C562.023 751.343 562.608 751.413 563.125 751.712L563.875 750.413C563.014 749.916 562.036 749.799 561.14 750.01L561.484 751.47ZM557.848 747.544C558.294 748.821 558.973 749.986 559.833 750.991L560.972 750.015C560.231 749.15 559.647 748.147 559.264 747.05L557.848 747.544ZM559.25 744C559.25 744.699 558.932 745.324 558.429 745.738L559.383 746.895C560.217 746.209 560.75 745.166 560.75 744H559.25ZM558.429 742.262C558.932 742.676 559.25 743.301 559.25 744H560.75C560.75 742.834 560.217 741.791 559.383 741.105L558.429 742.262ZM559.834 737.009C558.973 738.013 558.294 739.179 557.848 740.456L559.264 740.95C559.647 739.853 560.231 738.85 560.973 737.985L559.834 737.009ZM563.125 736.288C562.608 736.587 562.023 736.657 561.484 736.53L561.14 737.989C562.036 738.201 563.014 738.084 563.875 737.587L563.125 736.288ZM564.192 734.846C564.056 735.434 563.687 735.963 563.125 736.288L563.875 737.587C564.812 737.046 565.428 736.16 565.654 735.184L564.192 734.846ZM568 733.25C567.088 733.25 566.202 733.364 565.355 733.578L565.723 735.032C566.451 734.848 567.213 734.75 568 734.75V733.25ZM570.645 733.578C569.798 733.364 568.912 733.25 568 733.25V734.75C568.787 734.75 569.549 734.848 570.277 735.032L570.645 733.578ZM565.654 735.184C565.669 735.117 565.696 735.069 565.716 735.044C565.734 735.023 565.737 735.029 565.723 735.032L565.355 733.578C564.664 733.753 564.307 734.35 564.192 734.846L565.654 735.184ZM559.383 741.105C559.322 741.055 559.287 741 559.273 740.964C559.261 740.933 559.27 740.935 559.264 740.95L557.848 740.456C557.582 741.218 557.994 741.904 558.429 742.262L559.383 741.105ZM561.14 750.01C561.072 750.026 561.018 750.023 560.987 750.016C560.96 750.01 560.963 750.004 560.972 750.015L559.833 750.991C560.296 751.531 560.988 751.587 561.484 751.47L561.14 750.01ZM565.723 752.968C565.737 752.971 565.734 752.977 565.716 752.956C565.696 752.931 565.669 752.883 565.654 752.816L564.192 753.154C564.307 753.65 564.664 754.247 565.355 754.422L565.723 752.968ZM570.346 752.816C570.331 752.883 570.304 752.931 570.284 752.956C570.266 752.977 570.263 752.971 570.277 752.968L570.645 754.422C571.336 754.247 571.693 753.65 571.808 753.154L570.346 752.816ZM575.027 750.015C575.037 750.004 575.04 750.01 575.013 750.016C574.982 750.023 574.928 750.026 574.86 750.01L574.516 751.47C575.012 751.587 575.703 751.531 576.167 750.991L575.027 750.015ZM576.736 740.95C576.73 740.935 576.739 740.933 576.727 740.964C576.713 741 576.677 741.055 576.617 741.105L577.57 742.262C578.006 741.904 578.418 741.218 578.152 740.456L576.736 740.95ZM559.264 747.05C559.27 747.065 559.261 747.067 559.273 747.036C559.287 747 559.322 746.945 559.383 746.895L558.429 745.738C557.994 746.096 557.582 746.782 557.848 747.544L559.264 747.05ZM574.86 737.989C574.927 737.974 574.982 737.976 575.013 737.984C575.04 737.99 575.036 737.995 575.027 737.985L576.166 737.009C575.703 736.468 575.011 736.413 574.516 736.53L574.86 737.989ZM560.973 737.985C560.964 737.995 560.96 737.99 560.987 737.984C561.018 737.976 561.073 737.974 561.14 737.989L561.484 736.53C560.989 736.413 560.297 736.468 559.834 737.009L560.973 737.985ZM576.617 746.895C576.677 746.945 576.713 747 576.727 747.036C576.739 747.067 576.73 747.065 576.736 747.05L578.152 747.544C578.418 746.782 578.006 746.096 577.57 745.738L576.617 746.895ZM571.808 734.846C571.693 734.35 571.336 733.753 570.645 733.578L570.277 735.032C570.263 735.029 570.266 735.023 570.284 735.044C570.304 735.069 570.331 735.117 570.346 735.184L571.808 734.846Z" fill="#717171"/>
<path d="M1285 748V750C1285 752.209 1286.79 754 1289 754H1294C1296.21 754 1298 752.209 1298 750V738C1298 735.791 1296.21 734 1294 734H1289C1286.79 734 1285 735.791 1285 738V740" stroke="#717171" stroke-width="1.5" stroke-linecap="round"/>
<path d="M1290 747L1292.29 744.707C1292.68 744.317 1292.68 743.683 1292.29 743.293L1290 741" stroke="#717171" stroke-width="1.5" stroke-linecap="round"/>
<path d="M1292 744L1280 744" stroke="#717171" stroke-width="1.5" stroke-linecap="round"/>
<path d="M1340 748V750C1340 752.209 1338.21 754 1336 754H1331C1328.79 754 1327 752.209 1327 750V738C1327 735.791 1328.79 734 1331 734H1336C1338.21 734 1340 735.791 1340 738V740" stroke="#717171" stroke-width="1.5" stroke-linecap="round"/>
<path d="M1343 747L1345.29 744.707C1345.68 744.317 1345.68 743.683 1345.29 743.293L1343 741" stroke="#717171" stroke-width="1.5" stroke-linecap="round"/>
<path d="M1345 744L1333 744" stroke="#717171" stroke-width="1.5" stroke-linecap="round"/>
<path d="M517 788L515 788C512.791 788 511 789.791 511 792L511 797C511 799.209 512.791 801 515 801L527 801C529.209 801 531 799.209 531 797L531 792C531 789.791 529.209 788 527 788L525 788" stroke="#717171" stroke-width="1.5" stroke-linecap="round"/>
<path d="M518 793L520.293 795.293C520.683 795.683 521.317 795.683 521.707 795.293L524 793" stroke="#717171" stroke-width="1.5" stroke-linecap="round"/>
<path d="M521 795L521 783" stroke="#717171" stroke-width="1.5" stroke-linecap="round"/>
<path d="M572.5 788.5L574.5 788.5C576.709 788.5 578.5 790.291 578.5 792.5L578.5 797.5C578.5 799.709 576.709 801.5 574.5 801.5L562.5 801.5C560.291 801.5 558.5 799.709 558.5 797.5L558.5 792.5C558.5 790.291 560.291 788.5 562.5 788.5L564.5 788.5" stroke="#717171" stroke-width="1.5" stroke-linecap="round"/>
<path d="M571.5 785.5L569.207 783.207C568.817 782.817 568.183 782.817 567.793 783.207L565.5 785.5" stroke="#717171" stroke-width="1.5" stroke-linecap="round"/>
<path d="M568.5 783.5L568.5 795.5" stroke="#717171" stroke-width="1.5" stroke-linecap="round"/>
<path d="M607.201 792.784C606.933 792.295 606.933 791.704 607.201 791.215C608.9 788.108 612.203 786 616 786C619.797 786 623.1 788.108 624.799 791.216C625.067 791.705 625.067 792.296 624.799 792.785C623.1 795.892 619.797 798 616 798C612.203 798 608.9 795.892 607.201 792.784Z" stroke="#717171" stroke-width="1.5"/>
<circle cx="616" cy="792" r="3" stroke="#717171" stroke-width="1.5"/>
<path d="M672.799 791.216L673.457 790.856L672.799 791.216ZM672.799 792.785L673.457 793.144L672.799 792.785ZM655.201 791.215L655.859 791.575L655.201 791.215ZM655.201 792.784L654.543 793.144H654.543L655.201 792.784ZM671.524 788.309C671.227 788.02 670.752 788.026 670.463 788.322C670.174 788.619 670.18 789.094 670.476 789.383L671.524 788.309ZM661.686 796.96C661.285 796.857 660.876 797.099 660.774 797.5C660.671 797.901 660.912 798.31 661.314 798.413L661.686 796.96ZM666.604 786.341L666.41 787.066L666.604 786.341ZM659.073 796.709L658.704 797.362L659.505 796.096L659.073 796.709ZM655.859 791.575C657.432 788.699 660.488 786.75 664 786.75V785.25C659.919 785.25 656.368 787.517 654.543 790.856L655.859 791.575ZM672.141 792.425C670.568 795.301 667.512 797.25 664 797.25V798.75C668.081 798.75 671.632 796.483 673.457 793.144L672.141 792.425ZM672.141 791.575C672.286 791.84 672.286 792.16 672.141 792.425L673.457 793.144C673.848 792.431 673.848 791.569 673.457 790.856L672.141 791.575ZM654.543 790.856C654.152 791.569 654.152 792.431 654.543 793.144L655.859 792.425C655.714 792.16 655.714 791.84 655.859 791.575L654.543 790.856ZM670.476 789.383C671.135 790.025 671.697 790.763 672.141 791.575L673.457 790.856C672.941 789.912 672.288 789.054 671.524 788.309L670.476 789.383ZM664 797.25C663.2 797.25 662.425 797.149 661.686 796.96L661.314 798.413C662.173 798.633 663.073 798.75 664 798.75V797.25ZM664 786.75C664.835 786.75 665.642 786.86 666.41 787.066L666.798 785.617C665.905 785.377 664.967 785.25 664 785.25V786.75ZM657.93 794.99C657.095 794.268 656.392 793.399 655.859 792.425L654.543 793.144C655.162 794.277 655.979 795.286 656.948 796.124L657.93 794.99ZM659.442 796.056C658.902 795.751 658.396 795.393 657.93 794.99L656.948 796.124C657.489 796.592 658.077 797.008 658.704 797.362L659.442 796.056ZM657.007 796.17L658.641 797.322L659.505 796.096L657.871 794.944L657.007 796.17ZM666.41 787.066C667.127 787.258 667.81 787.534 668.447 787.882L669.167 786.566C668.426 786.161 667.632 785.84 666.798 785.617L666.41 787.066Z" fill="#717171"/>
<path d="M671.464 784.464L656.464 799.464" stroke="#717171" stroke-width="1.5" stroke-linecap="round" stroke-linejoin="round"/>
<path d="M661 792C661 790.343 662.343 789 664 789" stroke="#717171" stroke-width="1.5" stroke-linecap="round"/>
<path d="M702 786C702 783.791 703.791 782 706 782H712H714.757C715.553 782 716.316 782.316 716.879 782.879L721.121 787.121C721.684 787.684 722 788.447 722 789.243V792V798C722 800.209 720.209 802 718 802H706C703.791 802 702 800.209 702 798V786Z" stroke="#717171" stroke-width="1.5"/>
<path d="M706 795C706 793.895 706.895 793 708 793H716C717.105 793 718 793.895 718 795V802H706V795Z" stroke="#717171" stroke-width="1.5"/>
<path d="M708 782V786C708 786.552 708.448 787 709 787H715C715.552 787 716 786.552 716 786V782" stroke="#717171" stroke-width="1.5"/>
<path d="M720 690H704" stroke="#717171" stroke-width="1.5" stroke-linecap="round"/>
<path d="M720 696H704" stroke="#717171" stroke-width="1.5" stroke-linecap="round"/>
<path d="M720 702H704" stroke="#717171" stroke-width="1.5" stroke-linecap="round"/>
<circle cx="4" cy="4" r="4" transform="matrix(-1 0 0 1 764 783)" stroke="#717171" stroke-width="1.5"/>
<path d="M753 796.935C753 796.074 753.541 795.307 754.351 795.017V795.017C758.004 793.713 761.996 793.713 765.649 795.017V795.017C766.459 795.307 767 796.074 767 796.935V798.25C767 799.438 765.948 800.35 764.773 800.182L763.818 800.045C761.286 799.684 758.714 799.684 756.182 800.045L755.227 800.182C754.052 800.35 753 799.438 753 798.25V796.935Z" stroke="#717171" stroke-width="1.5"/>
<circle cx="3.40426" cy="3.40426" r="3.40426" transform="matrix(-1 0 0 1 811.617 785)" stroke="#717171" stroke-width="1.5"/>
<path d="M802.255 796.859C802.255 796.127 802.716 795.474 803.405 795.228V795.228C806.514 794.117 809.912 794.117 813.02 795.228V795.228C813.71 795.474 814.17 796.127 814.17 796.859V797.979C814.17 798.99 813.275 799.766 812.275 799.623L811.941 799.575C809.468 799.222 806.957 799.222 804.484 799.575L804.151 799.623C803.15 799.766 802.255 798.99 802.255 797.979V796.859Z" stroke="#717171" stroke-width="1.5"/>
<path d="M813.319 791.903C814.797 791.903 815.994 790.705 815.994 789.228C815.994 787.751 814.797 786.553 813.319 786.553" stroke="#717171" stroke-width="1.5" stroke-linecap="round"/>
<path d="M816.249 798.005L816.511 798.042C817.297 798.155 818 797.545 818 796.751V795.871C818 795.296 817.638 794.783 817.097 794.589C816.556 794.396 816.005 794.246 815.447 794.138" stroke="#717171" stroke-width="1.5" stroke-linecap="round"/>
<path d="M802.681 791.903C801.203 791.903 800.006 790.705 800.006 789.228C800.006 787.751 801.203 786.553 802.681 786.553" stroke="#717171" stroke-width="1.5" stroke-linecap="round"/>
<path d="M799.751 798.005L799.489 798.042C798.703 798.155 798 797.545 798 796.751V795.871C798 795.296 798.362 794.783 798.903 794.589C799.444 794.396 799.995 794.246 800.553 794.138" stroke="#717171" stroke-width="1.5" stroke-linecap="round"/>
<circle cx="4" cy="4" r="4" transform="matrix(-1 0 0 1 858 783)" stroke="#717171" stroke-width="1.5"/>
<path d="M847 796.935C847 796.074 847.541 795.307 848.351 795.017V795.017C852.004 793.713 855.996 793.713 859.649 795.017V795.017C860.459 795.307 861 796.074 861 796.935V798.25C861 799.438 859.948 800.35 858.773 800.182L857.818 800.045C855.286 799.684 852.714 799.684 850.182 800.045L849.227 800.182C848.052 800.35 847 799.438 847 798.25V796.935Z" stroke="#717171" stroke-width="1.5"/>
<path d="M861 791H865" stroke="#717171" stroke-width="1.5" stroke-linecap="round" stroke-linejoin="round"/>
<path d="M863 789L863 793" stroke="#717171" stroke-width="1.5" stroke-linecap="round" stroke-linejoin="round"/>
<path fill-rule="evenodd" clip-rule="evenodd" d="M953.514 783.806C954.587 782.731 956.327 782.73 957.401 783.804L959.893 786.296C960.958 787.361 960.969 789.085 959.918 790.163L950.685 799.636C949.979 800.36 949.012 800.768 948.001 800.768L945.249 800.768C943.97 800.768 942.948 799.702 943.002 798.423L943.12 795.614C943.16 794.675 943.55 793.785 944.214 793.12L953.514 783.806ZM956.341 784.866C955.853 784.378 955.062 784.378 954.574 784.867L952.911 786.532L957.191 790.812L958.845 789.115C959.322 788.625 959.317 787.842 958.833 787.358L956.341 784.866ZM945.274 794.181L951.851 787.594L956.144 791.886L949.611 798.589C949.188 799.023 948.608 799.268 948.001 799.268L945.249 799.268C944.823 799.268 944.482 798.912 944.5 798.486L944.618 795.677C944.642 795.113 944.876 794.579 945.274 794.181ZM960.515 800.695C960.929 800.695 961.265 800.359 961.265 799.945C961.265 799.53 960.929 799.195 960.515 799.195H954.393C953.979 799.195 953.643 799.53 953.643 799.945C953.643 800.359 953.979 800.695 954.393 800.695H960.515Z" fill="#717171"/>
<path fill-rule="evenodd" clip-rule="evenodd" d="M912.038 782.72C911.073 781.759 909.51 781.76 908.546 782.721L901.09 790.158C900.494 790.753 900.143 791.549 900.108 792.389L900.002 794.902C899.953 796.046 900.871 797 902.02 797L904.492 797C905.4 797 906.269 796.635 906.903 795.987L914.298 788.408C915.242 787.443 915.233 785.902 914.276 784.949L912.038 782.72ZM909.498 783.67C909.937 783.233 910.647 783.233 911.086 783.67L913.324 785.899C913.759 786.331 913.763 787.032 913.334 787.471L911.849 788.988L908.005 785.16L909.498 783.67ZM907.053 786.11L902.043 791.107C901.685 791.464 901.475 791.942 901.454 792.446L901.348 794.958C901.331 795.34 901.637 795.658 902.02 795.658L904.492 795.658C905.037 795.658 905.559 795.439 905.939 795.05L910.908 789.949L907.053 786.11Z" fill="#717171"/>
<path d="M913 793V797C913 799.761 910.761 802 908 802H900C897.239 802 895 799.761 895 797V789C895 786.239 897.239 784 900 784H904" stroke="#717171" stroke-width="1.5" stroke-linecap="round"/>
<circle cx="1005.5" cy="784.5" r="2.5" stroke="#717171" stroke-width="1.5"/>
<circle cx="993.5" cy="791.5" r="2.5" stroke="#717171" stroke-width="1.5"/>
<path d="M1003 786L996 790" stroke="#717171" stroke-width="1.5" stroke-linecap="round" stroke-linejoin="round"/>
<path d="M995.5 793.5L1003 798" stroke="#717171" stroke-width="1.5" stroke-linecap="round" stroke-linejoin="round"/>
<circle cx="1005.5" cy="799.5" r="2.5" stroke="#717171" stroke-width="1.5"/>
<path d="M1052.41 793.728L1054.54 791.607C1056.49 789.654 1056.49 786.488 1054.54 784.536V784.536C1052.58 782.583 1049.42 782.583 1047.46 784.536L1045.34 786.657M1049.59 796.556L1047.46 798.678C1045.51 800.63 1042.35 800.63 1040.39 798.678V798.678C1038.44 796.725 1038.44 793.559 1040.39 791.607L1042.51 789.485" stroke="#717171" stroke-width="1.5" stroke-linecap="round"/>
<path d="M1049.59 789.485L1045.34 793.728" stroke="#717171" stroke-width="1.5" stroke-linecap="round" stroke-linejoin="round"/>
<path d="M1094.04 792.96C1095.41 794.327 1097.62 794.327 1098.99 792.96L1102.53 789.425C1103.89 788.058 1103.89 785.842 1102.53 784.475C1101.16 783.108 1098.94 783.108 1097.58 784.475L1095.81 786.243" stroke="#717171" stroke-width="1.5" stroke-linecap="round"/>
<path d="M1096.87 790.132C1095.5 788.765 1093.29 788.765 1091.92 790.132L1088.38 793.667C1087.02 795.034 1087.02 797.25 1088.38 798.617C1089.75 799.984 1091.97 799.984 1093.33 798.617L1095.1 796.849" stroke="#717171" stroke-width="1.5" stroke-linecap="round"/>
<path d="M1144 782L1144 785" stroke="#717171" stroke-width="1.5" stroke-linecap="round" stroke-linejoin="round"/>
<path d="M1144 799L1144 802" stroke="#717171" stroke-width="1.5" stroke-linecap="round" stroke-linejoin="round"/>
<path d="M1154 792L1151 792" stroke="#717171" stroke-width="1.5" stroke-linecap="round" stroke-linejoin="round"/>
<path d="M1137 792L1134 792" stroke="#717171" stroke-width="1.5" stroke-linecap="round" stroke-linejoin="round"/>
<path d="M1151.07 784.929L1148.95 787.05" stroke="#717171" stroke-width="1.5" stroke-linecap="round" stroke-linejoin="round"/>
<path d="M1139.05 796.95L1136.93 799.071" stroke="#717171" stroke-width="1.5" stroke-linecap="round" stroke-linejoin="round"/>
<path d="M1136.93 784.929L1139.05 787.05" stroke="#717171" stroke-width="1.5" stroke-linecap="round" stroke-linejoin="round"/>
<path d="M1148.95 796.95L1151.07 799.071" stroke="#717171" stroke-width="1.5" stroke-linecap="round" stroke-linejoin="round"/>
<path d="M644 905.333L644 907.333" stroke="#717171" stroke-width="1.1" stroke-linecap="round" stroke-linejoin="round"/>
<path d="M644 916.667L644 918.667" stroke="#717171" stroke-width="1.1" stroke-linecap="round" stroke-linejoin="round"/>
<path d="M650.667 912L648.667 912" stroke="#717171" stroke-width="1.1" stroke-linecap="round" stroke-linejoin="round"/>
<path d="M639.333 912L637.333 912" stroke="#717171" stroke-width="1.1" stroke-linecap="round" stroke-linejoin="round"/>
<path d="M648.714 907.286L647.3 908.7" stroke="#717171" stroke-width="1.1" stroke-linecap="round" stroke-linejoin="round"/>
<path d="M640.7 915.3L639.286 916.714" stroke="#717171" stroke-width="1.1" stroke-linecap="round" stroke-linejoin="round"/>
<path d="M639.286 907.286L640.7 908.7" stroke="#717171" stroke-width="1.1" stroke-linecap="round" stroke-linejoin="round"/>
<path d="M647.3 915.3L648.714 916.714" stroke="#717171" stroke-width="1.1" stroke-linecap="round" stroke-linejoin="round"/>
<path d="M624 690L613 701L608 696" stroke="#717171" stroke-width="1.5" stroke-linecap="round" stroke-linejoin="round"/>
<path d="M585.333 908L578 915.333L574.667 912" stroke="#717171" stroke-width="1.1" stroke-linecap="round" stroke-linejoin="round"/>
<path d="M670 690L658 702" stroke="#717171" stroke-width="1.5" stroke-linecap="round" stroke-linejoin="round"/>
<path d="M658 690L670 702" stroke="#717171" stroke-width="1.5" stroke-linecap="round" stroke-linejoin="round"/>
<path d="M616 908L608 916" stroke="#717171" stroke-width="1.1" stroke-linecap="round" stroke-linejoin="round"/>
<path d="M608 908L616 916" stroke="#717171" stroke-width="1.1" stroke-linecap="round" stroke-linejoin="round"/>
<path d="M513 696H527" stroke="#717171" stroke-width="1.5" stroke-linecap="round" stroke-linejoin="round"/>
<path d="M511.333 912H520.667" stroke="#717171" stroke-width="1.1" stroke-linecap="round" stroke-linejoin="round"/>
<path d="M568 689V703" stroke="#717171" stroke-width="1.5" stroke-linecap="round" stroke-linejoin="round"/>
<path d="M561 696H575" stroke="#717171" stroke-width="1.5" stroke-linecap="round" stroke-linejoin="round"/>
<path d="M548 907.333V916.667" stroke="#717171" stroke-width="1.1" stroke-linecap="round" stroke-linejoin="round"/>
<path d="M543.333 912H552.667" stroke="#717171" stroke-width="1.1" stroke-linecap="round" stroke-linejoin="round"/>
<path d="M1278 797.926C1278 797.319 1278.15 796.721 1278.45 796.19L1284.64 785.056C1285.18 784.069 1286.14 783.372 1287.25 783.151V783.151C1287.74 783.051 1288.26 783.051 1288.75 783.151V783.151C1289.86 783.372 1290.82 784.069 1291.36 785.056L1297.55 796.19C1297.85 796.721 1298 797.319 1298 797.926V797.926C1298 799.9 1296.4 801.5 1294.43 801.5H1281.57C1279.6 801.5 1278 799.9 1278 797.926V797.926Z" stroke="#717171" stroke-width="1.5"/>
<path d="M1288 789L1288 793" stroke="#717171" stroke-width="1.5" stroke-linecap="round" stroke-linejoin="round"/>
<path d="M1288 796L1288 796.5" stroke="#717171" stroke-width="1.5" stroke-linecap="round" stroke-linejoin="round"/>
<path d="M702 914.878C702 914.515 702.093 914.158 702.271 913.841L705.977 907.23C706.309 906.638 706.883 906.221 707.549 906.089V906.089C707.847 906.03 708.153 906.03 708.451 906.089V906.089C709.117 906.221 709.691 906.638 710.023 907.23L713.729 913.841C713.907 914.158 714 914.515 714 914.878V914.878C714 916.05 713.05 917 711.878 917H704.122C702.95 917 702 916.05 702 914.878V914.878Z" stroke="#717171" stroke-width="1.1"/>
<path d="M708 910L708 912.667" stroke="#717171" stroke-width="1.1" stroke-linecap="round" stroke-linejoin="round"/>
<path d="M708 914.667L708 915" stroke="#717171" stroke-width="1.1" stroke-linecap="round" stroke-linejoin="round"/>
<path d="M564.22 383.887L575.887 372.22C576.18 371.927 576.655 371.927 576.948 372.22C577.24 372.513 577.24 372.987 576.948 373.28L565.28 384.948C564.987 385.24 564.513 385.24 564.22 384.948C563.927 384.655 563.927 384.18 564.22 383.887Z" fill="#717171"/>
<path d="M569.448 383.458L575.121 377.785C575.414 377.492 575.889 377.492 576.182 377.785C576.475 378.077 576.475 378.552 576.182 378.845L570.508 384.519C570.215 384.812 569.741 384.812 569.448 384.519C569.155 384.226 569.155 383.751 569.448 383.458Z" fill="#717171"/>
<path d="M679.858 72.8182V99H674.322V72.8182H679.858ZM693.182 99.3835C691.171 99.3835 689.441 98.9574 687.992 98.1051C686.551 97.2443 685.444 96.0511 684.668 94.5256C683.901 93 683.517 91.2443 683.517 89.2585C683.517 87.2472 683.905 85.483 684.681 83.9659C685.465 82.4403 686.577 81.2514 688.017 80.3991C689.458 79.5384 691.171 79.108 693.157 79.108C694.87 79.108 696.37 79.419 697.657 80.0412C698.944 80.6634 699.962 81.5369 700.712 82.6619C701.462 83.7869 701.875 85.108 701.952 86.625H696.813C696.668 85.6449 696.284 84.8565 695.662 84.2599C695.049 83.6548 694.243 83.3523 693.246 83.3523C692.402 83.3523 691.665 83.5824 691.034 84.0426C690.412 84.4943 689.926 85.1548 689.577 86.0241C689.228 86.8935 689.053 87.946 689.053 89.1818C689.053 90.4347 689.223 91.5 689.564 92.3778C689.914 93.2557 690.404 93.9247 691.034 94.3849C691.665 94.8452 692.402 95.0753 693.246 95.0753C693.868 95.0753 694.426 94.9474 694.921 94.6918C695.424 94.4361 695.837 94.0653 696.161 93.5795C696.493 93.0852 696.711 92.4929 696.813 91.8026H701.952C701.867 93.3026 701.458 94.6236 700.725 95.7656C700 96.8991 698.999 97.7855 697.721 98.4247C696.442 99.0639 694.929 99.3835 693.182 99.3835ZM714.311 99.3835C712.325 99.3835 710.608 98.9616 709.159 98.1179C707.719 97.2656 706.607 96.081 705.822 94.5639C705.038 93.0384 704.646 91.2699 704.646 89.2585C704.646 87.2301 705.038 85.4574 705.822 83.9403C706.607 82.4148 707.719 81.2301 709.159 80.3864C710.608 79.5341 712.325 79.108 714.311 79.108C716.297 79.108 718.01 79.5341 719.45 80.3864C720.899 81.2301 722.016 82.4148 722.8 83.9403C723.584 85.4574 723.976 87.2301 723.976 89.2585C723.976 91.2699 723.584 93.0384 722.8 94.5639C722.016 96.081 720.899 97.2656 719.45 98.1179C718.01 98.9616 716.297 99.3835 714.311 99.3835ZM714.337 95.1648C715.24 95.1648 715.994 94.9091 716.599 94.3977C717.205 93.8778 717.661 93.1705 717.967 92.2756C718.283 91.3807 718.44 90.3622 718.44 89.2202C718.44 88.0781 718.283 87.0597 717.967 86.1648C717.661 85.2699 717.205 84.5625 716.599 84.0426C715.994 83.5227 715.24 83.2628 714.337 83.2628C713.425 83.2628 712.658 83.5227 712.036 84.0426C711.422 84.5625 710.957 85.2699 710.642 86.1648C710.335 87.0597 710.182 88.0781 710.182 89.2202C710.182 90.3622 710.335 91.3807 710.642 92.2756C710.957 93.1705 711.422 93.8778 712.036 94.3977C712.658 94.9091 713.425 95.1648 714.337 95.1648ZM732.963 87.6477V99H727.517V79.3636H732.707V82.8281H732.938C733.372 81.6861 734.101 80.7827 735.124 80.1179C736.146 79.4446 737.386 79.108 738.844 79.108C740.207 79.108 741.396 79.4062 742.411 80.0028C743.425 80.5994 744.213 81.4517 744.776 82.5597C745.338 83.6591 745.619 84.9716 745.619 86.4972V99H740.173V87.4688C740.182 86.267 739.875 85.3295 739.253 84.6562C738.631 83.9744 737.774 83.6335 736.683 83.6335C735.95 83.6335 735.303 83.7912 734.74 84.1065C734.186 84.4219 733.751 84.8821 733.436 85.4872C733.129 86.0838 732.972 86.804 732.963 87.6477ZM766.25 84.9631L761.264 85.2699C761.179 84.8437 760.995 84.4602 760.714 84.1193C760.433 83.7699 760.062 83.4929 759.602 83.2884C759.15 83.0753 758.609 82.9688 757.978 82.9688C757.135 82.9688 756.423 83.1477 755.843 83.5057C755.264 83.8551 754.974 84.3239 754.974 84.9119C754.974 85.3807 755.162 85.777 755.537 86.1009C755.912 86.4247 756.555 86.6847 757.467 86.8807L761.021 87.5966C762.93 87.9886 764.353 88.6193 765.291 89.4886C766.228 90.358 766.697 91.5 766.697 92.9148C766.697 94.2017 766.318 95.331 765.559 96.3026C764.809 97.2741 763.778 98.0327 762.466 98.5781C761.162 99.1151 759.657 99.3835 757.953 99.3835C755.353 99.3835 753.282 98.8423 751.74 97.7599C750.206 96.669 749.306 95.1861 749.042 93.3111L754.399 93.0298C754.561 93.8224 754.953 94.4276 755.575 94.8452C756.197 95.2543 756.994 95.4588 757.966 95.4588C758.92 95.4588 759.687 95.2756 760.267 94.9091C760.855 94.5341 761.153 94.0526 761.162 93.4645C761.153 92.9702 760.944 92.5653 760.535 92.25C760.126 91.9261 759.495 91.679 758.643 91.5085L755.243 90.831C753.325 90.4474 751.897 89.7827 750.96 88.8366C750.031 87.8906 749.566 86.6847 749.566 85.2188C749.566 83.9574 749.907 82.8707 750.589 81.9588C751.279 81.0469 752.247 80.3438 753.491 79.8494C754.744 79.3551 756.21 79.108 757.889 79.108C760.369 79.108 762.321 79.6321 763.744 80.6804C765.176 81.7287 766.011 83.1562 766.25 84.9631Z" fill="#263238"/>
<path d="M1018.78 501.038C1018.38 501.533 1017.62 501.533 1017.22 501.038L1013.25 496.129C1012.73 495.475 1013.19 494.5 1014.03 494.5L1021.97 494.5C1022.81 494.5 1023.27 495.475 1022.75 496.129L1018.78 501.038Z" fill="#89939E"/>
</svg>
